solid Google Offline Trex
facet normal 3.385698807696714e-05 0.9999999994268522 0.0
  outer loop
    vertex -4.297274780272798 57.66678619384822 5.937500000000018
    vertex -3.1705657958978333 57.66674804687555 0.0
    vertex -4.297274780272798 57.66678619384822 0.0
  endloop
endfacet
facet normal 3.3856988076967145e-05 0.9999999994268522 -7.2123323219671945e-22
  outer loop
    vertex -3.1705657958978333 57.66674804687555 5.937500000000018
    vertex -3.1705657958978333 57.66674804687555 0.0
    vertex -4.297274780272798 57.66678619384822 5.937500000000018
  endloop
endfacet
facet normal 0.0 1.0 0.0
  outer loop
    vertex -4.297274780272798 59.01627349853577 5.937500000000018
    vertex -4.297274780272798 59.01627349853577 0.0
    vertex -13.174647521971943 59.01627349853577 5.937500000000018
  endloop
endfacet
facet normal 0.0 1.0 0.0
  outer loop
    vertex -13.174647521971943 59.01627349853577 5.937500000000018
    vertex -4.297274780272798 59.01627349853577 0.0
    vertex -13.174647521971943 59.01627349853577 0.0
  endloop
endfacet
facet normal 5.7746306720553405e-31 2.723122886772943e-31 1.0
  outer loop
    vertex -24.471682739257272 26.133773803711442 5.937500000000018
    vertex -26.13420410156166 28.305976867676307 5.937500000000018
    vertex -26.13420410156166 26.133773803711442 5.937500000000018
  endloop
endfacet
facet normal 5.7746306720553405e-31 2.723122886772943e-31 1.0
  outer loop
    vertex -23.44034118652302 24.98982238769592 5.937500000000018
    vertex -24.471682739257272 26.133773803711442 5.937500000000018
    vertex -24.471682739257272 24.98982238769592 5.937500000000018
  endloop
endfacet
facet normal 5.7746306720553405e-31 2.723122886772943e-31 1.0
  outer loop
    vertex -22.36703796386665 23.928649902344166 5.937500000000018
    vertex -23.44034118652302 24.98982238769592 5.937500000000018
    vertex -23.44034118652302 23.928649902344166 5.937500000000018
  endloop
endfacet
facet normal 5.7746306720553405e-31 2.723122886772943e-31 1.0
  outer loop
    vertex -14.227923583983717 22.870452880859954 5.937500000000018
    vertex -22.36703796386665 23.928649902344166 5.937500000000018
    vertex -22.36703796386665 22.870452880859954 5.937500000000018
  endloop
endfacet
facet normal 5.7746306720553405e-31 2.723122886772943e-31 1.0
  outer loop
    vertex -22.36703796386665 23.928649902344166 5.937500000000018
    vertex -14.227923583983717 22.870452880859954 5.937500000000018
    vertex -20.14104766845636 30.535400390625707 5.937500000000018
  endloop
endfacet
facet normal 5.7746306720553405e-31 2.723122886772943e-31 1.0
  outer loop
    vertex -22.36703796386665 23.928649902344166 5.937500000000018
    vertex -20.14104766845636 30.535400390625707 5.937500000000018
    vertex -21.18539733886657 53.09346008300855 5.937500000000018
  endloop
endfacet
facet normal 5.7746306720553405e-31 2.723122886772943e-31 1.0
  outer loop
    vertex -20.14104766845636 30.535400390625707 5.937500000000018
    vertex -14.227923583983717 22.870452880859954 5.937500000000018
    vertex -14.227923583983717 30.535400390625707 5.937500000000018
  endloop
endfacet
facet normal 5.7746306720553405e-31 2.723122886772943e-31 1.0
  outer loop
    vertex 7.70048217773473 1.1334304809575058 5.937500000000018
    vertex 7.700444030762216 3.3664779663091964 5.937500000000018
    vertex 6.663647460938095 1.1334304809575058 5.937500000000018
  endloop
endfacet
facet normal 5.7746306720553405e-31 2.723122886772943e-31 1.0
  outer loop
    vertex 9.03760986328165 3.3664779663091964 5.937500000000018
    vertex 7.770443725586412 29.166343688965583 5.937500000000018
    vertex 7.700444030762216 3.3664779663091964 5.937500000000018
  endloop
endfacet
facet normal 5.7746306720553405e-31 2.723122886772943e-31 1.0
  outer loop
    vertex 7.770443725586412 29.166343688965583 5.937500000000018
    vertex 9.03760986328165 3.3664779663091964 5.937500000000018
    vertex 9.03760986328165 29.166343688965583 5.937500000000018
  endloop
endfacet
facet normal 5.7746306720553405e-31 2.723122886772943e-31 1.0
  outer loop
    vertex 4.4414337158207795 -2.1644897460933357 5.937500000000018
    vertex -3.1705657958978333 3.3664398193366822 5.937500000000018
    vertex -3.1705657958978333 -2.1644897460933357 5.937500000000018
  endloop
endfacet
facet normal 5.7746306720553405e-31 2.723122886772943e-31 1.0
  outer loop
    vertex -3.1705657958978333 3.3664398193366822 5.937500000000018
    vertex 4.4414337158207795 -2.1644897460933357 5.937500000000018
    vertex 3.3505447387701466 3.3664779663091964 5.937500000000018
  endloop
endfacet
facet normal 5.7746306720553405e-31 2.723122886772943e-31 1.0
  outer loop
    vertex 3.3505447387701466 3.3664779663091964 5.937500000000018
    vertex 4.4414337158207795 -2.1644897460933357 5.937500000000018
    vertex 3.3505447387701466 29.166343688965583 5.937500000000018
  endloop
endfacet
facet normal 5.7746306720553405e-31 2.723122886772943e-31 1.0
  outer loop
    vertex 3.3505447387701466 29.166343688965583 5.937500000000018
    vertex 4.4414337158207795 -2.1644897460933357 5.937500000000018
    vertex 4.4414337158207795 29.166343688965583 5.937500000000018
  endloop
endfacet
facet normal 5.7746306720553405e-31 2.723122886772943e-31 1.0
  outer loop
    vertex 4.4414337158207795 29.166343688965583 5.937500000000018
    vertex 4.4414337158207795 -2.1644897460933357 5.937500000000018
    vertex 4.4414337158207795 -0.8237380981440138 5.937500000000018
  endloop
endfacet
facet normal 5.7746306720553405e-31 2.723122886772943e-31 1.0
  outer loop
    vertex 4.4414337158207795 29.166343688965583 5.937500000000018
    vertex 4.4414337158207795 -0.8237380981440138 5.937500000000018
    vertex 6.663647460938095 -0.8237380981440138 5.937500000000018
  endloop
endfacet
facet normal 5.7746306720553405e-31 2.723122886772943e-31 1.0
  outer loop
    vertex 4.4414337158207795 29.166343688965583 5.937500000000018
    vertex 6.663647460938095 -0.8237380981440138 5.937500000000018
    vertex 4.4414337158207795 30.553443908692078 5.937500000000018
  endloop
endfacet
facet normal 5.7746306720553405e-31 2.723122886772943e-31 1.0
  outer loop
    vertex 4.4414337158207795 30.553443908692078 5.937500000000018
    vertex 6.663647460938095 -0.8237380981440138 5.937500000000018
    vertex 6.663647460938095 1.1334304809575058 5.937500000000018
  endloop
endfacet
facet normal 5.7746306720553405e-31 2.723122886772943e-31 1.0
  outer loop
    vertex 4.4414337158207795 30.553443908692078 5.937500000000018
    vertex 6.663647460938095 1.1334304809575058 5.937500000000018
    vertex 7.770443725586412 30.553443908692078 5.937500000000018
  endloop
endfacet
facet normal 5.7746306720553405e-31 2.723122886772943e-31 1.0
  outer loop
    vertex 7.770443725586412 30.553443908692078 5.937500000000018
    vertex 6.663647460938095 1.1334304809575058 5.937500000000018
    vertex 7.700444030762216 3.3664779663091964 5.937500000000018
  endloop
endfacet
facet normal 5.7746306720553405e-31 2.723122886772943e-31 1.0
  outer loop
    vertex 7.770443725586412 30.553443908692078 5.937500000000018
    vertex 7.700444030762216 3.3664779663091964 5.937500000000018
    vertex 7.770443725586412 29.166343688965583 5.937500000000018
  endloop
endfacet
facet normal 5.7746306720553405e-31 2.723122886772943e-31 1.0
  outer loop
    vertex -3.1705657958978333 -18.60448907857538 5.937500000000018
    vertex -14.227923583983717 22.870452880859954 5.937500000000018
    vertex -14.227923583983717 -18.60450281252335 5.937500000000018
  endloop
endfacet
facet normal 5.7746306720553405e-31 2.723122886772943e-31 1.0
  outer loop
    vertex -14.227923583983717 22.870452880859954 5.937500000000018
    vertex -3.1705657958978333 -18.60448907857538 5.937500000000018
    vertex -14.227923583983717 30.535400390625707 5.937500000000018
  endloop
endfacet
facet normal 5.7746306720553405e-31 2.723122886772943e-31 1.0
  outer loop
    vertex -14.227923583983717 30.535400390625707 5.937500000000018
    vertex -3.1705657958978333 -18.60448907857538 5.937500000000018
    vertex -14.227923583983717 57.66674804687555 5.937500000000018
  endloop
endfacet
facet normal 5.7746306720553405e-31 2.723122886772943e-31 1.0
  outer loop
    vertex -14.227923583983717 57.66674804687555 5.937500000000018
    vertex -3.1705657958978333 -18.60448907857538 5.937500000000018
    vertex -13.174647521971943 57.66678619384822 5.937500000000018
  endloop
endfacet
facet normal 5.7746306720553405e-31 2.723122886772943e-31 1.0
  outer loop
    vertex -13.174647521971943 57.66678619384822 5.937500000000018
    vertex -3.1705657958978333 -18.60448907857538 5.937500000000018
    vertex -13.174647521971943 59.01627349853577 5.937500000000018
  endloop
endfacet
facet normal 5.7746306720553405e-31 2.723122886772943e-31 1.0
  outer loop
    vertex -13.174647521971943 59.01627349853577 5.937500000000018
    vertex -3.1705657958978333 -18.60448907857538 5.937500000000018
    vertex -4.297274780272798 57.66678619384822 5.937500000000018
  endloop
endfacet
facet normal 5.7746306720553405e-31 2.723122886772943e-31 1.0
  outer loop
    vertex -4.297274780272798 57.66678619384822 5.937500000000018
    vertex -3.1705657958978333 -18.60448907857538 5.937500000000018
    vertex -3.1705657958978333 57.66674804687555 5.937500000000018
  endloop
endfacet
facet normal 5.7746306720553405e-31 2.723122886772943e-31 1.0
  outer loop
    vertex -3.1705657958978333 57.66674804687555 5.937500000000018
    vertex -3.1705657958978333 -18.60448907857538 5.937500000000018
    vertex -3.1705657958978333 -2.1644897460933357 5.937500000000018
  endloop
endfacet
facet normal 5.7746306720553405e-31 2.723122886772943e-31 1.0
  outer loop
    vertex -3.1705657958978333 57.66674804687555 5.937500000000018
    vertex -3.1705657958978333 -2.1644897460933357 5.937500000000018
    vertex -3.1705657958978333 3.3664398193366822 5.937500000000018
  endloop
endfacet
facet normal 5.7746306720553405e-31 2.723122886772943e-31 1.0
  outer loop
    vertex -4.297274780272798 59.01627349853577 5.937500000000018
    vertex -13.174647521971943 59.01627349853577 5.937500000000018
    vertex -4.297274780272798 57.66678619384822 5.937500000000018
  endloop
endfacet
facet normal 5.7746306720553405e-31 2.723122886772943e-31 1.0
  outer loop
    vertex -20.14104766845636 53.09346008300855 5.937500000000018
    vertex -21.18539733886657 53.09346008300855 5.937500000000018
    vertex -20.14104766845636 30.535400390625707 5.937500000000018
  endloop
endfacet
facet normal 5.7746306720553405e-31 2.723122886772943e-31 1.0
  outer loop
    vertex -26.13420410156166 28.305976867676307 5.937500000000018
    vertex -27.688502502440873 53.09346008300855 5.937500000000018
    vertex -27.688502502440873 28.305976867676307 5.937500000000018
  endloop
endfacet
facet normal 5.7746306720553405e-31 2.723122886772943e-31 1.0
  outer loop
    vertex -27.688502502440873 53.09346008300855 5.937500000000018
    vertex -26.13420410156166 28.305976867676307 5.937500000000018
    vertex -26.726664733886125 53.09346008300855 5.937500000000018
  endloop
endfacet
facet normal 5.7746306720553405e-31 2.723122886772943e-31 1.0
  outer loop
    vertex -26.726664733886125 53.09346008300855 5.937500000000018
    vertex -26.13420410156166 28.305976867676307 5.937500000000018
    vertex -26.726664733886125 55.5031280517586 5.937500000000018
  endloop
endfacet
facet normal 5.7746306720553405e-31 2.723122886772943e-31 1.0
  outer loop
    vertex -26.726664733886125 55.5031280517586 5.937500000000018
    vertex -26.13420410156166 28.305976867676307 5.937500000000018
    vertex -21.18539733886657 55.5031280517586 5.937500000000018
  endloop
endfacet
facet normal 5.7746306720553405e-31 2.723122886772943e-31 1.0
  outer loop
    vertex -21.18539733886657 55.5031280517586 5.937500000000018
    vertex -26.13420410156166 28.305976867676307 5.937500000000018
    vertex -24.471682739257272 26.133773803711442 5.937500000000018
  endloop
endfacet
facet normal 5.7746306720553405e-31 2.723122886772943e-31 1.0
  outer loop
    vertex -21.18539733886657 55.5031280517586 5.937500000000018
    vertex -24.471682739257272 26.133773803711442 5.937500000000018
    vertex -23.44034118652302 24.98982238769592 5.937500000000018
  endloop
endfacet
facet normal 5.7746306720553405e-31 2.723122886772943e-31 1.0
  outer loop
    vertex -21.18539733886657 55.5031280517586 5.937500000000018
    vertex -23.44034118652302 24.98982238769592 5.937500000000018
    vertex -22.36703796386665 23.928649902344166 5.937500000000018
  endloop
endfacet
facet normal 5.7746306720553405e-31 2.723122886772943e-31 1.0
  outer loop
    vertex -21.18539733886657 55.5031280517586 5.937500000000018
    vertex -22.36703796386665 23.928649902344166 5.937500000000018
    vertex -21.18539733886657 53.09346008300855 5.937500000000018
  endloop
endfacet
facet normal 1.0 0.0 0.0
  outer loop
    vertex -4.297274780272798 59.01627349853577 0.0
    vertex -4.297274780272798 57.66678619384822 5.937500000000018
    vertex -4.297274780272798 57.66678619384822 0.0
  endloop
endfacet
facet normal 1.0 0.0 0.0
  outer loop
    vertex -4.297274780272798 59.01627349853577 5.937500000000018
    vertex -4.297274780272798 57.66678619384822 5.937500000000018
    vertex -4.297274780272798 59.01627349853577 0.0
  endloop
endfacet
facet normal 1.0 0.0 0.0
  outer loop
    vertex -3.1705657958978333 -18.6044235229487 0.0
    vertex -3.1705657958978333 -2.1644897460933357 5.937500000000018
    vertex -3.1705657958978333 -18.60448907857538 5.937500000000018
  endloop
endfacet
facet normal 1.0 0.0 0.0
  outer loop
    vertex -3.1705657958978333 -2.1644897460933357 5.937500000000018
    vertex -3.1705657958978333 -18.6044235229487 0.0
    vertex -3.1705657958978333 -2.1644897460933357 0.0
  endloop
endfacet
facet normal 0.0 -1.0 0.0
  outer loop
    vertex 4.4414337158207795 -2.1644897460933357 5.937500000000018
    vertex -3.1705657958978333 -2.1644897460933357 0.0
    vertex 4.4414337158207795 -2.1644897460933357 0.0
  endloop
endfacet
facet normal 0.0 1.0 0.0
  outer loop
    vertex 4.4414337158207795 29.166343688965583 5.937500000000018
    vertex 4.4414337158207795 29.166343688965583 0.0
    vertex 3.3505447387701466 29.166343688965583 5.937500000000018
  endloop
endfacet
facet normal -1.0 0.0 0.0
  outer loop
    vertex 4.4414337158207795 30.553443908692078 5.937500000000018
    vertex 4.4414337158207795 29.166343688965583 0.0
    vertex 4.4414337158207795 29.166343688965583 5.937500000000018
  endloop
endfacet
facet normal 1.0 0.0 0.0
  outer loop
    vertex 6.663647460938095 1.1334304809575058 0.0
    vertex 6.663647460938095 -0.8237380981440138 5.937500000000018
    vertex 6.663647460938095 -0.8237380981440138 0.0
  endloop
endfacet
facet normal 0.0 -1.0 0.0
  outer loop
    vertex -14.227923583983717 22.870452880859954 5.937500000000018
    vertex -22.36703796386665 22.870452880859954 0.0
    vertex -14.227923583983717 22.870452880859954 0.0
  endloop
endfacet
facet normal 1.0 0.0 0.0
  outer loop
    vertex 9.03760986328165 29.166343688965583 5.937500000000018
    vertex 9.03760986328165 3.3664779663091964 5.937500000000018
    vertex 9.03760986328165 29.166343688965583 0.0
  endloop
endfacet
facet normal -1.0 0.0 0.0
  outer loop
    vertex 3.3505447387701466 29.166343688965583 5.937500000000018
    vertex 3.3505447387701466 3.3664779663091964 0.0
    vertex 3.3505447387701466 3.3664779663091964 5.937500000000018
  endloop
endfacet
facet normal 0.0 1.0 0.0
  outer loop
    vertex 7.770443725586412 30.553443908692078 5.937500000000018
    vertex 7.770443725586412 30.553443908692078 0.0
    vertex 4.4414337158207795 30.553443908692078 5.937500000000018
  endloop
endfacet
facet normal 0.0 -1.0 0.0
  outer loop
    vertex 7.70048217773473 1.1334304809575058 5.937500000000018
    vertex 6.663647460938095 1.1334304809575058 0.0
    vertex 7.70048217773473 1.1334304809575058 0.0
  endloop
endfacet
facet normal 1.0 0.0 0.0
  outer loop
    vertex 9.03760986328165 29.166343688965583 0.0
    vertex 9.03760986328165 3.3664779663091964 5.937500000000018
    vertex 9.03760986328165 3.3664779663091964 0.0
  endloop
endfacet
facet normal 0.0 -1.0 0.0
  outer loop
    vertex 7.700444030762216 3.3664779663091964 5.937500000000018
    vertex 7.700444030762216 3.3664779663091964 0.0
    vertex 9.03760986328165 3.3664779663091964 5.937500000000018
  endloop
endfacet
facet normal 0.0 1.0 0.0
  outer loop
    vertex 7.770443725586412 29.166343688965583 5.937500000000018
    vertex 9.03760986328165 29.166343688965583 0.0
    vertex 7.770443725586412 29.166343688965583 0.0
  endloop
endfacet
facet normal 1.0 0.0 0.0
  outer loop
    vertex 6.663647460938095 1.1334304809575058 5.937500000000018
    vertex 6.663647460938095 -0.8237380981440138 5.937500000000018
    vertex 6.663647460938095 1.1334304809575058 0.0
  endloop
endfacet
facet normal 0.0 1.0 0.0
  outer loop
    vertex 9.03760986328165 29.166343688965583 5.937500000000018
    vertex 9.03760986328165 29.166343688965583 0.0
    vertex 7.770443725586412 29.166343688965583 5.937500000000018
  endloop
endfacet
facet normal 1.0 0.0 0.0
  outer loop
    vertex 7.770443725586412 30.553443908692078 5.937500000000018
    vertex 7.770443725586412 29.166343688965583 5.937500000000018
    vertex 7.770443725586412 30.553443908692078 0.0
  endloop
endfacet
facet normal 0.9999999998540869 1.708292042995557e-05 0.0
  outer loop
    vertex 7.700444030762216 3.3664779663091964 5.937500000000018
    vertex 7.70048217773473 1.1334304809575058 5.937500000000018
    vertex 7.700444030762216 3.3664779663091964 0.0
  endloop
endfacet
facet normal 0.0 -1.0 0.0
  outer loop
    vertex 6.663647460938095 1.1334304809575058 5.937500000000018
    vertex 6.663647460938095 1.1334304809575058 0.0
    vertex 7.70048217773473 1.1334304809575058 5.937500000000018
  endloop
endfacet
facet normal -1.0 0.0 0.0
  outer loop
    vertex 4.4414337158207795 30.553443908692078 0.0
    vertex 4.4414337158207795 29.166343688965583 0.0
    vertex 4.4414337158207795 30.553443908692078 5.937500000000018
  endloop
endfacet
facet normal -5.8497662799440644e-06 0.9999999999828901 0.0
  outer loop
    vertex -3.1705657958978333 3.3664398193366822 5.937500000000018
    vertex 3.3505447387701466 3.3664779663091964 0.0
    vertex -3.1705657958978333 3.3664398193366822 0.0
  endloop
endfacet
facet normal -5.8497662799440644e-06 0.9999999999828901 0.0
  outer loop
    vertex 3.3505447387701466 3.3664779663091964 0.0
    vertex -3.1705657958978333 3.3664398193366822 5.937500000000018
    vertex 3.3505447387701466 3.3664779663091964 5.937500000000018
  endloop
endfacet
facet normal 0.0 -1.0 0.0
  outer loop
    vertex 9.03760986328165 3.3664779663091964 5.937500000000018
    vertex 7.700444030762216 3.3664779663091964 0.0
    vertex 9.03760986328165 3.3664779663091964 0.0
  endloop
endfacet
facet normal 1.0 0.0 0.0
  outer loop
    vertex 7.770443725586412 30.553443908692078 0.0
    vertex 7.770443725586412 29.166343688965583 5.937500000000018
    vertex 7.770443725586412 29.166343688965583 0.0
  endloop
endfacet
facet normal 1.0 0.0 0.0
  outer loop
    vertex -3.1705657958978333 57.66674804687555 0.0
    vertex -3.1705657958978333 3.3664398193366822 5.937500000000018
    vertex -3.1705657958978333 3.3664398193366822 0.0
  endloop
endfacet
facet normal 1.0 0.0 0.0
  outer loop
    vertex -3.1705657958978333 3.3664398193366822 5.937500000000018
    vertex -3.1705657958978333 57.66674804687555 0.0
    vertex -3.1705657958978333 57.66674804687555 5.937500000000018
  endloop
endfacet
facet normal 0.0 -1.0 0.0
  outer loop
    vertex 6.663647460938095 -0.8237380981440138 5.937500000000018
    vertex 4.4414337158207795 -0.8237380981440138 0.0
    vertex 6.663647460938095 -0.8237380981440138 0.0
  endloop
endfacet
facet normal 1.0 0.0 0.0
  outer loop
    vertex 4.4414337158207795 -0.8237380981440138 0.0
    vertex 4.4414337158207795 -2.1644897460933357 5.937500000000018
    vertex 4.4414337158207795 -2.1644897460933357 0.0
  endloop
endfacet
facet normal 0.0 1.0 0.0
  outer loop
    vertex 4.4414337158207795 30.553443908692078 5.937500000000018
    vertex 7.770443725586412 30.553443908692078 0.0
    vertex 4.4414337158207795 30.553443908692078 0.0
  endloop
endfacet
facet normal 1.0 0.0 0.0
  outer loop
    vertex 4.4414337158207795 -0.8237380981440138 5.937500000000018
    vertex 4.4414337158207795 -2.1644897460933357 5.937500000000018
    vertex 4.4414337158207795 -0.8237380981440138 0.0
  endloop
endfacet
facet normal 0.0 -1.0 0.0
  outer loop
    vertex -3.1705657958978333 -2.1644897460933357 5.937500000000018
    vertex -3.1705657958978333 -2.1644897460933357 0.0
    vertex 4.4414337158207795 -2.1644897460933357 5.937500000000018
  endloop
endfacet
facet normal 0.0 1.0 0.0
  outer loop
    vertex 3.3505447387701466 29.166343688965583 5.937500000000018
    vertex 4.4414337158207795 29.166343688965583 0.0
    vertex 3.3505447387701466 29.166343688965583 0.0
  endloop
endfacet
facet normal 0.0 -1.0 0.0
  outer loop
    vertex 4.4414337158207795 -0.8237380981440138 5.937500000000018
    vertex 4.4414337158207795 -0.8237380981440138 0.0
    vertex 6.663647460938095 -0.8237380981440138 5.937500000000018
  endloop
endfacet
facet normal 0.0 1.0 0.0
  outer loop
    vertex -26.726664733886125 55.5031280517586 5.937500000000018
    vertex -21.18539733886657 55.5031280517586 0.0
    vertex -26.726664733886125 55.5031280517586 0.0
  endloop
endfacet
facet normal -1.0 0.0 0.0
  outer loop
    vertex -22.36703796386665 23.928649902344166 5.937500000000018
    vertex -22.36703796386665 22.870452880859954 0.0
    vertex -22.36703796386665 22.870452880859954 5.937500000000018
  endloop
endfacet
facet normal 0.0 -1.0 0.0
  outer loop
    vertex -23.44034118652302 23.928649902344166 5.937500000000018
    vertex -23.44034118652302 23.928649902344166 0.0
    vertex -22.36703796386665 23.928649902344166 5.937500000000018
  endloop
endfacet
facet normal -1.0 0.0 0.0
  outer loop
    vertex -26.13420410156166 28.305976867676307 0.0
    vertex -26.13420410156166 26.133773803711442 0.0
    vertex -26.13420410156166 28.305976867676307 5.937500000000018
  endloop
endfacet
facet normal 0.0 1.0 0.0
  outer loop
    vertex -20.14104766845636 53.09346008300855 5.937500000000018
    vertex -20.14104766845636 53.09346008300855 0.0
    vertex -21.18539733886657 53.09346008300855 5.937500000000018
  endloop
endfacet
facet normal 1.0 0.0 0.0
  outer loop
    vertex -20.14104766845636 53.09346008300855 0.0
    vertex -20.14104766845636 30.535400390625707 5.937500000000018
    vertex -20.14104766845636 30.535400390625707 0.0
  endloop
endfacet
facet normal 0.0 -1.0 0.0
  outer loop
    vertex -26.13420410156166 28.305976867676307 5.937500000000018
    vertex -27.688502502440873 28.305976867676307 0.0
    vertex -26.13420410156166 28.305976867676307 0.0
  endloop
endfacet
facet normal 0.0 -1.0 0.0
  outer loop
    vertex -23.44034118652302 24.98982238769592 5.937500000000018
    vertex -24.471682739257272 24.98982238769592 0.0
    vertex -23.44034118652302 24.98982238769592 0.0
  endloop
endfacet
facet normal -1.0 0.0 0.0
  outer loop
    vertex -26.726664733886125 55.5031280517586 0.0
    vertex -26.726664733886125 53.09346008300855 0.0
    vertex -26.726664733886125 55.5031280517586 5.937500000000018
  endloop
endfacet
facet normal 0.0 -1.0 0.0
  outer loop
    vertex -22.36703796386665 23.928649902344166 5.937500000000018
    vertex -23.44034118652302 23.928649902344166 0.0
    vertex -22.36703796386665 23.928649902344166 0.0
  endloop
endfacet
facet normal -1.0 0.0 0.0
  outer loop
    vertex -27.688502502440873 53.09346008300855 5.937500000000018
    vertex -27.688502502440873 28.305976867676307 0.0
    vertex -27.688502502440873 28.305976867676307 5.937500000000018
  endloop
endfacet
facet normal -1.0 0.0 0.0
  outer loop
    vertex -27.688502502440873 53.09346008300855 0.0
    vertex -27.688502502440873 28.305976867676307 0.0
    vertex -27.688502502440873 53.09346008300855 5.937500000000018
  endloop
endfacet
facet normal 0.0 1.0 0.0
  outer loop
    vertex -27.688502502440873 53.09346008300855 5.937500000000018
    vertex -26.726664733886125 53.09346008300855 0.0
    vertex -27.688502502440873 53.09346008300855 0.0
  endloop
endfacet
facet normal 0.0 1.0 0.0
  outer loop
    vertex -26.726664733886125 53.09346008300855 5.937500000000018
    vertex -26.726664733886125 53.09346008300855 0.0
    vertex -27.688502502440873 53.09346008300855 5.937500000000018
  endloop
endfacet
facet normal 1.0 0.0 0.0
  outer loop
    vertex -21.18539733886657 55.5031280517586 0.0
    vertex -21.18539733886657 53.09346008300855 5.937500000000018
    vertex -21.18539733886657 53.09346008300855 0.0
  endloop
endfacet
facet normal 1.0 0.0 0.0
  outer loop
    vertex -21.18539733886657 55.5031280517586 5.937500000000018
    vertex -21.18539733886657 53.09346008300855 5.937500000000018
    vertex -21.18539733886657 55.5031280517586 0.0
  endloop
endfacet
facet normal -1.0 0.0 0.0
  outer loop
    vertex -24.471682739257272 26.133773803711442 5.937500000000018
    vertex -24.471682739257272 24.98982238769592 0.0
    vertex -24.471682739257272 24.98982238769592 5.937500000000018
  endloop
endfacet
facet normal 0.0 1.0 0.0
  outer loop
    vertex -21.18539733886657 55.5031280517586 5.937500000000018
    vertex -21.18539733886657 55.5031280517586 0.0
    vertex -26.726664733886125 55.5031280517586 5.937500000000018
  endloop
endfacet
facet normal 0.0 -1.0 0.0
  outer loop
    vertex -27.688502502440873 28.305976867676307 5.937500000000018
    vertex -27.688502502440873 28.305976867676307 0.0
    vertex -26.13420410156166 28.305976867676307 5.937500000000018
  endloop
endfacet
facet normal -1.0 0.0 0.0
  outer loop
    vertex -23.44034118652302 24.98982238769592 5.937500000000018
    vertex -23.44034118652302 23.928649902344166 0.0
    vertex -23.44034118652302 23.928649902344166 5.937500000000018
  endloop
endfacet
facet normal 0.0 -1.0 0.0
  outer loop
    vertex -24.471682739257272 24.98982238769592 5.937500000000018
    vertex -24.471682739257272 24.98982238769592 0.0
    vertex -23.44034118652302 24.98982238769592 5.937500000000018
  endloop
endfacet
facet normal -1.0 0.0 0.0
  outer loop
    vertex -26.726664733886125 55.5031280517586 5.937500000000018
    vertex -26.726664733886125 53.09346008300855 0.0
    vertex -26.726664733886125 53.09346008300855 5.937500000000018
  endloop
endfacet
facet normal 0.0 -1.0 0.0
  outer loop
    vertex -26.13420410156166 26.133773803711442 5.937500000000018
    vertex -26.13420410156166 26.133773803711442 0.0
    vertex -24.471682739257272 26.133773803711442 5.937500000000018
  endloop
endfacet
facet normal 0.0 1.0 0.0
  outer loop
    vertex -21.18539733886657 53.09346008300855 5.937500000000018
    vertex -20.14104766845636 53.09346008300855 0.0
    vertex -21.18539733886657 53.09346008300855 0.0
  endloop
endfacet
facet normal 1.0 0.0 0.0
  outer loop
    vertex -20.14104766845636 53.09346008300855 5.937500000000018
    vertex -20.14104766845636 30.535400390625707 5.937500000000018
    vertex -20.14104766845636 53.09346008300855 0.0
  endloop
endfacet
facet normal -1.0 0.0 0.0
  outer loop
    vertex -23.44034118652302 24.98982238769592 0.0
    vertex -23.44034118652302 23.928649902344166 0.0
    vertex -23.44034118652302 24.98982238769592 5.937500000000018
  endloop
endfacet
facet normal -1.0 0.0 0.0
  outer loop
    vertex -22.36703796386665 23.928649902344166 0.0
    vertex -22.36703796386665 22.870452880859954 0.0
    vertex -22.36703796386665 23.928649902344166 5.937500000000018
  endloop
endfacet
facet normal -1.0 0.0 0.0
  outer loop
    vertex -24.471682739257272 26.133773803711442 0.0
    vertex -24.471682739257272 24.98982238769592 0.0
    vertex -24.471682739257272 26.133773803711442 5.937500000000018
  endloop
endfacet
facet normal 0.0 -1.0 0.0
  outer loop
    vertex -24.471682739257272 26.133773803711442 5.937500000000018
    vertex -26.13420410156166 26.133773803711442 0.0
    vertex -24.471682739257272 26.133773803711442 0.0
  endloop
endfacet
facet normal -1.0 0.0 0.0
  outer loop
    vertex -26.13420410156166 28.305976867676307 5.937500000000018
    vertex -26.13420410156166 26.133773803711442 0.0
    vertex -26.13420410156166 26.133773803711442 5.937500000000018
  endloop
endfacet
facet normal 0.0 -1.0 0.0
  outer loop
    vertex -22.36703796386665 22.870452880859954 5.937500000000018
    vertex -22.36703796386665 22.870452880859954 0.0
    vertex -14.227923583983717 22.870452880859954 5.937500000000018
  endloop
endfacet
facet normal -1.0 0.0 0.0
  outer loop
    vertex -14.227923583983717 57.66674804687555 5.937500000000018
    vertex -14.227923583983717 30.535400390625707 0.0
    vertex -14.227923583983717 30.535400390625707 5.937500000000018
  endloop
endfacet
facet normal -1.0 0.0 0.0
  outer loop
    vertex -14.227923583983717 30.535400390625707 0.0
    vertex -14.227923583983717 57.66674804687555 5.937500000000018
    vertex -14.227923583983717 57.66674804687555 0.0
  endloop
endfacet
facet normal 0.0 1.0 0.0
  outer loop
    vertex -20.14104766845636 30.535400390625707 5.937500000000018
    vertex -14.227923583983717 30.535400390625707 0.0
    vertex -20.14104766845636 30.535400390625707 0.0
  endloop
endfacet
facet normal 0.0 1.0 0.0
  outer loop
    vertex -14.227923583983717 30.535400390625707 0.0
    vertex -20.14104766845636 30.535400390625707 5.937500000000018
    vertex -14.227923583983717 30.535400390625707 5.937500000000018
  endloop
endfacet
facet normal -1.0 0.0 0.0
  outer loop
    vertex -13.174647521971943 59.01627349853577 0.0
    vertex -13.174647521971943 57.66678619384822 0.0
    vertex -13.174647521971943 59.01627349853577 5.937500000000018
  endloop
endfacet
facet normal -3.621744955845621e-05 0.9999999993441482 8.253056460306151e-22
  outer loop
    vertex -13.174647521971943 57.66678619384822 5.937500000000018
    vertex -13.174647521971943 57.66678619384822 0.0
    vertex -14.227923583983717 57.66674804687555 5.937500000000018
  endloop
endfacet
facet normal -1.0 0.0 0.0
  outer loop
    vertex -13.174647521971943 59.01627349853577 5.937500000000018
    vertex -13.174647521971943 57.66678619384822 0.0
    vertex -13.174647521971943 57.66678619384822 5.937500000000018
  endloop
endfacet
facet normal -3.6217449558456226e-05 0.9999999993441482 -8.253056460306151e-22
  outer loop
    vertex -14.227923583983717 57.66674804687555 5.937500000000018
    vertex -13.174647521971943 57.66678619384822 0.0
    vertex -14.227923583983717 57.66674804687555 0.0
  endloop
endfacet
facet normal -0.99999914659946 -0.00018514130997818718 -0.001293260626233621
  outer loop
    vertex -14.227923583983717 22.870452880859954 5.937500000000018
    vertex -14.212566115620897 -18.604423522948697 0.0
    vertex -14.227923583983717 -18.60450281252335 5.937500000000018
  endloop
endfacet
facet normal -0.99999914659946 -0.00018514130997818718 -0.001293260626233621
  outer loop
    vertex -14.212566115620897 -18.604423522948697 0.0
    vertex -14.227923583983717 22.870452880859954 5.937500000000018
    vertex -14.227923583983717 22.870452880859954 0.0
  endloop
endfacet
facet normal 0.9999999999999163 -4.08902420289175e-07 -1.7065795225924323e-08
  outer loop
    vertex 14.329434204102169 -18.6044235229487 0.0
    vertex 14.329433608481516 -21.104447444170212 25.00000672631645
    vertex 14.329432755190627 -21.104449541559294 -8.867077651020239e-07
  endloop
endfacet
facet normal 0.9999999999999163 -4.08902420289175e-07 -1.7065795225924323e-08
  outer loop
    vertex 14.329433608481516 -21.104447444170212 25.00000672631645
    vertex 14.329434204102169 -18.6044235229487 0.0
    vertex 14.329434204102169 -18.6044235229487 25.000007822762964
  endloop
endfacet
facet normal -0.0 -1.0 -0.0
  outer loop
    vertex 14.329434204102169 -28.604477009078614 25.000007822762964
    vertex -31.7125661156209 -28.604477009078614 0.0
    vertex 14.329434204102169 -28.604477009078614 0.0
  endloop
endfacet
facet normal -0.0 -1.0 -0.0
  outer loop
    vertex -31.7125661156209 -28.604477009078614 0.0
    vertex 14.329434204102169 -28.604477009078614 25.000007822762964
    vertex -31.7125661156209 -28.604477009078614 25.000007822762964
  endloop
endfacet
facet normal -1.0 -1.1710872349529177e-08 1.2179382086812964e-09
  outer loop
    vertex -31.7125661156209 -26.0044605272326 25.000007880930355
    vertex -31.7125661156209 -28.604477009078614 0.0
    vertex -31.7125661156209 -28.604477009078614 25.000007822762964
  endloop
endfacet
facet normal -1.0 -1.1710872349529177e-08 1.2179382086812964e-09
  outer loop
    vertex -31.7125661156209 -28.604477009078614 0.0
    vertex -31.7125661156209 -26.0044605272326 25.000007880930355
    vertex -31.71256617651782 -26.004461133140513 -1.7516475603329695e-07
  endloop
endfacet
facet normal -5.499437490775918e-08 0.9999999999998823 -4.819462495243373e-07
  outer loop
    vertex -31.7125661156209 -18.604423522948697 25.000007822762964
    vertex -14.212566115620897 -18.604423522948697 0.0
    vertex -31.7125661156209 -18.604423522948697 0.0
  endloop
endfacet
facet normal -5.499437490775918e-08 0.9999999999998823 -4.819462495243373e-07
  outer loop
    vertex -14.212566115620897 -18.604423522948697 0.0
    vertex -31.7125661156209 -18.604423522948697 25.000007822762964
    vertex -14.227923583983717 -18.60450281252335 5.937500000000018
  endloop
endfacet
facet normal -5.499437490775918e-08 0.9999999999998823 -4.819462495243373e-07
  outer loop
    vertex -14.227923583983717 -18.60450281252335 5.937500000000018
    vertex -31.7125661156209 -18.604423522948697 25.000007822762964
    vertex -3.1705657958978333 -18.60448907857538 5.937500000000018
  endloop
endfacet
facet normal -5.499437490775918e-08 0.9999999999998823 -4.819462495243373e-07
  outer loop
    vertex -3.1705657958978333 -18.60448907857538 5.937500000000018
    vertex 14.329434204102169 -18.6044235229487 0.0
    vertex -3.1705657958978333 -18.6044235229487 0.0
  endloop
endfacet
facet normal -5.499437490775918e-08 0.9999999999998823 -4.819462495243373e-07
  outer loop
    vertex 14.329434204102169 -18.6044235229487 0.0
    vertex -3.1705657958978333 -18.60448907857538 5.937500000000018
    vertex 14.329434204102169 -18.6044235229487 25.000007822762964
  endloop
endfacet
facet normal -5.499437490775918e-08 0.9999999999998823 -4.819462495243373e-07
  outer loop
    vertex 14.329434204102169 -18.6044235229487 25.000007822762964
    vertex -3.1705657958978333 -18.60448907857538 5.937500000000018
    vertex -31.7125661156209 -18.604423522948697 25.000007822762964
  endloop
endfacet
facet normal -1.0 0.0 0.0
  outer loop
    vertex 3.3505447387701466 29.166343688965583 0.0
    vertex 3.3505447387701466 3.3664779663091964 0.0
    vertex 3.3505447387701466 29.166343688965583 5.937500000000018
  endloop
endfacet
facet normal 2.167879505619199e-09 8.176582341443242e-10 -1.0
  outer loop
    vertex -13.174647521971943 57.66678619384822 0.0
    vertex -14.227923583983717 30.535400390625707 0.0
    vertex -14.227923583983717 57.66674804687555 0.0
  endloop
endfacet
facet normal 2.167879505619199e-09 8.176582341443242e-10 -1.0
  outer loop
    vertex -14.227923583983717 30.535400390625707 0.0
    vertex -13.174647521971943 57.66678619384822 0.0
    vertex -14.227923583983717 22.870452880859954 0.0
  endloop
endfacet
facet normal 2.167879505619199e-09 8.176582341443242e-10 -1.0
  outer loop
    vertex -14.227923583983717 22.870452880859954 0.0
    vertex -13.174647521971943 57.66678619384822 0.0
    vertex -14.212566115620897 -18.604423522948697 0.0
  endloop
endfacet
facet normal 2.167879505619199e-09 8.176582341443242e-10 -1.0
  outer loop
    vertex -4.297274780272798 59.01627349853577 0.0
    vertex -13.174647521971943 57.66678619384822 0.0
    vertex -13.174647521971943 59.01627349853577 0.0
  endloop
endfacet
facet normal 2.167879505619199e-09 8.176582341443242e-10 -1.0
  outer loop
    vertex 4.4414337158207795 29.166343688965583 0.0
    vertex 3.3505447387701466 3.3664779663091964 0.0
    vertex 3.3505447387701466 29.166343688965583 0.0
  endloop
endfacet
facet normal 2.167879505619199e-09 8.176582341443242e-10 -1.0
  outer loop
    vertex 3.3505447387701466 3.3664779663091964 0.0
    vertex -3.1705657958978333 -2.1644897460933357 0.0
    vertex -3.1705657958978333 3.3664398193366822 0.0
  endloop
endfacet
facet normal 2.167879505619199e-09 8.176582341443242e-10 -1.0
  outer loop
    vertex -3.1705657958978333 -2.1644897460933357 0.0
    vertex 3.3505447387701466 3.3664779663091964 0.0
    vertex 4.4414337158207795 -2.1644897460933357 0.0
  endloop
endfacet
facet normal 2.167879505619199e-09 8.176582341443242e-10 -1.0
  outer loop
    vertex 4.4414337158207795 -2.1644897460933357 0.0
    vertex 3.3505447387701466 3.3664779663091964 0.0
    vertex 4.4414337158207795 29.166343688965583 0.0
  endloop
endfacet
facet normal 2.167879505619199e-09 8.176582341443242e-10 -1.0
  outer loop
    vertex 4.4414337158207795 -2.1644897460933357 0.0
    vertex 4.4414337158207795 29.166343688965583 0.0
    vertex 4.4414337158207795 -0.8237380981440138 0.0
  endloop
endfacet
facet normal 2.167879505619199e-09 8.176582341443242e-10 -1.0
  outer loop
    vertex 14.329434204102169 -18.6044235229487 0.0
    vertex 11.829434204102585 -19.854450990468777 2.2203437837209348e-07
    vertex -3.1705657958978333 -18.6044235229487 0.0
  endloop
endfacet
facet normal 2.167879505619199e-09 8.176582341443242e-10 -1.0
  outer loop
    vertex 11.829434204102585 -19.854450990468777 2.2203437837209348e-07
    vertex 14.329434204102169 -18.6044235229487 0.0
    vertex 14.329432755190627 -21.104449541559294 -8.867077651020239e-07
  endloop
endfacet
facet normal 2.167879505619199e-09 8.176582341443242e-10 -1.0
  outer loop
    vertex -31.71256617651782 -21.204440610702637 -2.9149953486573563e-07
    vertex -34.212566622187786 -27.25444119797767 -1.3878016669188753e-07
    vertex -34.21256784907449 -19.954441197917806 -3.157052191227194e-07
  endloop
endfacet
facet normal 2.167879505619199e-09 8.176582341443242e-10 -1.0
  outer loop
    vertex -34.212566622187786 -27.25444119797767 -1.3878016669188753e-07
    vertex -31.71256617651782 -21.204440610702637 -2.9149953486573563e-07
    vertex -31.71256617651782 -26.004461133140513 -1.7516475603329695e-07
  endloop
endfacet
facet normal 2.167879505619199e-09 8.176582341443242e-10 -1.0
  outer loop
    vertex -31.71256617651782 -26.004461133140513 -1.7516475603329695e-07
    vertex -31.71256617651782 -21.204440610702637 -2.9149953486573563e-07
    vertex -31.7125661156209 -18.604423522948697 0.0
  endloop
endfacet
facet normal 2.167879505619199e-09 8.176582341443242e-10 -1.0
  outer loop
    vertex -31.71256617651782 -26.004461133140513 -1.7516475603329695e-07
    vertex -31.7125661156209 -18.604423522948697 0.0
    vertex -31.7125661156209 -28.604477009078614 0.0
  endloop
endfacet
facet normal 2.167879505619199e-09 8.176582341443242e-10 -1.0
  outer loop
    vertex -31.7125661156209 -28.604477009078614 0.0
    vertex -31.7125661156209 -18.604423522948697 0.0
    vertex -14.212566115620897 -18.604423522948697 0.0
  endloop
endfacet
facet normal 2.167879505619199e-09 8.176582341443242e-10 -1.0
  outer loop
    vertex -31.7125661156209 -28.604477009078614 0.0
    vertex -14.212566115620897 -18.604423522948697 0.0
    vertex 14.329434204102169 -28.604477009078614 0.0
  endloop
endfacet
facet normal 2.167879505619199e-09 8.176582341443242e-10 -1.0
  outer loop
    vertex 14.329434204102169 -28.604477009078614 0.0
    vertex -14.212566115620897 -18.604423522948697 0.0
    vertex 11.829434204102585 -27.35445099046877 -5.137456391413053e-08
  endloop
endfacet
facet normal 2.167879505619199e-09 8.176582341443242e-10 -1.0
  outer loop
    vertex 11.829434204102585 -27.35445099046877 -5.137456391413053e-08
    vertex -14.212566115620897 -18.604423522948697 0.0
    vertex -3.1705657958978333 -18.6044235229487 0.0
  endloop
endfacet
facet normal 2.167879505619199e-09 8.176582341443242e-10 -1.0
  outer loop
    vertex -3.1705657958978333 -18.6044235229487 0.0
    vertex -14.212566115620897 -18.604423522948697 0.0
    vertex -13.174647521971943 57.66678619384822 0.0
  endloop
endfacet
facet normal 2.167879505619199e-09 8.176582341443242e-10 -1.0
  outer loop
    vertex -3.1705657958978333 -18.6044235229487 0.0
    vertex -13.174647521971943 57.66678619384822 0.0
    vertex -4.297274780272798 57.66678619384822 0.0
  endloop
endfacet
facet normal 2.167879505619199e-09 8.176582341443242e-10 -1.0
  outer loop
    vertex -4.297274780272798 57.66678619384822 0.0
    vertex -13.174647521971943 57.66678619384822 0.0
    vertex -4.297274780272798 59.01627349853577 0.0
  endloop
endfacet
facet normal 2.167879505619199e-09 8.176582341443242e-10 -1.0
  outer loop
    vertex -3.1705657958978333 -18.6044235229487 0.0
    vertex -4.297274780272798 57.66678619384822 0.0
    vertex -3.1705657958978333 57.66674804687555 0.0
  endloop
endfacet
facet normal 2.167879505619199e-09 8.176582341443242e-10 -1.0
  outer loop
    vertex -3.1705657958978333 -18.6044235229487 0.0
    vertex -3.1705657958978333 57.66674804687555 0.0
    vertex -3.1705657958978333 3.3664398193366822 0.0
  endloop
endfacet
facet normal 2.167879505619199e-09 8.176582341443242e-10 -1.0
  outer loop
    vertex -3.1705657958978333 -18.6044235229487 0.0
    vertex -3.1705657958978333 3.3664398193366822 0.0
    vertex -3.1705657958978333 -2.1644897460933357 0.0
  endloop
endfacet
facet normal 2.167879505619199e-09 8.176582341443242e-10 -1.0
  outer loop
    vertex 11.829434204102585 -27.35445099046877 -5.137456391413053e-08
    vertex -3.1705657958978333 -18.6044235229487 0.0
    vertex 11.829434204102585 -19.854450990468777 2.2203437837209348e-07
  endloop
endfacet
facet normal 2.167879505619199e-09 8.176582341443242e-10 -1.0
  outer loop
    vertex 14.329434204102169 -28.604477009078614 0.0
    vertex 11.829434204102585 -27.35445099046877 -5.137456391413053e-08
    vertex 14.32943565301371 -26.104450990468017 8.867077622820573e-07
  endloop
endfacet
facet normal 2.167879505619199e-09 8.176582341443242e-10 -1.0
  outer loop
    vertex -21.18539733886657 55.5031280517586 0.0
    vertex -26.726664733886125 53.09346008300855 0.0
    vertex -26.726664733886125 55.5031280517586 0.0
  endloop
endfacet
facet normal 2.167879505619199e-09 8.176582341443242e-10 -1.0
  outer loop
    vertex -26.726664733886125 53.09346008300855 0.0
    vertex -21.18539733886657 55.5031280517586 0.0
    vertex -26.13420410156166 28.305976867676307 0.0
  endloop
endfacet
facet normal 2.167879505619199e-09 8.176582341443242e-10 -1.0
  outer loop
    vertex -26.13420410156166 28.305976867676307 0.0
    vertex -21.18539733886657 55.5031280517586 0.0
    vertex -26.13420410156166 26.133773803711442 0.0
  endloop
endfacet
facet normal 2.167879505619199e-09 8.176582341443242e-10 -1.0
  outer loop
    vertex -26.13420410156166 26.133773803711442 0.0
    vertex -21.18539733886657 55.5031280517586 0.0
    vertex -24.471682739257272 26.133773803711442 0.0
  endloop
endfacet
facet normal 2.167879505619199e-09 8.176582341443242e-10 -1.0
  outer loop
    vertex -24.471682739257272 26.133773803711442 0.0
    vertex -21.18539733886657 55.5031280517586 0.0
    vertex -24.471682739257272 24.98982238769592 0.0
  endloop
endfacet
facet normal 2.167879505619199e-09 8.176582341443242e-10 -1.0
  outer loop
    vertex -24.471682739257272 24.98982238769592 0.0
    vertex -21.18539733886657 55.5031280517586 0.0
    vertex -23.44034118652302 24.98982238769592 0.0
  endloop
endfacet
facet normal 2.167879505619199e-09 8.176582341443242e-10 -1.0
  outer loop
    vertex -23.44034118652302 24.98982238769592 0.0
    vertex -21.18539733886657 55.5031280517586 0.0
    vertex -23.44034118652302 23.928649902344166 0.0
  endloop
endfacet
facet normal 2.167879505619199e-09 8.176582341443242e-10 -1.0
  outer loop
    vertex -23.44034118652302 23.928649902344166 0.0
    vertex -21.18539733886657 55.5031280517586 0.0
    vertex -22.36703796386665 23.928649902344166 0.0
  endloop
endfacet
facet normal 2.167879505619199e-09 8.176582341443242e-10 -1.0
  outer loop
    vertex -22.36703796386665 23.928649902344166 0.0
    vertex -21.18539733886657 55.5031280517586 0.0
    vertex -22.36703796386665 22.870452880859954 0.0
  endloop
endfacet
facet normal 2.167879505619199e-09 8.176582341443242e-10 -1.0
  outer loop
    vertex -22.36703796386665 22.870452880859954 0.0
    vertex -21.18539733886657 55.5031280517586 0.0
    vertex -21.18539733886657 53.09346008300855 0.0
  endloop
endfacet
facet normal 2.167879505619199e-09 8.176582341443242e-10 -1.0
  outer loop
    vertex -22.36703796386665 22.870452880859954 0.0
    vertex -21.18539733886657 53.09346008300855 0.0
    vertex -20.14104766845636 30.535400390625707 0.0
  endloop
endfacet
facet normal 2.167879505619199e-09 8.176582341443242e-10 -1.0
  outer loop
    vertex -22.36703796386665 22.870452880859954 0.0
    vertex -20.14104766845636 30.535400390625707 0.0
    vertex -14.227923583983717 22.870452880859954 0.0
  endloop
endfacet
facet normal 2.167879505619199e-09 8.176582341443242e-10 -1.0
  outer loop
    vertex -20.14104766845636 30.535400390625707 0.0
    vertex -21.18539733886657 53.09346008300855 0.0
    vertex -20.14104766845636 53.09346008300855 0.0
  endloop
endfacet
facet normal 2.167879505619199e-09 8.176582341443242e-10 -1.0
  outer loop
    vertex -14.227923583983717 22.870452880859954 0.0
    vertex -20.14104766845636 30.535400390625707 0.0
    vertex -14.227923583983717 30.535400390625707 0.0
  endloop
endfacet
facet normal 2.167879505619199e-09 8.176582341443242e-10 -1.0
  outer loop
    vertex -26.726664733886125 53.09346008300855 0.0
    vertex -27.688502502440873 28.305976867676307 0.0
    vertex -27.688502502440873 53.09346008300855 0.0
  endloop
endfacet
facet normal 2.167879505619199e-09 8.176582341443242e-10 -1.0
  outer loop
    vertex -27.688502502440873 28.305976867676307 0.0
    vertex -26.726664733886125 53.09346008300855 0.0
    vertex -26.13420410156166 28.305976867676307 0.0
  endloop
endfacet
facet normal 2.167879505619199e-09 8.176582341443242e-10 -1.0
  outer loop
    vertex 7.770443725586412 30.553443908692078 0.0
    vertex 4.4414337158207795 29.166343688965583 0.0
    vertex 4.4414337158207795 30.553443908692078 0.0
  endloop
endfacet
facet normal 2.167879505619199e-09 8.176582341443242e-10 -1.0
  outer loop
    vertex 4.4414337158207795 29.166343688965583 0.0
    vertex 7.770443725586412 30.553443908692078 0.0
    vertex 4.4414337158207795 -0.8237380981440138 0.0
  endloop
endfacet
facet normal 2.167879505619199e-09 8.176582341443242e-10 -1.0
  outer loop
    vertex 4.4414337158207795 -0.8237380981440138 0.0
    vertex 7.770443725586412 30.553443908692078 0.0
    vertex 6.663647460938095 1.1334304809575058 0.0
  endloop
endfacet
facet normal 2.167879505619199e-09 8.176582341443242e-10 -1.0
  outer loop
    vertex 6.663647460938095 1.1334304809575058 0.0
    vertex 7.770443725586412 30.553443908692078 0.0
    vertex 7.700444030762216 3.3664779663091964 0.0
  endloop
endfacet
facet normal 2.167879505619199e-09 8.176582341443242e-10 -1.0
  outer loop
    vertex 7.700444030762216 3.3664779663091964 0.0
    vertex 7.770443725586412 30.553443908692078 0.0
    vertex 7.770443725586412 29.166343688965583 0.0
  endloop
endfacet
facet normal 2.167879505619199e-09 8.176582341443242e-10 -1.0
  outer loop
    vertex 7.700444030762216 3.3664779663091964 0.0
    vertex 7.770443725586412 29.166343688965583 0.0
    vertex 9.03760986328165 3.3664779663091964 0.0
  endloop
endfacet
facet normal 2.167879505619199e-09 8.176582341443242e-10 -1.0
  outer loop
    vertex 9.03760986328165 3.3664779663091964 0.0
    vertex 7.770443725586412 29.166343688965583 0.0
    vertex 9.03760986328165 29.166343688965583 0.0
  endloop
endfacet
facet normal 2.167879505619199e-09 8.176582341443242e-10 -1.0
  outer loop
    vertex 7.70048217773473 1.1334304809575058 0.0
    vertex 6.663647460938095 1.1334304809575058 0.0
    vertex 7.700444030762216 3.3664779663091964 0.0
  endloop
endfacet
facet normal 2.167879505619199e-09 8.176582341443242e-10 -1.0
  outer loop
    vertex 6.663647460938095 -0.8237380981440138 0.0
    vertex 4.4414337158207795 -0.8237380981440138 0.0
    vertex 6.663647460938095 1.1334304809575058 0.0
  endloop
endfacet
facet normal 0.9999999998540869 1.708292042995557e-05 -7.344518329659385e-22
  outer loop
    vertex 7.700444030762216 3.3664779663091964 0.0
    vertex 7.70048217773473 1.1334304809575058 5.937500000000018
    vertex 7.70048217773473 1.1334304809575058 0.0
  endloop
endfacet
facet normal -0.4472133881489582 0.8944272946753838 -5.977433832896883e-08
  outer loop
    vertex 11.829435057393479 -27.35444889307971 25.00000756164965
    vertex 14.32943565301371 -26.104450990468017 8.867077622820573e-07
    vertex 11.829434204102585 -27.35445099046877 -5.137456391413053e-08
  endloop
endfacet
facet normal -0.4472133881489582 0.8944272946753838 -5.977433832896883e-08
  outer loop
    vertex 14.32943565301371 -26.104450990468017 8.867077622820573e-07
    vertex 11.829435057393479 -27.35444889307971 25.00000756164965
    vertex 14.3294365063046 -26.104448893078956 25.000008499731972
  endloop
endfacet
facet normal 0.9999999999999996 1.2442522083457996e-15 -3.413162526639014e-08
  outer loop
    vertex 11.829434204102585 -19.854450990468777 2.2203437837209348e-07
    vertex 11.829435057393479 -27.35444889307971 25.00000756164965
    vertex 11.829434204102585 -27.35445099046877 -5.137456391413053e-08
  endloop
endfacet
facet normal 0.9999999999999996 1.2442522083457996e-15 -3.413162526639014e-08
  outer loop
    vertex 11.829435057393479 -27.35444889307971 25.00000756164965
    vertex 11.829434204102585 -19.854450990468777 2.2203437837209348e-07
    vertex 11.829435057393479 -19.854448893079695 25.000007835058593
  endloop
endfacet
facet normal -0.44721338814907635 -0.8944272946753221 9.030257861961765e-08
  outer loop
    vertex 14.329433608481516 -21.104447444170212 25.00000672631645
    vertex 11.829434204102585 -19.854450990468777 2.2203437837209348e-07
    vertex 14.329432755190627 -21.104449541559294 -8.867077651020239e-07
  endloop
endfacet
facet normal -0.44721338814907635 -0.8944272946753221 9.030257861961765e-08
  outer loop
    vertex 11.829434204102585 -19.854450990468777 2.2203437837209348e-07
    vertex 14.329433608481516 -21.104447444170212 25.00000672631645
    vertex 11.829435057393479 -19.854448893079695 25.000007835058593
  endloop
endfacet
facet normal 0.9999999999997184 -7.502147376786286e-07 -1.7065780908631266e-08
  outer loop
    vertex 14.32943565301371 -26.104450990468017 8.867077622820573e-07
    vertex 14.329434204102169 -28.604477009078614 25.000007822762964
    vertex 14.329434204102169 -28.604477009078614 0.0
  endloop
endfacet
facet normal 0.9999999999997184 -7.502147376786286e-07 -1.7065780908631266e-08
  outer loop
    vertex 14.329434204102169 -28.604477009078614 25.000007822762964
    vertex 14.32943565301371 -26.104450990468017 8.867077622820573e-07
    vertex 14.3294365063046 -26.104448893078956 25.000008499731972
  endloop
endfacet
facet normal 2.4497678226884806e-09 2.4236308815299316e-08 0.9999999999999998
  outer loop
    vertex -34.21256656129086 -27.254440592069756 25.000007917314946
    vertex -31.7125661156209 -21.20444000479471 25.000007764595576
    vertex -34.212567788177566 -19.954440592009878 25.000007740389893
  endloop
endfacet
facet normal 2.4497678226884806e-09 2.4236308815299316e-08 0.9999999999999998
  outer loop
    vertex -31.7125661156209 -21.20444000479471 25.000007764595576
    vertex -34.21256656129086 -27.254440592069756 25.000007917314946
    vertex -31.7125661156209 -26.0044605272326 25.000007880930355
  endloop
endfacet
facet normal 2.4497678226884806e-09 2.4236308815299316e-08 0.9999999999999998
  outer loop
    vertex 14.329434204102169 -28.604477009078614 25.000007822762964
    vertex -31.7125661156209 -26.0044605272326 25.000007880930355
    vertex -31.7125661156209 -28.604477009078614 25.000007822762964
  endloop
endfacet
facet normal 2.4497678226884806e-09 2.4236308815299316e-08 0.9999999999999998
  outer loop
    vertex -31.7125661156209 -26.0044605272326 25.000007880930355
    vertex 14.329434204102169 -28.604477009078614 25.000007822762964
    vertex -31.7125661156209 -21.20444000479471 25.000007764595576
  endloop
endfacet
facet normal 2.4497678226884806e-09 2.4236308815299316e-08 0.9999999999999998
  outer loop
    vertex -31.7125661156209 -21.20444000479471 25.000007764595576
    vertex 14.329434204102169 -28.604477009078614 25.000007822762964
    vertex -31.7125661156209 -18.604423522948697 25.000007822762964
  endloop
endfacet
facet normal 2.4497678226884806e-09 2.4236308815299316e-08 0.9999999999999998
  outer loop
    vertex -31.7125661156209 -18.604423522948697 25.000007822762964
    vertex 14.329434204102169 -28.604477009078614 25.000007822762964
    vertex 11.829435057393479 -27.35444889307971 25.00000756164965
  endloop
endfacet
facet normal 2.4497678226884806e-09 2.4236308815299316e-08 0.9999999999999998
  outer loop
    vertex 11.829435057393479 -27.35444889307971 25.00000756164965
    vertex 14.329434204102169 -28.604477009078614 25.000007822762964
    vertex 14.3294365063046 -26.104448893078956 25.000008499731972
  endloop
endfacet
facet normal 2.4497678226884806e-09 2.4236308815299316e-08 0.9999999999999998
  outer loop
    vertex -31.7125661156209 -18.604423522948697 25.000007822762964
    vertex 11.829435057393479 -19.854448893079695 25.000007835058593
    vertex 14.329434204102169 -18.6044235229487 25.000007822762964
  endloop
endfacet
facet normal 2.4497678226884806e-09 2.4236308815299316e-08 0.9999999999999998
  outer loop
    vertex 11.829435057393479 -19.854448893079695 25.000007835058593
    vertex -31.7125661156209 -18.604423522948697 25.000007822762964
    vertex 11.829435057393479 -27.35444889307971 25.00000756164965
  endloop
endfacet
facet normal 2.4497678226884806e-09 2.4236308815299316e-08 0.9999999999999998
  outer loop
    vertex 14.329434204102169 -18.6044235229487 25.000007822762964
    vertex 11.829435057393479 -19.854448893079695 25.000007835058593
    vertex 14.329433608481516 -21.104447444170212 25.00000672631645
  endloop
endfacet
facet normal 0.44721318807247756 0.8944273947135398 -2.2766974897918815e-08
  outer loop
    vertex -34.212567788177566 -19.954440592009878 25.000007740389893
    vertex -31.71256617651782 -21.204440610702637 -2.9149953486573563e-07
    vertex -34.21256784907449 -19.954441197917806 -3.157052191227194e-07
  endloop
endfacet
facet normal 0.44721318807247756 0.8944273947135398 -2.2766974897918815e-08
  outer loop
    vertex -31.71256617651782 -21.204440610702637 -2.9149953486573563e-07
    vertex -34.212567788177566 -19.954440592009878 25.000007740389893
    vertex -31.7125661156209 -21.20444000479471 25.000007764595576
  endloop
endfacet
facet normal -0.9999999999999859 -1.6806667164861333e-07 2.4358793938022627e-09
  outer loop
    vertex -34.21256656129086 -27.254440592069756 25.000007917314946
    vertex -34.21256784907449 -19.954441197917806 -3.157052191227194e-07
    vertex -34.212566622187786 -27.25444119797767 -1.3878016669188753e-07
  endloop
endfacet
facet normal -0.9999999999999859 -1.6806667164861333e-07 2.4358793938022627e-09
  outer loop
    vertex -34.21256784907449 -19.954441197917806 -3.157052191227194e-07
    vertex -34.21256656129086 -27.254440592069756 25.000007917314946
    vertex -34.212567788177566 -19.954440592009878 25.000007740389893
  endloop
endfacet
facet normal 0.4472078259174355 -0.8944300757679162 2.0588340593111853e-08
  outer loop
    vertex -31.7125661156209 -26.0044605272326 25.000007880930355
    vertex -34.212566622187786 -27.25444119797767 -1.3878016669188753e-07
    vertex -31.71256617651782 -26.004461133140513 -1.7516475603329695e-07
  endloop
endfacet
facet normal 0.4472078259174355 -0.8944300757679162 2.0588340593111853e-08
  outer loop
    vertex -34.212566622187786 -27.25444119797767 -1.3878016669188753e-07
    vertex -31.7125661156209 -26.0044605272326 25.000007880930355
    vertex -34.21256656129086 -27.254440592069756 25.000007917314946
  endloop
endfacet
facet normal -1.0 1.1710872295033922e-08 1.2179379248529722e-09
  outer loop
    vertex -31.7125661156209 -21.20444000479471 25.000007764595576
    vertex -31.7125661156209 -18.604423522948697 0.0
    vertex -31.71256617651782 -21.204440610702637 -2.9149953486573563e-07
  endloop
endfacet
facet normal -1.0 1.1710872295033922e-08 1.2179379248529722e-09
  outer loop
    vertex -31.7125661156209 -18.604423522948697 0.0
    vertex -31.7125661156209 -21.20444000479471 25.000007764595576
    vertex -31.7125661156209 -18.604423522948697 25.000007822762964
  endloop
endfacet
endsolid Google Offline Trex
