solid Google Offline Trex
facet normal 0.9999999999999163 -4.0889618165382625e-07 -1.7065795395384094e-08
  outer loop
    vertex 60.38679548563894 -56.340167292619284 4.382585874784794e-06
    vertex 60.386794890018294 -58.84022936081332 25.000011108902324
    vertex 60.386794036727395 -58.84023145820238 3.495878112502737e-06
  endloop
endfacet
facet normal 0.9999999999999163 -4.0889618165382625e-07 -1.7065795395384094e-08
  outer loop
    vertex 60.386794890018294 -58.84022936081332 25.000011108902324
    vertex 60.38679548563894 -56.340167292619284 4.382585874784794e-06
    vertex 60.38679548563894 -56.340167292619284 25.000012205348842
  endloop
endfacet
facet normal -0.9999999999897782 4.49951468455617e-06 -4.454064250523984e-07
  outer loop
    vertex -30.414233139676917 -56.340167292619284 25.000012205348842
    vertex -30.41423370340834 -58.94020284795163 5.373845276190891e-06
    vertex -30.41425597374315 -58.940204311767765 25.00001348935428
  endloop
endfacet
facet normal -0.9999999999897782 4.49951468455617e-06 -4.454064250523984e-07
  outer loop
    vertex -30.41423370340834 -58.94020284795163 5.373845276190891e-06
    vertex -30.414233139676917 -56.340167292619284 25.000012205348842
    vertex -30.414233139676917 -56.340167292619284 4.382585874784794e-06
  endloop
endfacet
facet normal 0.9999999999999996 1.2442522115188754e-15 -3.41316253816851e-08
  outer loop
    vertex 57.886795485639354 -57.59023290711187 4.6046202559768545e-06
    vertex 57.886796338930246 -65.09023080972278 25.000011944235528
    vertex 57.886795485639354 -65.09023290711187 4.33121131369063e-06
  endloop
endfacet
facet normal 0.9999999999999996 1.2442522115188754e-15 -3.41316253816851e-08
  outer loop
    vertex 57.886796338930246 -65.09023080972278 25.000011944235528
    vertex 57.886795485639354 -57.59023290711187 4.6046202559768545e-06
    vertex 57.886796338930246 -57.590230809722804 25.000012217644468
  endloop
endfacet
facet normal 0.9999999999997184 -7.502147393705866e-07 -1.7065780852231458e-08
  outer loop
    vertex 60.38679693455049 -63.840232907111115 5.269293639886818e-06
    vertex 60.38679548563894 -66.34025892572171 25.000012205348842
    vertex 60.38679548563894 -66.34025892572171 4.382585874784794e-06
  endloop
endfacet
facet normal 0.9999999999997184 -7.502147393705866e-07 -1.7065780852231458e-08
  outer loop
    vertex 60.38679548563894 -66.34025892572171 25.000012205348842
    vertex 60.38679693455049 -63.840232907111115 5.269293639886818e-06
    vertex 60.386797787841374 -63.84023080972202 25.000012882317854
  endloop
endfacet
facet normal 0.44721339816177946 -0.8944272896689109 3.460124874023468e-07
  outer loop
    vertex -30.414232575945494 -63.74022337038936 3.3913264733786972e-06
    vertex -32.91425622522819 -64.9902248342084 25.00001061673191
    vertex -32.91423395489338 -64.99022337039226 2.5012229018184225e-06
  endloop
endfacet
facet normal 0.44721339816177946 -0.8944272896689109 3.460124874023468e-07
  outer loop
    vertex -32.91425622522819 -64.9902248342084 25.00001061673191
    vertex -30.414232575945494 -63.74022337038936 3.3913264733786972e-06
    vertex -30.4142548462803 -63.74022483420551 25.00001150683548
  endloop
endfacet
facet normal -0.999999999999601 -6.682050203130993e-08 -8.908131072656319e-07
  outer loop
    vertex -32.914256713017245 -57.69022483414842 25.0000099253887
    vertex -32.91423395489338 -64.99022337039226 2.5012229018184225e-06
    vertex -32.91425622522819 -64.9902248342084 25.00001061673191
  endloop
endfacet
facet normal -0.999999999999601 -6.682050203130993e-08 -8.908131072656319e-07
  outer loop
    vertex -32.91423395489338 -64.99022337039226 2.5012229018184225e-06
    vertex -32.914256713017245 -57.69022483414842 25.0000099253887
    vertex -32.914234442682435 -57.690223370332276 1.8098796933596616e-06
  endloop
endfacet
facet normal 0.4472076158268007 0.8944301808113956 4.507496403663344e-07
  outer loop
    vertex -32.914256713017245 -57.69022483414842 25.0000099253887
    vertex -30.41423370340834 -58.94020284795163 5.373845276190891e-06
    vertex -32.914234442682435 -57.690223370332276 1.8098796933596616e-06
  endloop
endfacet
facet normal 0.4472076158268007 0.8944301808113956 4.507496403663344e-07
  outer loop
    vertex -30.41423370340834 -58.94020284795163 5.373845276190891e-06
    vertex -32.914256713017245 -57.69022483414842 25.0000099253887
    vertex -30.41425597374315 -58.940204311767765 25.00001348935428
  endloop
endfacet
facet normal -0.9999999999916351 -4.065881397921299e-06 -4.454066758164502e-07
  outer loop
    vertex -30.4142548462803 -63.74022483420551 25.00001150683548
    vertex -30.414233139676917 -66.34025892572171 4.382585874784794e-06
    vertex -30.414233139676917 -66.34025892572171 25.000012205348842
  endloop
endfacet
facet normal -0.9999999999916351 -4.065881397921299e-06 -4.454066758164502e-07
  outer loop
    vertex -30.414233139676917 -66.34025892572171 4.382585874784794e-06
    vertex -30.4142548462803 -63.74022483420551 25.00001150683548
    vertex -30.414232575945494 -63.74022337038936 3.3913264733786972e-06
  endloop
endfacet
facet normal 0.0 -1.0 0.0
  outer loop
    vertex 60.38679548563894 -66.34025892572171 25.000012205348842
    vertex -30.414233139676917 -66.34025892572171 4.382585874784794e-06
    vertex 60.38679548563894 -66.34025892572171 4.382585874784794e-06
  endloop
endfacet
facet normal 0.0 -1.0 0.0
  outer loop
    vertex -30.414233139676917 -66.34025892572171 4.382585874784794e-06
    vertex 60.38679548563894 -66.34025892572171 25.000012205348842
    vertex -30.414233139676917 -66.34025892572171 25.000012205348842
  endloop
endfacet
facet normal -5.079096524870006e-09 6.563828898497257e-09 1.0
  outer loop
    vertex -30.414233139676917 -56.340167292619284 25.000012205348842
    vertex 57.886796338930246 -57.590230809722804 25.000012217644468
    vertex 60.38679548563894 -56.340167292619284 25.000012205348842
  endloop
endfacet
facet normal -5.079096524870006e-09 6.563828898497257e-09 1.0
  outer loop
    vertex 57.886796338930246 -57.590230809722804 25.000012217644468
    vertex -30.414233139676917 -56.340167292619284 25.000012205348842
    vertex 57.886796338930246 -65.09023080972278 25.000011944235528
  endloop
endfacet
facet normal -5.079096524870006e-09 6.563828898497257e-09 1.0
  outer loop
    vertex 60.38679548563894 -56.340167292619284 25.000012205348842
    vertex 57.886796338930246 -57.590230809722804 25.000012217644468
    vertex 60.386794890018294 -58.84022936081332 25.000011108902324
  endloop
endfacet
facet normal -5.079096524870006e-09 6.563828898497257e-09 1.0
  outer loop
    vertex -32.91425622522819 -64.9902248342084 25.00001061673191
    vertex -30.41425597374315 -58.940204311767765 25.00001348935428
    vertex -32.914256713017245 -57.69022483414842 25.0000099253887
  endloop
endfacet
facet normal -5.079096524870006e-09 6.563828898497257e-09 1.0
  outer loop
    vertex -30.41425597374315 -58.940204311767765 25.00001348935428
    vertex -32.91425622522819 -64.9902248342084 25.00001061673191
    vertex -30.4142548462803 -63.74022483420551 25.00001150683548
  endloop
endfacet
facet normal -5.079096524870006e-09 6.563828898497257e-09 1.0
  outer loop
    vertex -30.41425597374315 -58.940204311767765 25.00001348935428
    vertex -30.4142548462803 -63.74022483420551 25.00001150683548
    vertex -30.414233139676917 -56.340167292619284 25.000012205348842
  endloop
endfacet
facet normal -5.079096524870006e-09 6.563828898497257e-09 1.0
  outer loop
    vertex -30.414233139676917 -56.340167292619284 25.000012205348842
    vertex -30.4142548462803 -63.74022483420551 25.00001150683548
    vertex -30.414233139676917 -66.34025892572171 25.000012205348842
  endloop
endfacet
facet normal -5.079096524870006e-09 6.563828898497257e-09 1.0
  outer loop
    vertex -30.414233139676917 -56.340167292619284 25.000012205348842
    vertex -30.414233139676917 -66.34025892572171 25.000012205348842
    vertex 60.38679548563894 -66.34025892572171 25.000012205348842
  endloop
endfacet
facet normal -5.079096524870006e-09 6.563828898497257e-09 1.0
  outer loop
    vertex -30.414233139676917 -56.340167292619284 25.000012205348842
    vertex 60.38679548563894 -66.34025892572171 25.000012205348842
    vertex 57.886796338930246 -65.09023080972278 25.000011944235528
  endloop
endfacet
facet normal -5.079096524870006e-09 6.563828898497257e-09 1.0
  outer loop
    vertex 57.886796338930246 -65.09023080972278 25.000011944235528
    vertex 60.38679548563894 -66.34025892572171 25.000012205348842
    vertex 60.386797787841374 -63.84023080972202 25.000012882317854
  endloop
endfacet
facet normal -0.44721338814907524 -0.8944272946753227 9.030257810229082e-08
  outer loop
    vertex 60.386794890018294 -58.84022936081332 25.000011108902324
    vertex 57.886795485639354 -57.59023290711187 4.6046202559768545e-06
    vertex 60.386794036727395 -58.84023145820238 3.495878112502737e-06
  endloop
endfacet
facet normal -0.44721338814907524 -0.8944272946753227 9.030257810229082e-08
  outer loop
    vertex 57.886795485639354 -57.59023290711187 4.6046202559768545e-06
    vertex 60.386794890018294 -58.84022936081332 25.000011108902324
    vertex 57.886796338930246 -57.590230809722804 25.000012217644468
  endloop
endfacet
facet normal -2.29488885196943e-08 0.9999999999999993 -3.2004256698266726e-08
  outer loop
    vertex -30.414233139676917 -56.340167292619284 25.000012205348842
    vertex -12.914233139676915 -56.340167292619284 4.382585874784794e-06
    vertex -30.414233139676917 -56.340167292619284 4.382585874784794e-06
  endloop
endfacet
facet normal -2.29488885196943e-08 0.9999999999999993 -3.2004256698266726e-08
  outer loop
    vertex -12.914233139676915 -56.340167292619284 4.382585874784794e-06
    vertex -30.414233139676917 -56.340167292619284 25.000012205348842
    vertex -12.914233139676915 -56.340177514677855 5.937504382585892
  endloop
endfacet
facet normal -2.29488885196943e-08 0.9999999999999993 -3.2004256698266726e-08
  outer loop
    vertex -12.914233139676915 -56.340177514677855 5.937504382585892
    vertex -30.414233139676917 -56.340167292619284 25.000012205348842
    vertex -1.8568753515908059 -56.340177514677855 5.937504382585892
  endloop
endfacet
facet normal -2.29488885196943e-08 0.9999999999999993 -3.2004256698266726e-08
  outer loop
    vertex -1.8568753515908059 -56.340177514677855 5.937504382585892
    vertex 60.38679548563894 -56.340167292619284 4.382585874784794e-06
    vertex -1.873302972888396 -56.340167292619284 4.382585874784794e-06
  endloop
endfacet
facet normal -2.29488885196943e-08 0.9999999999999993 -3.2004256698266726e-08
  outer loop
    vertex 60.38679548563894 -56.340167292619284 4.382585874784794e-06
    vertex -1.8568753515908059 -56.340177514677855 5.937504382585892
    vertex 60.38679548563894 -56.340167292619284 25.000012205348842
  endloop
endfacet
facet normal -2.29488885196943e-08 0.9999999999999993 -3.2004256698266726e-08
  outer loop
    vertex 60.38679548563894 -56.340167292619284 25.000012205348842
    vertex -1.8568753515908059 -56.340177514677855 5.937504382585892
    vertex -30.414233139676917 -56.340167292619284 25.000012205348842
  endloop
endfacet
facet normal -0.4472133881489569 0.8944272946753845 -5.977433935241108e-08
  outer loop
    vertex 57.886796338930246 -65.09023080972278 25.000011944235528
    vertex 60.38679693455049 -63.840232907111115 5.269293639886818e-06
    vertex 57.886795485639354 -65.09023290711187 4.33121131369063e-06
  endloop
endfacet
facet normal -0.4472133881489569 0.8944272946753845 -5.977433935241108e-08
  outer loop
    vertex 60.38679693455049 -63.840232907111115 5.269293639886818e-06
    vertex 57.886796338930246 -65.09023080972278 25.000011944235528
    vertex 60.386797787841374 -63.84023080972202 25.000012882317854
  endloop
endfacet
facet normal 8.073002813190142e-09 1.523587988044074e-08 -1.0
  outer loop
    vertex -30.41423370340834 -58.94020284795163 5.373845276190891e-06
    vertex -32.91423395489338 -64.99022337039226 2.5012229018184225e-06
    vertex -32.914234442682435 -57.690223370332276 1.8098796933596616e-06
  endloop
endfacet
facet normal 8.073002813190142e-09 1.523587988044074e-08 -1.0
  outer loop
    vertex -32.91423395489338 -64.99022337039226 2.5012229018184225e-06
    vertex -30.41423370340834 -58.94020284795163 5.373845276190891e-06
    vertex -30.414232575945494 -63.74022337038936 3.3913264733786972e-06
  endloop
endfacet
facet normal 8.073002813190142e-09 1.523587988044074e-08 -1.0
  outer loop
    vertex -30.414232575945494 -63.74022337038936 3.3913264733786972e-06
    vertex -30.41423370340834 -58.94020284795163 5.373845276190891e-06
    vertex -30.414233139676917 -56.340167292619284 4.382585874784794e-06
  endloop
endfacet
facet normal 8.073002813190142e-09 1.523587988044074e-08 -1.0
  outer loop
    vertex -30.414232575945494 -63.74022337038936 3.3913264733786972e-06
    vertex -30.414233139676917 -56.340167292619284 4.382585874784794e-06
    vertex -12.914233139676915 -56.340167292619284 4.382585874784794e-06
  endloop
endfacet
facet normal 8.073002813190142e-09 1.523587988044074e-08 -1.0
  outer loop
    vertex 60.38679548563894 -56.340167292619284 4.382585874784794e-06
    vertex 57.886795485639354 -57.59023290711187 4.6046202559768545e-06
    vertex -1.873302972888396 -56.340167292619284 4.382585874784794e-06
  endloop
endfacet
facet normal 8.073002813190142e-09 1.523587988044074e-08 -1.0
  outer loop
    vertex 57.886795485639354 -57.59023290711187 4.6046202559768545e-06
    vertex 60.38679548563894 -56.340167292619284 4.382585874784794e-06
    vertex 60.386794036727395 -58.84023145820238 3.495878112502737e-06
  endloop
endfacet
facet normal 8.073002813190142e-09 1.523587988044074e-08 -1.0
  outer loop
    vertex -30.414232575945494 -63.74022337038936 3.3913264733786972e-06
    vertex 60.38679548563894 -66.34025892572171 4.382585874784794e-06
    vertex -30.414233139676917 -66.34025892572171 4.382585874784794e-06
  endloop
endfacet
facet normal 8.073002813190142e-09 1.523587988044074e-08 -1.0
  outer loop
    vertex 60.38679548563894 -66.34025892572171 4.382585874784794e-06
    vertex -30.414232575945494 -63.74022337038936 3.3913264733786972e-06
    vertex -12.914233139676915 -56.340167292619284 4.382585874784794e-06
  endloop
endfacet
facet normal 8.073002813190142e-09 1.523587988044074e-08 -1.0
  outer loop
    vertex 60.38679548563894 -66.34025892572171 4.382585874784794e-06
    vertex -12.914233139676915 -56.340167292619284 4.382585874784794e-06
    vertex -1.873302972888396 -56.340167292619284 4.382585874784794e-06
  endloop
endfacet
facet normal 8.073002813190142e-09 1.523587988044074e-08 -1.0
  outer loop
    vertex 60.38679548563894 -66.34025892572171 4.382585874784794e-06
    vertex -1.873302972888396 -56.340167292619284 4.382585874784794e-06
    vertex 57.886795485639354 -65.09023290711187 4.33121131369063e-06
  endloop
endfacet
facet normal 8.073002813190142e-09 1.523587988044074e-08 -1.0
  outer loop
    vertex 57.886795485639354 -65.09023290711187 4.33121131369063e-06
    vertex -1.873302972888396 -56.340167292619284 4.382585874784794e-06
    vertex 57.886795485639354 -57.59023290711187 4.6046202559768545e-06
  endloop
endfacet
facet normal 8.073002813190142e-09 1.523587988044074e-08 -1.0
  outer loop
    vertex 60.38679548563894 -66.34025892572171 4.382585874784794e-06
    vertex 57.886795485639354 -65.09023290711187 4.33121131369063e-06
    vertex 60.38679693455049 -63.840232907111115 5.269293639886818e-06
  endloop
endfacet
endsolid Google Offline Trex
