solid Google Offline Trex
facet normal -1.0502157222076225e-08 -7.100691982943312e-09 1.0
  outer loop
    vertex -78.95521057475382 -64.99021885866402 25.000008806852215
    vertex -76.45521032326877 -58.94019833622338 25.000011679474586
    vertex -78.95521106254287 -57.690218858604034 25.000008115509008
  endloop
endfacet
facet normal -1.0502157222076225e-08 -7.100691982943312e-09 1.0
  outer loop
    vertex -76.45521032326877 -58.94019833622338 25.000011679474586
    vertex -78.95521057475382 -64.99021885866402 25.000008806852215
    vertex -76.45520919580593 -63.74021885866113 25.000009696955786
  endloop
endfacet
facet normal -1.0502157222076225e-08 -7.100691982943312e-09 1.0
  outer loop
    vertex -76.45521032326877 -58.94019833622338 25.000011679474586
    vertex -76.45520919580593 -63.74021885866113 25.000009696955786
    vertex -76.45518748920254 -56.3401613170749 25.00001039546915
  endloop
endfacet
facet normal -1.0502157222076225e-08 -7.100691982943312e-09 1.0
  outer loop
    vertex -76.45518748920254 -56.3401613170749 25.00001039546915
    vertex -76.45520919580593 -63.74021885866113 25.000009696955786
    vertex -76.45518748920254 -66.34025295017733 25.00001039546915
  endloop
endfacet
facet normal -1.0502157222076225e-08 -7.100691982943312e-09 1.0
  outer loop
    vertex -76.45518748920254 -56.3401613170749 25.00001039546915
    vertex -76.45518748920254 -66.34025295017733 25.00001039546915
    vertex -30.414257322414024 -66.34025295017733 25.00001039546915
  endloop
endfacet
facet normal -1.0502157222076225e-08 -7.100691982943312e-09 1.0
  outer loop
    vertex -76.45518748920254 -56.3401613170749 25.00001039546915
    vertex -30.414257322414024 -66.34025295017733 25.00001039546915
    vertex -32.91425646912272 -65.0902248341784 25.000010134355833
  endloop
endfacet
facet normal -1.0502157222076225e-08 -7.100691982943312e-09 1.0
  outer loop
    vertex -32.91425646912272 -65.0902248341784 25.000010134355833
    vertex -30.414257322414024 -66.34025295017733 25.00001039546915
    vertex -30.41425502021159 -63.84022483417764 25.000011072438163
  endloop
endfacet
facet normal -1.0502157222076225e-08 -7.100691982943312e-09 1.0
  outer loop
    vertex -76.45518748920254 -56.3401613170749 25.00001039546915
    vertex -32.91425646912272 -57.59022483417842 25.000010407764776
    vertex -30.414257322414024 -56.3401613170749 25.00001039546915
  endloop
endfacet
facet normal -1.0502157222076225e-08 -7.100691982943312e-09 1.0
  outer loop
    vertex -32.91425646912272 -57.59022483417842 25.000010407764776
    vertex -76.45518748920254 -56.3401613170749 25.00001039546915
    vertex -32.91425646912272 -65.0902248341784 25.000010134355833
  endloop
endfacet
facet normal -1.0502157222076225e-08 -7.100691982943312e-09 1.0
  outer loop
    vertex -30.414257322414024 -56.3401613170749 25.00001039546915
    vertex -32.91425646912272 -57.59022483417842 25.000010407764776
    vertex -30.41425791803468 -58.840223385268935 25.000009299022633
  endloop
endfacet
facet normal 0.9999999999999163 -4.0889618052586725e-07 -1.7065795282585497e-08
  outer loop
    vertex -30.414257322414024 -56.3401613170749 2.572706181425133e-06
    vertex -30.41425791803468 -58.840223385268935 25.000009299022633
    vertex -30.414258771325567 -58.840225482658 1.6859984191430754e-06
  endloop
endfacet
facet normal 0.9999999999999163 -4.0889618052586725e-07 -1.7065795282585497e-08
  outer loop
    vertex -30.41425791803468 -58.840223385268935 25.000009299022633
    vertex -30.414257322414024 -56.3401613170749 2.572706181425133e-06
    vertex -30.414257322414024 -56.3401613170749 25.00001039546915
  endloop
endfacet
facet normal -0.0 -1.0 -0.0
  outer loop
    vertex -30.414257322414024 -66.34025295017733 25.00001039546915
    vertex -76.45518748920254 -66.34025295017733 2.572706181425133e-06
    vertex -30.414257322414024 -66.34025295017733 2.572706181425133e-06
  endloop
endfacet
facet normal -0.0 -1.0 -0.0
  outer loop
    vertex -76.45518748920254 -66.34025295017733 2.572706181425133e-06
    vertex -30.414257322414024 -66.34025295017733 25.00001039546915
    vertex -76.45518748920254 -66.34025295017733 25.00001039546915
  endloop
endfacet
facet normal -0.9999999999897782 4.49951468455617e-06 -4.454064250523984e-07
  outer loop
    vertex -76.45518748920254 -56.3401613170749 25.00001039546915
    vertex -76.45518805293396 -58.94019687240725 3.56396558283123e-06
    vertex -76.45521032326877 -58.94019833622338 25.000011679474586
  endloop
endfacet
facet normal -0.9999999999897782 4.49951468455617e-06 -4.454064250523984e-07
  outer loop
    vertex -76.45518805293396 -58.94019687240725 3.56396558283123e-06
    vertex -76.45518748920254 -56.3401613170749 25.00001039546915
    vertex -76.45518748920254 -56.3401613170749 2.572706181425133e-06
  endloop
endfacet
facet normal -2.9172237586812803e-09 0.9999999999999978 -6.83955572241451e-08
  outer loop
    vertex -76.45518748920254 -56.3401613170749 25.00001039546915
    vertex -58.955187489202544 -56.3401613170749 2.572706181425133e-06
    vertex -76.45518748920254 -56.3401613170749 2.572706181425133e-06
  endloop
endfacet
facet normal -2.9172237586812803e-09 0.9999999999999978 -6.83955572241451e-08
  outer loop
    vertex -58.955187489202544 -56.3401613170749 2.572706181425133e-06
    vertex -76.45518748920254 -56.3401613170749 25.00001039546915
    vertex -58.955187489202544 -56.340171539133465 5.937502572706199
  endloop
endfacet
facet normal -2.9172237586812803e-09 0.9999999999999978 -6.83955572241451e-08
  outer loop
    vertex -58.955187489202544 -56.340171539133465 5.937502572706199
    vertex -76.45518748920254 -56.3401613170749 25.00001039546915
    vertex -47.897829701116436 -56.340171539133465 5.937502572706199
  endloop
endfacet
facet normal -2.9172237586812803e-09 0.9999999999999978 -6.83955572241451e-08
  outer loop
    vertex -47.897829701116436 -56.340171539133465 5.937502572706199
    vertex -30.414257322414024 -56.3401613170749 2.572706181425133e-06
    vertex -47.914257322414024 -56.3401613170749 2.572706181425133e-06
  endloop
endfacet
facet normal -2.9172237586812803e-09 0.9999999999999978 -6.83955572241451e-08
  outer loop
    vertex -30.414257322414024 -56.3401613170749 2.572706181425133e-06
    vertex -47.897829701116436 -56.340171539133465 5.937502572706199
    vertex -30.414257322414024 -56.3401613170749 25.00001039546915
  endloop
endfacet
facet normal -2.9172237586812803e-09 0.9999999999999978 -6.83955572241451e-08
  outer loop
    vertex -30.414257322414024 -56.3401613170749 25.00001039546915
    vertex -47.897829701116436 -56.340171539133465 5.937502572706199
    vertex -76.45518748920254 -56.3401613170749 25.00001039546915
  endloop
endfacet
facet normal -0.4472133881489577 0.894427294675384 -5.977433914900386e-08
  outer loop
    vertex -32.91425646912272 -65.0902248341784 25.000010134355833
    vertex -30.414255873502483 -63.84022693156673 3.4594139465271567e-06
    vertex -32.914257322413604 -65.09022693156749 2.5213316203309686e-06
  endloop
endfacet
facet normal -0.4472133881489577 0.894427294675384 -5.977433914900386e-08
  outer loop
    vertex -30.414255873502483 -63.84022693156673 3.4594139465271567e-06
    vertex -32.91425646912272 -65.0902248341784 25.000010134355833
    vertex -30.41425502021159 -63.84022483417764 25.000011072438163
  endloop
endfacet
facet normal 0.9999999999999994 1.2442522083457992e-15 -3.4131625266390135e-08
  outer loop
    vertex -32.914257322413604 -57.590226931567486 2.7947405626171928e-06
    vertex -32.91425646912272 -65.0902248341784 25.000010134355833
    vertex -32.914257322413604 -65.09022693156749 2.5213316203309686e-06
  endloop
endfacet
facet normal 0.9999999999999994 1.2442522083457992e-15 -3.4131625266390135e-08
  outer loop
    vertex -32.91425646912272 -65.0902248341784 25.000010134355833
    vertex -32.914257322413604 -57.590226931567486 2.7947405626171928e-06
    vertex -32.91425646912272 -57.59022483417842 25.000010407764776
  endloop
endfacet
facet normal -0.4472133881490759 -0.8944272946753223 9.030257810229086e-08
  outer loop
    vertex -30.41425791803468 -58.840223385268935 25.000009299022633
    vertex -32.914257322413604 -57.590226931567486 2.7947405626171928e-06
    vertex -30.414258771325567 -58.840225482658 1.6859984191430754e-06
  endloop
endfacet
facet normal -0.4472133881490759 -0.8944272946753223 9.030257810229086e-08
  outer loop
    vertex -32.914257322413604 -57.590226931567486 2.7947405626171928e-06
    vertex -30.41425791803468 -58.840223385268935 25.000009299022633
    vertex -32.91425646912272 -57.59022483417842 25.000010407764776
  endloop
endfacet
facet normal 0.9999999999997184 -7.502147382426133e-07 -1.706578096503021e-08
  outer loop
    vertex -30.414255873502483 -63.84022693156673 3.4594139465271567e-06
    vertex -30.414257322414024 -66.34025295017733 25.00001039546915
    vertex -30.414257322414024 -66.34025295017733 2.572706181425133e-06
  endloop
endfacet
facet normal 0.9999999999997184 -7.502147382426133e-07 -1.706578096503021e-08
  outer loop
    vertex -30.414257322414024 -66.34025295017733 25.00001039546915
    vertex -30.414255873502483 -63.84022693156673 3.4594139465271567e-06
    vertex -30.41425502021159 -63.84022483417764 25.000011072438163
  endloop
endfacet
facet normal 1.771570686335551e-08 7.938212036900373e-09 -1.0
  outer loop
    vertex -76.45518805293396 -58.94019687240725 3.56396558283123e-06
    vertex -78.95518830441901 -64.99021739484787 6.913432084587612e-07
    vertex -78.95518879220806 -57.69021739478789 0.0
  endloop
endfacet
facet normal 1.771570686335551e-08 7.938212036900373e-09 -1.0
  outer loop
    vertex -78.95518830441901 -64.99021739484787 6.913432084587612e-07
    vertex -76.45518805293396 -58.94019687240725 3.56396558283123e-06
    vertex -76.45518692547112 -63.740217394844976 1.5814467800190357e-06
  endloop
endfacet
facet normal 1.771570686335551e-08 7.938212036900373e-09 -1.0
  outer loop
    vertex -76.45518692547112 -63.740217394844976 1.5814467800190357e-06
    vertex -76.45518805293396 -58.94019687240725 3.56396558283123e-06
    vertex -76.45518748920254 -56.3401613170749 2.572706181425133e-06
  endloop
endfacet
facet normal 1.771570686335551e-08 7.938212036900373e-09 -1.0
  outer loop
    vertex -76.45518692547112 -63.740217394844976 1.5814467800190357e-06
    vertex -76.45518748920254 -56.3401613170749 2.572706181425133e-06
    vertex -58.955187489202544 -56.3401613170749 2.572706181425133e-06
  endloop
endfacet
facet normal 1.771570686335551e-08 7.938212036900373e-09 -1.0
  outer loop
    vertex -30.414257322414024 -56.3401613170749 2.572706181425133e-06
    vertex -32.914257322413604 -57.590226931567486 2.7947405626171928e-06
    vertex -47.914257322414024 -56.3401613170749 2.572706181425133e-06
  endloop
endfacet
facet normal 1.771570686335551e-08 7.938212036900373e-09 -1.0
  outer loop
    vertex -32.914257322413604 -57.590226931567486 2.7947405626171928e-06
    vertex -30.414257322414024 -56.3401613170749 2.572706181425133e-06
    vertex -30.414258771325567 -58.840225482658 1.6859984191430754e-06
  endloop
endfacet
facet normal 1.771570686335551e-08 7.938212036900373e-09 -1.0
  outer loop
    vertex -76.45518692547112 -63.740217394844976 1.5814467800190357e-06
    vertex -30.414257322414024 -66.34025295017733 2.572706181425133e-06
    vertex -76.45518748920254 -66.34025295017733 2.572706181425133e-06
  endloop
endfacet
facet normal 1.771570686335551e-08 7.938212036900373e-09 -1.0
  outer loop
    vertex -30.414257322414024 -66.34025295017733 2.572706181425133e-06
    vertex -76.45518692547112 -63.740217394844976 1.5814467800190357e-06
    vertex -58.955187489202544 -56.3401613170749 2.572706181425133e-06
  endloop
endfacet
facet normal 1.771570686335551e-08 7.938212036900373e-09 -1.0
  outer loop
    vertex -30.414257322414024 -66.34025295017733 2.572706181425133e-06
    vertex -58.955187489202544 -56.3401613170749 2.572706181425133e-06
    vertex -32.914257322413604 -65.09022693156749 2.5213316203309686e-06
  endloop
endfacet
facet normal 1.771570686335551e-08 7.938212036900373e-09 -1.0
  outer loop
    vertex -32.914257322413604 -65.09022693156749 2.5213316203309686e-06
    vertex -58.955187489202544 -56.3401613170749 2.572706181425133e-06
    vertex -47.914257322414024 -56.3401613170749 2.572706181425133e-06
  endloop
endfacet
facet normal 1.771570686335551e-08 7.938212036900373e-09 -1.0
  outer loop
    vertex -32.914257322413604 -65.09022693156749 2.5213316203309686e-06
    vertex -47.914257322414024 -56.3401613170749 2.572706181425133e-06
    vertex -32.914257322413604 -57.590226931567486 2.7947405626171928e-06
  endloop
endfacet
facet normal 1.771570686335551e-08 7.938212036900373e-09 -1.0
  outer loop
    vertex -30.414257322414024 -66.34025295017733 2.572706181425133e-06
    vertex -32.914257322413604 -65.09022693156749 2.5213316203309686e-06
    vertex -30.414255873502483 -63.84022693156673 3.4594139465271567e-06
  endloop
endfacet
facet normal 0.44721339816177946 -0.8944272896689109 3.460124874023468e-07
  outer loop
    vertex -76.45518692547112 -63.740217394844976 1.5814467800190357e-06
    vertex -78.95521057475382 -64.99021885866402 25.000008806852215
    vertex -78.95518830441901 -64.99021739484787 6.913432084587612e-07
  endloop
endfacet
facet normal 0.44721339816177946 -0.8944272896689109 3.460124874023468e-07
  outer loop
    vertex -78.95521057475382 -64.99021885866402 25.000008806852215
    vertex -76.45518692547112 -63.740217394844976 1.5814467800190357e-06
    vertex -76.45520919580593 -63.74021885866113 25.000009696955786
  endloop
endfacet
facet normal -0.999999999999601 -6.682050203130993e-08 -8.908131072656319e-07
  outer loop
    vertex -78.95521106254287 -57.690218858604034 25.000008115509008
    vertex -78.95518830441901 -64.99021739484787 6.913432084587612e-07
    vertex -78.95521057475382 -64.99021885866402 25.000008806852215
  endloop
endfacet
facet normal -0.999999999999601 -6.682050203130993e-08 -8.908131072656319e-07
  outer loop
    vertex -78.95518830441901 -64.99021739484787 6.913432084587612e-07
    vertex -78.95521106254287 -57.690218858604034 25.000008115509008
    vertex -78.95518879220806 -57.69021739478789 0.0
  endloop
endfacet
facet normal 0.4472076158268007 0.8944301808113956 4.507496403663344e-07
  outer loop
    vertex -78.95521106254287 -57.690218858604034 25.000008115509008
    vertex -76.45518805293396 -58.94019687240725 3.56396558283123e-06
    vertex -78.95518879220806 -57.69021739478789 0.0
  endloop
endfacet
facet normal 0.4472076158268007 0.8944301808113956 4.507496403663344e-07
  outer loop
    vertex -76.45518805293396 -58.94019687240725 3.56396558283123e-06
    vertex -78.95521106254287 -57.690218858604034 25.000008115509008
    vertex -76.45521032326877 -58.94019833622338 25.000011679474586
  endloop
endfacet
facet normal -0.9999999999916351 -4.065881397921299e-06 -4.454066758164502e-07
  outer loop
    vertex -76.45520919580593 -63.74021885866113 25.000009696955786
    vertex -76.45518748920254 -66.34025295017733 2.572706181425133e-06
    vertex -76.45518748920254 -66.34025295017733 25.00001039546915
  endloop
endfacet
facet normal -0.9999999999916351 -4.065881397921299e-06 -4.454066758164502e-07
  outer loop
    vertex -76.45518748920254 -66.34025295017733 2.572706181425133e-06
    vertex -76.45520919580593 -63.74021885866113 25.000009696955786
    vertex -76.45518692547112 -63.740217394844976 1.5814467800190357e-06
  endloop
endfacet
endsolid Google Offline Trex
