solid Google Offline Trex
facet normal 0.0 0.0 1.0
  outer loop
    vertex -165.2969342401732 7.645614624023788 5.937500000000018
    vertex -169.6719342401732 12.020614624023775 5.937500000000018
    vertex -169.6719342401732 7.645614624023788 5.937500000000018
  endloop
endfacet
facet normal 0.0 0.0 1.0
  outer loop
    vertex -169.6719342401732 12.020614624023775 5.937500000000018
    vertex -165.2969342401732 7.645614624023788 5.937500000000018
    vertex -169.67193424017316 29.520614624023754 5.937500000000018
  endloop
endfacet
facet normal 0.0 0.0 1.0
  outer loop
    vertex -169.67193424017316 29.520614624023754 5.937500000000018
    vertex -165.2969342401732 7.645614624023788 5.937500000000018
    vertex -165.2969342401732 29.520614624023754 5.937500000000018
  endloop
endfacet
facet normal 0.0 0.0 1.0
  outer loop
    vertex -165.2969342401732 29.520614624023754 5.937500000000018
    vertex -165.2969342401732 7.645614624023788 5.937500000000018
    vertex -165.2969342401732 25.145614624023757 5.937500000000018
  endloop
endfacet
facet normal 0.0 0.0 1.0
  outer loop
    vertex -160.9219342401732 3.2706146240238017 5.937500000000018
    vertex -165.2969342401732 7.645614624023788 5.937500000000018
    vertex -165.2969342401732 3.2706146240238017 5.937500000000018
  endloop
endfacet
facet normal 0.0 0.0 1.0
  outer loop
    vertex -165.2969342401732 7.645614624023788 5.937500000000018
    vertex -160.9219342401732 3.2706146240238017 5.937500000000018
    vertex -165.2969342401732 25.145614624023757 5.937500000000018
  endloop
endfacet
facet normal 0.0 0.0 1.0
  outer loop
    vertex -165.2969342401732 25.145614624023757 5.937500000000018
    vertex -160.9219342401732 3.2706146240238017 5.937500000000018
    vertex -156.54693424017321 25.145614624023757 5.937500000000018
  endloop
endfacet
facet normal 0.0 0.0 1.0
  outer loop
    vertex -160.9219342401732 -18.604385375976168 5.937500000000018
    vertex -156.5469342401731 -14.22938537597617 5.937500000000018
    vertex -160.9219342401732 3.2706146240238017 5.937500000000018
  endloop
endfacet
facet normal 0.0 0.0 1.0
  outer loop
    vertex -156.5469342401731 -14.22938537597617 5.937500000000018
    vertex -160.9219342401732 -18.604385375976168 5.937500000000018
    vertex -152.1719342401731 -18.60438537597616 5.937500000000018
  endloop
endfacet
facet normal 0.0 0.0 1.0
  outer loop
    vertex -160.9219342401732 3.2706146240238017 5.937500000000018
    vertex -156.5469342401731 -14.22938537597617 5.937500000000018
    vertex -156.54693424017321 25.145614624023757 5.937500000000018
  endloop
endfacet
facet normal 0.0 0.0 1.0
  outer loop
    vertex -156.54693424017321 25.145614624023757 5.937500000000018
    vertex -156.5469342401731 -14.22938537597617 5.937500000000018
    vertex -156.54693424017321 29.520614624023754 5.937500000000018
  endloop
endfacet
facet normal 0.0 0.0 1.0
  outer loop
    vertex -156.5469342401731 -14.22938537597617 5.937500000000018
    vertex -152.1719342401731 -18.60438537597616 5.937500000000018
    vertex -152.1719342401731 -14.22938537597617 5.937500000000018
  endloop
endfacet
facet normal 0.0 0.0 1.0
  outer loop
    vertex -139.04693424017324 -18.60438537597616 5.937500000000018
    vertex -134.67193424017324 -14.22938537597617 5.937500000000018
    vertex -139.04693424017324 -5.479385375976188 5.937500000000018
  endloop
endfacet
facet normal 0.0 0.0 1.0
  outer loop
    vertex -134.67193424017324 -14.22938537597617 5.937500000000018
    vertex -139.04693424017324 -18.60438537597616 5.937500000000018
    vertex -130.2969342401732 -18.60438537597616 5.937500000000018
  endloop
endfacet
facet normal 0.0 0.0 1.0
  outer loop
    vertex -139.04693424017324 -5.479385375976188 5.937500000000018
    vertex -134.67193424017324 -14.22938537597617 5.937500000000018
    vertex -139.04693424017324 42.64561462402372 5.937500000000018
  endloop
endfacet
facet normal 0.0 0.0 1.0
  outer loop
    vertex -139.04693424017324 42.64561462402372 5.937500000000018
    vertex -134.67193424017324 -14.22938537597617 5.937500000000018
    vertex -139.04693424017324 73.27061462402368 5.937500000000018
  endloop
endfacet
facet normal 0.0 0.0 1.0
  outer loop
    vertex -134.67193424017324 -14.22938537597617 5.937500000000018
    vertex -130.2969342401732 -18.60438537597616 5.937500000000018
    vertex -130.2969342401732 -14.22938537597617 5.937500000000018
  endloop
endfacet
facet normal 0.0 0.0 1.0
  outer loop
    vertex -134.67193424017324 -14.22938537597617 5.937500000000018
    vertex -134.67193424017324 73.27061462402368 5.937500000000018
    vertex -139.04693424017324 73.27061462402368 5.937500000000018
  endloop
endfacet
facet normal 0.0 0.0 1.0
  outer loop
    vertex -134.67193424017324 73.27061462402368 5.937500000000018
    vertex -134.67193424017324 -14.22938537597617 5.937500000000018
    vertex -134.67193424017324 3.2706146240238017 5.937500000000018
  endloop
endfacet
facet normal 0.0 0.0 1.0
  outer loop
    vertex -134.67193424017324 73.27061462402368 5.937500000000018
    vertex -134.67193424017324 3.2706146240238017 5.937500000000018
    vertex -130.29693424017327 3.2706146240238017 5.937500000000018
  endloop
endfacet
facet normal 0.0 0.0 1.0
  outer loop
    vertex -125.92193424017324 7.645614624023788 5.937500000000018
    vertex -130.29693424017324 68.8956146240237 5.937500000000018
    vertex -130.29693424017324 7.645614624023788 5.937500000000018
  endloop
endfacet
facet normal 0.0 0.0 1.0
  outer loop
    vertex -130.29693424017324 68.8956146240237 5.937500000000018
    vertex -125.92193424017324 7.645614624023788 5.937500000000018
    vertex -125.92193424017324 68.8956146240237 5.937500000000018
  endloop
endfacet
facet normal 0.0 0.0 1.0
  outer loop
    vertex -125.92193424017324 68.8956146240237 5.937500000000018
    vertex -125.92193424017324 7.645614624023788 5.937500000000018
    vertex -125.92193424017324 16.39561462402377 5.937500000000018
  endloop
endfacet
facet normal 0.0 0.0 1.0
  outer loop
    vertex -125.92193424017324 68.8956146240237 5.937500000000018
    vertex -125.92193424017324 16.39561462402377 5.937500000000018
    vertex -121.54693424017324 16.39561462402377 5.937500000000018
  endloop
endfacet
facet normal 0.0 0.0 1.0
  outer loop
    vertex -125.92193424017324 68.8956146240237 5.937500000000018
    vertex -121.54693424017324 16.39561462402377 5.937500000000018
    vertex -125.92193424017324 73.27061462402368 5.937500000000018
  endloop
endfacet
facet normal 0.0 0.0 1.0
  outer loop
    vertex -125.92193424017324 73.27061462402368 5.937500000000018
    vertex -121.54693424017324 16.39561462402377 5.937500000000018
    vertex -121.54693424017329 29.520614624023754 5.937500000000018
  endloop
endfacet
facet normal 0.0 0.0 1.0
  outer loop
    vertex -112.79693424017329 25.145614624023757 5.937500000000018
    vertex -117.17193424017329 29.520614624023754 5.937500000000018
    vertex -117.17193424017329 25.145614624023757 5.937500000000018
  endloop
endfacet
facet normal 0.0 0.0 1.0
  outer loop
    vertex -121.54693424017329 29.520614624023754 5.937500000000018
    vertex -121.54693424017324 33.89561462402374 5.937500000000018
    vertex -121.54693424017329 42.64561462402372 5.937500000000018
  endloop
endfacet
facet normal 0.0 0.0 1.0
  outer loop
    vertex -121.54693424017324 33.89561462402374 5.937500000000018
    vertex -121.54693424017329 29.520614624023754 5.937500000000018
    vertex -117.17193424017329 29.520614624023754 5.937500000000018
  endloop
endfacet
facet normal 0.0 0.0 1.0
  outer loop
    vertex -121.54693424017324 33.89561462402374 5.937500000000018
    vertex -117.17193424017329 29.520614624023754 5.937500000000018
    vertex -112.79693424017329 33.89561462402374 5.937500000000018
  endloop
endfacet
facet normal 0.0 0.0 1.0
  outer loop
    vertex -112.79693424017329 33.89561462402374 5.937500000000018
    vertex -117.17193424017329 29.520614624023754 5.937500000000018
    vertex -112.79693424017329 25.145614624023757 5.937500000000018
  endloop
endfacet
facet normal 0.0 0.0 1.0
  outer loop
    vertex -104.0469342401733 42.64561462402372 5.937500000000018
    vertex -117.17193424017329 47.02061462402372 5.937500000000018
    vertex -121.54693424017329 42.64561462402372 5.937500000000018
  endloop
endfacet
facet normal 0.0 0.0 1.0
  outer loop
    vertex -117.17193424017329 47.02061462402372 5.937500000000018
    vertex -104.0469342401733 42.64561462402372 5.937500000000018
    vertex -104.0469342401733 47.02061462402372 5.937500000000018
  endloop
endfacet
facet normal 0.0 0.0 1.0
  outer loop
    vertex -134.67193424017324 73.27061462402368 5.937500000000018
    vertex -99.67193424017331 77.64561462402366 5.937500000000018
    vertex -134.67193424017324 77.64561462402366 5.937500000000018
  endloop
endfacet
facet normal 0.0 0.0 1.0
  outer loop
    vertex -99.67193424017331 77.64561462402366 5.937500000000018
    vertex -134.67193424017324 73.27061462402368 5.937500000000018
    vertex -130.29693424017324 73.27061462402368 5.937500000000018
  endloop
endfacet
facet normal 0.0 0.0 1.0
  outer loop
    vertex -130.29693424017324 73.27061462402368 5.937500000000018
    vertex -134.67193424017324 73.27061462402368 5.937500000000018
    vertex -130.29693424017327 3.2706146240238017 5.937500000000018
  endloop
endfacet
facet normal 0.0 0.0 1.0
  outer loop
    vertex -130.29693424017324 73.27061462402368 5.937500000000018
    vertex -130.29693424017327 3.2706146240238017 5.937500000000018
    vertex -130.29693424017324 7.645614624023788 5.937500000000018
  endloop
endfacet
facet normal 0.0 0.0 1.0
  outer loop
    vertex -130.29693424017324 73.27061462402368 5.937500000000018
    vertex -130.29693424017324 7.645614624023788 5.937500000000018
    vertex -130.29693424017324 68.8956146240237 5.937500000000018
  endloop
endfacet
facet normal 0.0 0.0 1.0
  outer loop
    vertex -99.67193424017331 77.64561462402366 5.937500000000018
    vertex -130.29693424017324 73.27061462402368 5.937500000000018
    vertex -125.92193424017324 73.27061462402368 5.937500000000018
  endloop
endfacet
facet normal 0.0 0.0 1.0
  outer loop
    vertex -99.67193424017331 77.64561462402366 5.937500000000018
    vertex -125.92193424017324 73.27061462402368 5.937500000000018
    vertex -117.17193424017329 51.39561462402372 5.937500000000018
  endloop
endfacet
facet normal 0.0 0.0 1.0
  outer loop
    vertex -117.17193424017329 51.39561462402372 5.937500000000018
    vertex -125.92193424017324 73.27061462402368 5.937500000000018
    vertex -121.54693424017329 42.64561462402372 5.937500000000018
  endloop
endfacet
facet normal 0.0 0.0 1.0
  outer loop
    vertex -121.54693424017329 42.64561462402372 5.937500000000018
    vertex -125.92193424017324 73.27061462402368 5.937500000000018
    vertex -121.54693424017329 29.520614624023754 5.937500000000018
  endloop
endfacet
facet normal 0.0 0.0 1.0
  outer loop
    vertex -117.17193424017329 51.39561462402372 5.937500000000018
    vertex -121.54693424017329 42.64561462402372 5.937500000000018
    vertex -117.17193424017329 47.02061462402372 5.937500000000018
  endloop
endfacet
facet normal 0.0 0.0 1.0
  outer loop
    vertex -99.67193424017331 77.64561462402366 5.937500000000018
    vertex -117.17193424017329 51.39561462402372 5.937500000000018
    vertex -99.6719342401733 73.27061462402368 5.937500000000018
  endloop
endfacet
facet normal 0.0 0.0 1.0
  outer loop
    vertex -99.6719342401733 73.27061462402368 5.937500000000018
    vertex -117.17193424017329 51.39561462402372 5.937500000000018
    vertex -95.2969342401733 51.39561462402372 5.937500000000018
  endloop
endfacet
facet normal 0.0 0.0 1.0
  outer loop
    vertex -99.6719342401733 73.27061462402368 5.937500000000018
    vertex -95.2969342401733 51.39561462402372 5.937500000000018
    vertex -95.2969342401733 73.27061462402368 5.937500000000018
  endloop
endfacet
facet normal 0.0 0.0 1.0
  outer loop
    vertex -139.04693424017324 -5.479385375976188 5.937500000000018
    vertex -143.4219342401732 -1.104385375976196 5.937500000000018
    vertex -143.4219342401732 -5.479385375976188 5.937500000000018
  endloop
endfacet
facet normal 0.0 0.0 1.0
  outer loop
    vertex -156.54693424017321 29.520614624023754 5.937500000000018
    vertex -156.5469342401731 -9.85438537597618 5.937500000000018
    vertex -152.17193424017321 29.520614624023754 5.937500000000018
  endloop
endfacet
facet normal 0.0 0.0 1.0
  outer loop
    vertex -156.5469342401731 -9.85438537597618 5.937500000000018
    vertex -156.54693424017321 29.520614624023754 5.937500000000018
    vertex -156.5469342401731 -14.22938537597617 5.937500000000018
  endloop
endfacet
facet normal 0.0 0.0 1.0
  outer loop
    vertex -152.17193424017321 29.520614624023754 5.937500000000018
    vertex -156.5469342401731 -9.85438537597618 5.937500000000018
    vertex -152.1719342401731 -9.85438537597618 5.937500000000018
  endloop
endfacet
facet normal 0.0 0.0 1.0
  outer loop
    vertex -152.17193424017321 29.520614624023754 5.937500000000018
    vertex -152.1719342401731 -9.85438537597618 5.937500000000018
    vertex -152.17193424017321 33.89561462402374 5.937500000000018
  endloop
endfacet
facet normal 0.0 0.0 1.0
  outer loop
    vertex -152.17193424017321 33.89561462402374 5.937500000000018
    vertex -152.1719342401731 -9.85438537597618 5.937500000000018
    vertex -152.1719342401731 -5.479385375976188 5.937500000000018
  endloop
endfacet
facet normal 0.0 0.0 1.0
  outer loop
    vertex -152.17193424017321 33.89561462402374 5.937500000000018
    vertex -152.1719342401731 -5.479385375976188 5.937500000000018
    vertex -147.79693424017321 33.89561462402374 5.937500000000018
  endloop
endfacet
facet normal 0.0 0.0 1.0
  outer loop
    vertex -147.79693424017321 33.89561462402374 5.937500000000018
    vertex -152.1719342401731 -5.479385375976188 5.937500000000018
    vertex -147.79693424017313 -5.479385375976188 5.937500000000018
  endloop
endfacet
facet normal 0.0 0.0 1.0
  outer loop
    vertex -147.79693424017321 33.89561462402374 5.937500000000018
    vertex -147.79693424017313 -5.479385375976188 5.937500000000018
    vertex -147.79693424017321 38.27061462402373 5.937500000000018
  endloop
endfacet
facet normal 0.0 0.0 1.0
  outer loop
    vertex -147.79693424017321 38.27061462402373 5.937500000000018
    vertex -147.79693424017313 -5.479385375976188 5.937500000000018
    vertex -147.79693424017313 -1.104385375976196 5.937500000000018
  endloop
endfacet
facet normal 0.0 0.0 1.0
  outer loop
    vertex -147.79693424017321 38.27061462402373 5.937500000000018
    vertex -147.79693424017313 -1.104385375976196 5.937500000000018
    vertex -143.42193424017321 38.27061462402373 5.937500000000018
  endloop
endfacet
facet normal 0.0 0.0 1.0
  outer loop
    vertex -143.42193424017321 38.27061462402373 5.937500000000018
    vertex -147.79693424017313 -1.104385375976196 5.937500000000018
    vertex -143.4219342401732 -1.104385375976196 5.937500000000018
  endloop
endfacet
facet normal 0.0 0.0 1.0
  outer loop
    vertex -143.42193424017321 38.27061462402373 5.937500000000018
    vertex -143.4219342401732 -1.104385375976196 5.937500000000018
    vertex -143.42193424017321 42.64561462402372 5.937500000000018
  endloop
endfacet
facet normal 0.0 0.0 1.0
  outer loop
    vertex -143.42193424017321 42.64561462402372 5.937500000000018
    vertex -143.4219342401732 -1.104385375976196 5.937500000000018
    vertex -139.04693424017324 42.64561462402372 5.937500000000018
  endloop
endfacet
facet normal 0.0 0.0 1.0
  outer loop
    vertex -139.04693424017324 42.64561462402372 5.937500000000018
    vertex -143.4219342401732 -1.104385375976196 5.937500000000018
    vertex -139.04693424017324 -5.479385375976188 5.937500000000018
  endloop
endfacet
facet normal 0.0 0.0 1.0
  outer loop
    vertex -169.6719342401732 12.020614624023775 5.937500000000018
    vertex -174.04693424017316 16.39561462402377 5.937500000000018
    vertex -174.04693424017316 12.020614624023775 5.937500000000018
  endloop
endfacet
facet normal 0.0 0.0 1.0
  outer loop
    vertex -174.04693424017316 16.39561462402377 5.937500000000018
    vertex -169.6719342401732 12.020614624023775 5.937500000000018
    vertex -174.04693424017316 33.89561462402374 5.937500000000018
  endloop
endfacet
facet normal 0.0 0.0 1.0
  outer loop
    vertex -174.04693424017316 33.89561462402374 5.937500000000018
    vertex -169.6719342401732 12.020614624023775 5.937500000000018
    vertex -169.67193424017316 33.89561462402374 5.937500000000018
  endloop
endfacet
facet normal 0.0 0.0 1.0
  outer loop
    vertex -169.67193424017316 33.89561462402374 5.937500000000018
    vertex -169.6719342401732 12.020614624023775 5.937500000000018
    vertex -169.67193424017316 29.520614624023754 5.937500000000018
  endloop
endfacet
facet normal 0.0 0.0 1.0
  outer loop
    vertex -174.04693424017316 16.39561462402377 5.937500000000018
    vertex -178.42193424017313 42.64561462402372 5.937500000000018
    vertex -178.42193424017313 16.39561462402377 5.937500000000018
  endloop
endfacet
facet normal 0.0 0.0 1.0
  outer loop
    vertex -178.42193424017313 42.64561462402372 5.937500000000018
    vertex -174.04693424017316 16.39561462402377 5.937500000000018
    vertex -174.04693424017316 42.64561462402372 5.937500000000018
  endloop
endfacet
facet normal 0.0 0.0 1.0
  outer loop
    vertex -174.04693424017316 42.64561462402372 5.937500000000018
    vertex -174.04693424017316 16.39561462402377 5.937500000000018
    vertex -174.04693424017316 33.89561462402374 5.937500000000018
  endloop
endfacet
facet normal 0.0 1.0 0.0
  outer loop
    vertex -117.17193424017329 47.02061462402372 5.937500000000018
    vertex -104.0469342401733 47.02061462402372 0.0
    vertex -117.17193424017329 47.02061462402372 0.0
  endloop
endfacet
facet normal 0.0 1.0 0.0
  outer loop
    vertex -104.0469342401733 47.02061462402372 0.0
    vertex -117.17193424017329 47.02061462402372 5.937500000000018
    vertex -104.0469342401733 47.02061462402372 5.937500000000018
  endloop
endfacet
facet normal -1.0 0.0 0.0
  outer loop
    vertex -143.42193424017321 42.64561462402372 5.937500000000018
    vertex -143.42193424017321 38.27061462402373 0.0
    vertex -143.42193424017321 38.27061462402373 5.937500000000018
  endloop
endfacet
facet normal -1.0 0.0 0.0
  outer loop
    vertex -143.42193424017321 38.27061462402373 0.0
    vertex -143.42193424017321 42.64561462402372 5.937500000000018
    vertex -143.42193424017321 42.64561462402372 0.0
  endloop
endfacet
facet normal -1.0 0.0 0.0
  outer loop
    vertex -156.54693424017321 29.520614624023754 5.937500000000018
    vertex -156.54693424017321 25.145614624023757 0.0
    vertex -156.54693424017321 25.145614624023757 5.937500000000018
  endloop
endfacet
facet normal -1.0 0.0 0.0
  outer loop
    vertex -156.54693424017321 25.145614624023757 0.0
    vertex -156.54693424017321 29.520614624023754 5.937500000000018
    vertex -156.54693424017321 29.520614624023754 0.0
  endloop
endfacet
facet normal 1.0 5.156510139516165e-15 0.0
  outer loop
    vertex -121.54693424017329 42.64561462402372 0.0
    vertex -121.54693424017324 33.89561462402374 5.937500000000018
    vertex -121.54693424017324 33.89561462402374 0.0
  endloop
endfacet
facet normal 1.0 5.156510139516165e-15 0.0
  outer loop
    vertex -121.54693424017324 33.89561462402374 5.937500000000018
    vertex -121.54693424017329 42.64561462402372 0.0
    vertex -121.54693424017329 42.64561462402372 5.937500000000018
  endloop
endfacet
facet normal 0.0 1.0 0.0
  outer loop
    vertex -121.54693424017324 33.89561462402374 5.937500000000018
    vertex -112.79693424017329 33.89561462402374 0.0
    vertex -121.54693424017324 33.89561462402374 0.0
  endloop
endfacet
facet normal 0.0 1.0 0.0
  outer loop
    vertex -112.79693424017329 33.89561462402374 0.0
    vertex -121.54693424017324 33.89561462402374 5.937500000000018
    vertex -112.79693424017329 33.89561462402374 5.937500000000018
  endloop
endfacet
facet normal 1.0 0.0 0.0
  outer loop
    vertex -112.79693424017329 33.89561462402374 0.0
    vertex -112.79693424017329 25.145614624023757 5.937500000000018
    vertex -112.79693424017329 25.145614624023757 0.0
  endloop
endfacet
facet normal 1.0 0.0 0.0
  outer loop
    vertex -112.79693424017329 25.145614624023757 5.937500000000018
    vertex -112.79693424017329 33.89561462402374 0.0
    vertex -112.79693424017329 33.89561462402374 5.937500000000018
  endloop
endfacet
facet normal -0.0 -1.0 -0.0
  outer loop
    vertex -112.79693424017329 25.145614624023757 5.937500000000018
    vertex -117.17193424017329 25.145614624023757 0.0
    vertex -112.79693424017329 25.145614624023757 0.0
  endloop
endfacet
facet normal -0.0 -1.0 -0.0
  outer loop
    vertex -117.17193424017329 25.145614624023757 0.0
    vertex -112.79693424017329 25.145614624023757 5.937500000000018
    vertex -117.17193424017329 25.145614624023757 5.937500000000018
  endloop
endfacet
facet normal -1.0 0.0 0.0
  outer loop
    vertex -117.17193424017329 29.520614624023754 5.937500000000018
    vertex -117.17193424017329 25.145614624023757 0.0
    vertex -117.17193424017329 25.145614624023757 5.937500000000018
  endloop
endfacet
facet normal -1.0 0.0 0.0
  outer loop
    vertex -117.17193424017329 25.145614624023757 0.0
    vertex -117.17193424017329 29.520614624023754 5.937500000000018
    vertex -117.17193424017329 29.520614624023754 0.0
  endloop
endfacet
facet normal -0.0 -1.0 -0.0
  outer loop
    vertex -104.0469342401733 42.64561462402372 5.937500000000018
    vertex -121.54693424017329 42.64561462402372 0.0
    vertex -104.0469342401733 42.64561462402372 0.0
  endloop
endfacet
facet normal -0.0 -1.0 -0.0
  outer loop
    vertex -121.54693424017329 42.64561462402372 0.0
    vertex -104.0469342401733 42.64561462402372 5.937500000000018
    vertex -121.54693424017329 42.64561462402372 5.937500000000018
  endloop
endfacet
facet normal 1.0 0.0 0.0
  outer loop
    vertex -104.0469342401733 47.02061462402372 0.0
    vertex -104.0469342401733 42.64561462402372 5.937500000000018
    vertex -104.0469342401733 42.64561462402372 0.0
  endloop
endfacet
facet normal 1.0 0.0 0.0
  outer loop
    vertex -104.0469342401733 42.64561462402372 5.937500000000018
    vertex -104.0469342401733 47.02061462402372 0.0
    vertex -104.0469342401733 47.02061462402372 5.937500000000018
  endloop
endfacet
facet normal -1.0 -5.156510139516158e-15 -0.0
  outer loop
    vertex -134.67193424017324 77.64561462402366 5.937500000000018
    vertex -134.67193424017324 73.27061462402368 0.0
    vertex -134.67193424017324 73.27061462402368 5.937500000000018
  endloop
endfacet
facet normal -1.0 -5.156510139516158e-15 -0.0
  outer loop
    vertex -134.67193424017324 73.27061462402368 0.0
    vertex -134.67193424017324 77.64561462402366 5.937500000000018
    vertex -134.67193424017324 77.64561462402366 0.0
  endloop
endfacet
facet normal -1.0 0.0 0.0
  outer loop
    vertex -147.79693424017321 38.27061462402373 5.937500000000018
    vertex -147.79693424017321 33.89561462402374 0.0
    vertex -147.79693424017321 33.89561462402374 5.937500000000018
  endloop
endfacet
facet normal -1.0 0.0 0.0
  outer loop
    vertex -147.79693424017321 33.89561462402374 0.0
    vertex -147.79693424017321 38.27061462402373 5.937500000000018
    vertex -147.79693424017321 38.27061462402373 0.0
  endloop
endfacet
facet normal -0.0 -1.0 -0.0
  outer loop
    vertex -117.17193424017329 29.520614624023754 5.937500000000018
    vertex -121.54693424017329 29.520614624023754 0.0
    vertex -117.17193424017329 29.520614624023754 0.0
  endloop
endfacet
facet normal -0.0 -1.0 -0.0
  outer loop
    vertex -121.54693424017329 29.520614624023754 0.0
    vertex -117.17193424017329 29.520614624023754 5.937500000000018
    vertex -121.54693424017329 29.520614624023754 5.937500000000018
  endloop
endfacet
facet normal -1.0 0.0 0.0
  outer loop
    vertex -139.04693424017324 73.27061462402368 5.937500000000018
    vertex -139.04693424017324 42.64561462402372 0.0
    vertex -139.04693424017324 42.64561462402372 5.937500000000018
  endloop
endfacet
facet normal -1.0 0.0 0.0
  outer loop
    vertex -139.04693424017324 42.64561462402372 0.0
    vertex -139.04693424017324 73.27061462402368 5.937500000000018
    vertex -139.04693424017324 73.27061462402368 0.0
  endloop
endfacet
facet normal 0.0 1.0 0.0
  outer loop
    vertex -134.67193424017324 77.64561462402366 5.937500000000018
    vertex -99.67193424017331 77.64561462402366 0.0
    vertex -134.67193424017324 77.64561462402366 0.0
  endloop
endfacet
facet normal 0.0 1.0 0.0
  outer loop
    vertex -99.67193424017331 77.64561462402366 0.0
    vertex -134.67193424017324 77.64561462402366 5.937500000000018
    vertex -99.67193424017331 77.64561462402366 5.937500000000018
  endloop
endfacet
facet normal 1.0 5.156510139516158e-15 0.0
  outer loop
    vertex -99.67193424017331 77.64561462402366 0.0
    vertex -99.6719342401733 73.27061462402368 5.937500000000018
    vertex -99.6719342401733 73.27061462402368 0.0
  endloop
endfacet
facet normal 1.0 5.156510139516158e-15 0.0
  outer loop
    vertex -99.6719342401733 73.27061462402368 5.937500000000018
    vertex -99.67193424017331 77.64561462402366 0.0
    vertex -99.67193424017331 77.64561462402366 5.937500000000018
  endloop
endfacet
facet normal 0.0 1.0 0.0
  outer loop
    vertex -143.42193424017321 42.64561462402372 5.937500000000018
    vertex -139.04693424017324 42.64561462402372 0.0
    vertex -143.42193424017321 42.64561462402372 0.0
  endloop
endfacet
facet normal 0.0 1.0 0.0
  outer loop
    vertex -139.04693424017324 42.64561462402372 0.0
    vertex -143.42193424017321 42.64561462402372 5.937500000000018
    vertex -139.04693424017324 42.64561462402372 5.937500000000018
  endloop
endfacet
facet normal 0.0 1.0 0.0
  outer loop
    vertex -147.79693424017321 38.27061462402373 5.937500000000018
    vertex -143.42193424017321 38.27061462402373 0.0
    vertex -147.79693424017321 38.27061462402373 0.0
  endloop
endfacet
facet normal 0.0 1.0 0.0
  outer loop
    vertex -143.42193424017321 38.27061462402373 0.0
    vertex -147.79693424017321 38.27061462402373 5.937500000000018
    vertex -143.42193424017321 38.27061462402373 5.937500000000018
  endloop
endfacet
facet normal 0.0 1.0 0.0
  outer loop
    vertex -139.04693424017324 73.27061462402368 5.937500000000018
    vertex -134.67193424017324 73.27061462402368 0.0
    vertex -139.04693424017324 73.27061462402368 0.0
  endloop
endfacet
facet normal 0.0 1.0 0.0
  outer loop
    vertex -134.67193424017324 73.27061462402368 0.0
    vertex -139.04693424017324 73.27061462402368 5.937500000000018
    vertex -134.67193424017324 73.27061462402368 5.937500000000018
  endloop
endfacet
facet normal -0.0 -1.0 -0.0
  outer loop
    vertex -95.2969342401733 51.39561462402372 5.937500000000018
    vertex -117.17193424017329 51.39561462402372 0.0
    vertex -95.2969342401733 51.39561462402372 0.0
  endloop
endfacet
facet normal -0.0 -1.0 -0.0
  outer loop
    vertex -117.17193424017329 51.39561462402372 0.0
    vertex -95.2969342401733 51.39561462402372 5.937500000000018
    vertex -117.17193424017329 51.39561462402372 5.937500000000018
  endloop
endfacet
facet normal 0.0 1.0 0.0
  outer loop
    vertex -165.2969342401732 25.145614624023757 5.937500000000018
    vertex -156.54693424017321 25.145614624023757 0.0
    vertex -165.2969342401732 25.145614624023757 0.0
  endloop
endfacet
facet normal 0.0 1.0 0.0
  outer loop
    vertex -156.54693424017321 25.145614624023757 0.0
    vertex -165.2969342401732 25.145614624023757 5.937500000000018
    vertex -156.54693424017321 25.145614624023757 5.937500000000018
  endloop
endfacet
facet normal 0.0 1.0 0.0
  outer loop
    vertex -152.17193424017321 33.89561462402374 5.937500000000018
    vertex -147.79693424017321 33.89561462402374 0.0
    vertex -152.17193424017321 33.89561462402374 0.0
  endloop
endfacet
facet normal 0.0 1.0 0.0
  outer loop
    vertex -147.79693424017321 33.89561462402374 0.0
    vertex -152.17193424017321 33.89561462402374 5.937500000000018
    vertex -147.79693424017321 33.89561462402374 5.937500000000018
  endloop
endfacet
facet normal 1.0 0.0 0.0
  outer loop
    vertex -95.2969342401733 73.27061462402368 0.0
    vertex -95.2969342401733 51.39561462402372 5.937500000000018
    vertex -95.2969342401733 51.39561462402372 0.0
  endloop
endfacet
facet normal 1.0 0.0 0.0
  outer loop
    vertex -95.2969342401733 51.39561462402372 5.937500000000018
    vertex -95.2969342401733 73.27061462402368 0.0
    vertex -95.2969342401733 73.27061462402368 5.937500000000018
  endloop
endfacet
facet normal -1.0 0.0 0.0
  outer loop
    vertex -152.17193424017321 33.89561462402374 5.937500000000018
    vertex -152.17193424017321 29.520614624023754 0.0
    vertex -152.17193424017321 29.520614624023754 5.937500000000018
  endloop
endfacet
facet normal -1.0 0.0 0.0
  outer loop
    vertex -152.17193424017321 29.520614624023754 0.0
    vertex -152.17193424017321 33.89561462402374 5.937500000000018
    vertex -152.17193424017321 33.89561462402374 0.0
  endloop
endfacet
facet normal 0.0 1.0 0.0
  outer loop
    vertex -156.54693424017321 29.520614624023754 5.937500000000018
    vertex -152.17193424017321 29.520614624023754 0.0
    vertex -156.54693424017321 29.520614624023754 0.0
  endloop
endfacet
facet normal 0.0 1.0 0.0
  outer loop
    vertex -152.17193424017321 29.520614624023754 0.0
    vertex -156.54693424017321 29.520614624023754 5.937500000000018
    vertex -152.17193424017321 29.520614624023754 5.937500000000018
  endloop
endfacet
facet normal 0.0 1.0 0.0
  outer loop
    vertex -99.6719342401733 73.27061462402368 5.937500000000018
    vertex -95.2969342401733 73.27061462402368 0.0
    vertex -99.6719342401733 73.27061462402368 0.0
  endloop
endfacet
facet normal 0.0 1.0 0.0
  outer loop
    vertex -95.2969342401733 73.27061462402368 0.0
    vertex -99.6719342401733 73.27061462402368 5.937500000000018
    vertex -95.2969342401733 73.27061462402368 5.937500000000018
  endloop
endfacet
facet normal 1.0 0.0 0.0
  outer loop
    vertex -117.17193424017329 51.39561462402372 0.0
    vertex -117.17193424017329 47.02061462402372 5.937500000000018
    vertex -117.17193424017329 47.02061462402372 0.0
  endloop
endfacet
facet normal 1.0 0.0 0.0
  outer loop
    vertex -117.17193424017329 47.02061462402372 5.937500000000018
    vertex -117.17193424017329 51.39561462402372 0.0
    vertex -117.17193424017329 51.39561462402372 5.937500000000018
  endloop
endfacet
facet normal -0.0 -1.0 -0.0
  outer loop
    vertex -143.4219342401732 -1.104385375976196 5.937500000000018
    vertex -147.79693424017313 -1.104385375976196 0.0
    vertex -143.4219342401732 -1.104385375976196 0.0
  endloop
endfacet
facet normal -0.0 -1.0 -0.0
  outer loop
    vertex -147.79693424017313 -1.104385375976196 0.0
    vertex -143.4219342401732 -1.104385375976196 5.937500000000018
    vertex -147.79693424017313 -1.104385375976196 5.937500000000018
  endloop
endfacet
facet normal -0.0 -1.0 -0.0
  outer loop
    vertex -121.54693424017324 16.39561462402377 5.937500000000018
    vertex -125.92193424017324 16.39561462402377 0.0
    vertex -121.54693424017324 16.39561462402377 0.0
  endloop
endfacet
facet normal -0.0 -1.0 -0.0
  outer loop
    vertex -125.92193424017324 16.39561462402377 0.0
    vertex -121.54693424017324 16.39561462402377 5.937500000000018
    vertex -125.92193424017324 16.39561462402377 5.937500000000018
  endloop
endfacet
facet normal -0.0 -1.0 -0.0
  outer loop
    vertex -139.04693424017324 -5.479385375976188 5.937500000000018
    vertex -143.4219342401732 -5.479385375976188 0.0
    vertex -139.04693424017324 -5.479385375976188 0.0
  endloop
endfacet
facet normal -0.0 -1.0 -0.0
  outer loop
    vertex -143.4219342401732 -5.479385375976188 0.0
    vertex -139.04693424017324 -5.479385375976188 5.937500000000018
    vertex -143.4219342401732 -5.479385375976188 5.937500000000018
  endloop
endfacet
facet normal -0.0 -1.0 -0.0
  outer loop
    vertex -147.79693424017313 -5.479385375976188 5.937500000000018
    vertex -152.1719342401731 -5.479385375976188 0.0
    vertex -147.79693424017313 -5.479385375976188 0.0
  endloop
endfacet
facet normal -0.0 -1.0 -0.0
  outer loop
    vertex -152.1719342401731 -5.479385375976188 0.0
    vertex -147.79693424017313 -5.479385375976188 5.937500000000018
    vertex -152.1719342401731 -5.479385375976188 5.937500000000018
  endloop
endfacet
facet normal 1.0 0.0 0.0
  outer loop
    vertex -156.5469342401731 -9.85438537597618 0.0
    vertex -156.5469342401731 -14.22938537597617 5.937500000000018
    vertex -156.5469342401731 -14.22938537597617 0.0
  endloop
endfacet
facet normal 1.0 0.0 0.0
  outer loop
    vertex -156.5469342401731 -14.22938537597617 5.937500000000018
    vertex -156.5469342401731 -9.85438537597618 0.0
    vertex -156.5469342401731 -9.85438537597618 5.937500000000018
  endloop
endfacet
facet normal 1.0 0.0 0.0
  outer loop
    vertex -130.2969342401732 -14.22938537597617 0.0
    vertex -130.2969342401732 -18.60438537597616 5.937500000000018
    vertex -130.2969342401732 -18.60438537597616 0.0
  endloop
endfacet
facet normal 1.0 0.0 0.0
  outer loop
    vertex -130.2969342401732 -18.60438537597616 5.937500000000018
    vertex -130.2969342401732 -14.22938537597617 0.0
    vertex -130.2969342401732 -14.22938537597617 5.937500000000018
  endloop
endfacet
facet normal -1.0 0.0 0.0
  outer loop
    vertex -178.42193424017313 42.64561462402372 5.937500000000018
    vertex -178.42193424017313 16.39561462402377 0.0
    vertex -178.42193424017313 16.39561462402377 5.937500000000018
  endloop
endfacet
facet normal -1.0 0.0 0.0
  outer loop
    vertex -178.42193424017313 16.39561462402377 0.0
    vertex -178.42193424017313 42.64561462402372 5.937500000000018
    vertex -178.42193424017313 42.64561462402372 0.0
  endloop
endfacet
facet normal -1.0 0.0 0.0
  outer loop
    vertex -160.9219342401732 3.2706146240238017 5.937500000000018
    vertex -160.9219342401732 -18.604385375976168 0.0
    vertex -160.9219342401732 -18.604385375976168 5.937500000000018
  endloop
endfacet
facet normal -1.0 0.0 0.0
  outer loop
    vertex -160.9219342401732 -18.604385375976168 0.0
    vertex -160.9219342401732 3.2706146240238017 5.937500000000018
    vertex -160.9219342401732 3.2706146240238017 0.0
  endloop
endfacet
facet normal -1.0 0.0 0.0
  outer loop
    vertex -165.2969342401732 7.645614624023788 5.937500000000018
    vertex -165.2969342401732 3.2706146240238017 0.0
    vertex -165.2969342401732 3.2706146240238017 5.937500000000018
  endloop
endfacet
facet normal -1.0 0.0 0.0
  outer loop
    vertex -165.2969342401732 3.2706146240238017 0.0
    vertex -165.2969342401732 7.645614624023788 5.937500000000018
    vertex -165.2969342401732 7.645614624023788 0.0
  endloop
endfacet
facet normal 1.0 -5.156510139516172e-15 0.0
  outer loop
    vertex -130.29693424017324 7.645614624023788 0.0
    vertex -130.29693424017327 3.2706146240238017 5.937500000000018
    vertex -130.29693424017327 3.2706146240238017 0.0
  endloop
endfacet
facet normal 1.0 -5.156510139516172e-15 0.0
  outer loop
    vertex -130.29693424017327 3.2706146240238017 5.937500000000018
    vertex -130.29693424017324 7.645614624023788 0.0
    vertex -130.29693424017324 7.645614624023788 5.937500000000018
  endloop
endfacet
facet normal 0.0 1.0 0.0
  outer loop
    vertex -134.67193424017324 -14.22938537597617 5.937500000000018
    vertex -130.2969342401732 -14.22938537597617 0.0
    vertex -134.67193424017324 -14.22938537597617 0.0
  endloop
endfacet
facet normal 0.0 1.0 0.0
  outer loop
    vertex -130.2969342401732 -14.22938537597617 0.0
    vertex -134.67193424017324 -14.22938537597617 5.937500000000018
    vertex -130.2969342401732 -14.22938537597617 5.937500000000018
  endloop
endfacet
facet normal 1.0 3.4376734263441076e-15 0.0
  outer loop
    vertex -121.54693424017329 29.520614624023754 0.0
    vertex -121.54693424017324 16.39561462402377 5.937500000000018
    vertex -121.54693424017324 16.39561462402377 0.0
  endloop
endfacet
facet normal 1.0 3.4376734263441076e-15 0.0
  outer loop
    vertex -121.54693424017324 16.39561462402377 5.937500000000018
    vertex -121.54693424017329 29.520614624023754 0.0
    vertex -121.54693424017329 29.520614624023754 5.937500000000018
  endloop
endfacet
facet normal 1.0 0.0 0.0
  outer loop
    vertex -152.1719342401731 -14.22938537597617 0.0
    vertex -152.1719342401731 -18.60438537597616 5.937500000000018
    vertex -152.1719342401731 -18.60438537597616 0.0
  endloop
endfacet
facet normal 1.0 0.0 0.0
  outer loop
    vertex -152.1719342401731 -18.60438537597616 5.937500000000018
    vertex -152.1719342401731 -14.22938537597617 0.0
    vertex -152.1719342401731 -14.22938537597617 5.937500000000018
  endloop
endfacet
facet normal -0.0 -1.0 -0.0
  outer loop
    vertex -165.2969342401732 7.645614624023788 5.937500000000018
    vertex -169.6719342401732 7.645614624023788 0.0
    vertex -165.2969342401732 7.645614624023788 0.0
  endloop
endfacet
facet normal -0.0 -1.0 -0.0
  outer loop
    vertex -169.6719342401732 7.645614624023788 0.0
    vertex -165.2969342401732 7.645614624023788 5.937500000000018
    vertex -169.6719342401732 7.645614624023788 5.937500000000018
  endloop
endfacet
facet normal -1.0 0.0 0.0
  outer loop
    vertex -169.6719342401732 12.020614624023775 5.937500000000018
    vertex -169.6719342401732 7.645614624023788 0.0
    vertex -169.6719342401732 7.645614624023788 5.937500000000018
  endloop
endfacet
facet normal -1.0 0.0 0.0
  outer loop
    vertex -169.6719342401732 7.645614624023788 0.0
    vertex -169.6719342401732 12.020614624023775 5.937500000000018
    vertex -169.6719342401732 12.020614624023775 0.0
  endloop
endfacet
facet normal 1.0 0.0 0.0
  outer loop
    vertex -152.1719342401731 -5.479385375976188 0.0
    vertex -152.1719342401731 -9.85438537597618 5.937500000000018
    vertex -152.1719342401731 -9.85438537597618 0.0
  endloop
endfacet
facet normal 1.0 0.0 0.0
  outer loop
    vertex -152.1719342401731 -9.85438537597618 5.937500000000018
    vertex -152.1719342401731 -5.479385375976188 0.0
    vertex -152.1719342401731 -5.479385375976188 5.937500000000018
  endloop
endfacet
facet normal 1.0 0.0 0.0
  outer loop
    vertex -147.79693424017313 -1.104385375976196 0.0
    vertex -147.79693424017313 -5.479385375976188 5.937500000000018
    vertex -147.79693424017313 -5.479385375976188 0.0
  endloop
endfacet
facet normal 1.0 0.0 0.0
  outer loop
    vertex -147.79693424017313 -5.479385375976188 5.937500000000018
    vertex -147.79693424017313 -1.104385375976196 0.0
    vertex -147.79693424017313 -1.104385375976196 5.937500000000018
  endloop
endfacet
facet normal -0.0 -1.0 -0.0
  outer loop
    vertex -152.1719342401731 -9.85438537597618 5.937500000000018
    vertex -156.5469342401731 -9.85438537597618 0.0
    vertex -152.1719342401731 -9.85438537597618 0.0
  endloop
endfacet
facet normal -0.0 -1.0 -0.0
  outer loop
    vertex -156.5469342401731 -9.85438537597618 0.0
    vertex -152.1719342401731 -9.85438537597618 5.937500000000018
    vertex -156.5469342401731 -9.85438537597618 5.937500000000018
  endloop
endfacet
facet normal 1.0 0.0 0.0
  outer loop
    vertex -125.92193424017324 16.39561462402377 0.0
    vertex -125.92193424017324 7.645614624023788 5.937500000000018
    vertex -125.92193424017324 7.645614624023788 0.0
  endloop
endfacet
facet normal 1.0 0.0 0.0
  outer loop
    vertex -125.92193424017324 7.645614624023788 5.937500000000018
    vertex -125.92193424017324 16.39561462402377 0.0
    vertex -125.92193424017324 16.39561462402377 5.937500000000018
  endloop
endfacet
facet normal -0.0 -1.0 -0.0
  outer loop
    vertex -130.29693424017327 3.2706146240238017 5.937500000000018
    vertex -134.67193424017324 3.2706146240238017 0.0
    vertex -130.29693424017327 3.2706146240238017 0.0
  endloop
endfacet
facet normal -0.0 -1.0 -0.0
  outer loop
    vertex -134.67193424017324 3.2706146240238017 0.0
    vertex -130.29693424017327 3.2706146240238017 5.937500000000018
    vertex -134.67193424017324 3.2706146240238017 5.937500000000018
  endloop
endfacet
facet normal -0.0 -1.0 -0.0
  outer loop
    vertex -125.92193424017324 7.645614624023788 5.937500000000018
    vertex -130.29693424017324 7.645614624023788 0.0
    vertex -125.92193424017324 7.645614624023788 0.0
  endloop
endfacet
facet normal -0.0 -1.0 -0.0
  outer loop
    vertex -130.29693424017324 7.645614624023788 0.0
    vertex -125.92193424017324 7.645614624023788 5.937500000000018
    vertex -130.29693424017324 7.645614624023788 5.937500000000018
  endloop
endfacet
facet normal 0.0 1.0 0.0
  outer loop
    vertex -156.5469342401731 -14.22938537597617 5.937500000000018
    vertex -152.1719342401731 -14.22938537597617 0.0
    vertex -156.5469342401731 -14.22938537597617 0.0
  endloop
endfacet
facet normal 0.0 1.0 0.0
  outer loop
    vertex -152.1719342401731 -14.22938537597617 0.0
    vertex -156.5469342401731 -14.22938537597617 5.937500000000018
    vertex -152.1719342401731 -14.22938537597617 5.937500000000018
  endloop
endfacet
facet normal -1.0 0.0 0.0
  outer loop
    vertex -143.4219342401732 -1.104385375976196 5.937500000000018
    vertex -143.4219342401732 -5.479385375976188 0.0
    vertex -143.4219342401732 -5.479385375976188 5.937500000000018
  endloop
endfacet
facet normal -1.0 0.0 0.0
  outer loop
    vertex -143.4219342401732 -5.479385375976188 0.0
    vertex -143.4219342401732 -1.104385375976196 5.937500000000018
    vertex -143.4219342401732 -1.104385375976196 0.0
  endloop
endfacet
facet normal 1.0 0.0 0.0
  outer loop
    vertex -134.67193424017324 3.2706146240238017 0.0
    vertex -134.67193424017324 -14.22938537597617 5.937500000000018
    vertex -134.67193424017324 -14.22938537597617 0.0
  endloop
endfacet
facet normal 1.0 0.0 0.0
  outer loop
    vertex -134.67193424017324 -14.22938537597617 5.937500000000018
    vertex -134.67193424017324 3.2706146240238017 0.0
    vertex -134.67193424017324 3.2706146240238017 5.937500000000018
  endloop
endfacet
facet normal -1.0 0.0 0.0
  outer loop
    vertex -139.04693424017324 -5.479385375976188 5.937500000000018
    vertex -139.04693424017324 -18.60438537597616 0.0
    vertex -139.04693424017324 -18.60438537597616 5.937500000000018
  endloop
endfacet
facet normal -1.0 0.0 0.0
  outer loop
    vertex -139.04693424017324 -18.60438537597616 0.0
    vertex -139.04693424017324 -5.479385375976188 5.937500000000018
    vertex -139.04693424017324 -5.479385375976188 0.0
  endloop
endfacet
facet normal -0.0 -1.0 -0.0
  outer loop
    vertex -160.9219342401732 3.2706146240238017 5.937500000000018
    vertex -165.2969342401732 3.2706146240238017 0.0
    vertex -160.9219342401732 3.2706146240238017 0.0
  endloop
endfacet
facet normal -0.0 -1.0 -0.0
  outer loop
    vertex -165.2969342401732 3.2706146240238017 0.0
    vertex -160.9219342401732 3.2706146240238017 5.937500000000018
    vertex -165.2969342401732 3.2706146240238017 5.937500000000018
  endloop
endfacet
facet normal -0.0 -1.0 -0.0
  outer loop
    vertex -169.6719342401732 12.020614624023775 5.937500000000018
    vertex -174.04693424017316 12.020614624023775 0.0
    vertex -169.6719342401732 12.020614624023775 0.0
  endloop
endfacet
facet normal -0.0 -1.0 -0.0
  outer loop
    vertex -174.04693424017316 12.020614624023775 0.0
    vertex -169.6719342401732 12.020614624023775 5.937500000000018
    vertex -174.04693424017316 12.020614624023775 5.937500000000018
  endloop
endfacet
facet normal -1.0 0.0 0.0
  outer loop
    vertex -174.04693424017316 16.39561462402377 5.937500000000018
    vertex -174.04693424017316 12.020614624023775 0.0
    vertex -174.04693424017316 12.020614624023775 5.937500000000018
  endloop
endfacet
facet normal -1.0 0.0 0.0
  outer loop
    vertex -174.04693424017316 12.020614624023775 0.0
    vertex -174.04693424017316 16.39561462402377 5.937500000000018
    vertex -174.04693424017316 16.39561462402377 0.0
  endloop
endfacet
facet normal -0.0 -1.0 -0.0
  outer loop
    vertex -174.04693424017316 16.39561462402377 5.937500000000018
    vertex -178.42193424017313 16.39561462402377 0.0
    vertex -174.04693424017316 16.39561462402377 0.0
  endloop
endfacet
facet normal -0.0 -1.0 -0.0
  outer loop
    vertex -178.42193424017313 16.39561462402377 0.0
    vertex -174.04693424017316 16.39561462402377 5.937500000000018
    vertex -178.42193424017313 16.39561462402377 5.937500000000018
  endloop
endfacet
facet normal 0.0 1.0 0.0
  outer loop
    vertex -178.42193424017313 42.64561462402372 5.937500000000018
    vertex -174.04693424017316 42.64561462402372 0.0
    vertex -178.42193424017313 42.64561462402372 0.0
  endloop
endfacet
facet normal 0.0 1.0 0.0
  outer loop
    vertex -174.04693424017316 42.64561462402372 0.0
    vertex -178.42193424017313 42.64561462402372 5.937500000000018
    vertex -174.04693424017316 42.64561462402372 5.937500000000018
  endloop
endfacet
facet normal 1.0 0.0 0.0
  outer loop
    vertex -174.04693424017316 42.64561462402372 0.0
    vertex -174.04693424017316 33.89561462402374 5.937500000000018
    vertex -174.04693424017316 33.89561462402374 0.0
  endloop
endfacet
facet normal 1.0 0.0 0.0
  outer loop
    vertex -174.04693424017316 33.89561462402374 5.937500000000018
    vertex -174.04693424017316 42.64561462402372 0.0
    vertex -174.04693424017316 42.64561462402372 5.937500000000018
  endloop
endfacet
facet normal 1.0 0.0 0.0
  outer loop
    vertex -165.2969342401732 29.520614624023754 0.0
    vertex -165.2969342401732 25.145614624023757 5.937500000000018
    vertex -165.2969342401732 25.145614624023757 0.0
  endloop
endfacet
facet normal 1.0 0.0 0.0
  outer loop
    vertex -165.2969342401732 25.145614624023757 5.937500000000018
    vertex -165.2969342401732 29.520614624023754 0.0
    vertex -165.2969342401732 29.520614624023754 5.937500000000018
  endloop
endfacet
facet normal 0.0 1.0 0.0
  outer loop
    vertex -169.67193424017316 29.520614624023754 5.937500000000018
    vertex -165.2969342401732 29.520614624023754 0.0
    vertex -169.67193424017316 29.520614624023754 0.0
  endloop
endfacet
facet normal 0.0 1.0 0.0
  outer loop
    vertex -165.2969342401732 29.520614624023754 0.0
    vertex -169.67193424017316 29.520614624023754 5.937500000000018
    vertex -165.2969342401732 29.520614624023754 5.937500000000018
  endloop
endfacet
facet normal -1.0 0.0 0.0
  outer loop
    vertex -125.92193424017324 73.27061462402368 5.937500000000018
    vertex -125.92193424017324 68.8956146240237 0.0
    vertex -125.92193424017324 68.8956146240237 5.937500000000018
  endloop
endfacet
facet normal -1.0 0.0 0.0
  outer loop
    vertex -125.92193424017324 68.8956146240237 0.0
    vertex -125.92193424017324 73.27061462402368 5.937500000000018
    vertex -125.92193424017324 73.27061462402368 0.0
  endloop
endfacet
facet normal -0.0 -1.0 -0.0
  outer loop
    vertex -125.92193424017324 73.27061462402368 5.937500000000018
    vertex -130.29693424017324 73.27061462402368 0.0
    vertex -125.92193424017324 73.27061462402368 0.0
  endloop
endfacet
facet normal -0.0 -1.0 -0.0
  outer loop
    vertex -130.29693424017324 73.27061462402368 0.0
    vertex -125.92193424017324 73.27061462402368 5.937500000000018
    vertex -130.29693424017324 73.27061462402368 5.937500000000018
  endloop
endfacet
facet normal 0.0 1.0 0.0
  outer loop
    vertex -174.04693424017316 33.89561462402374 5.937500000000018
    vertex -169.67193424017316 33.89561462402374 0.0
    vertex -174.04693424017316 33.89561462402374 0.0
  endloop
endfacet
facet normal 0.0 1.0 0.0
  outer loop
    vertex -169.67193424017316 33.89561462402374 0.0
    vertex -174.04693424017316 33.89561462402374 5.937500000000018
    vertex -169.67193424017316 33.89561462402374 5.937500000000018
  endloop
endfacet
facet normal 1.0 0.0 0.0
  outer loop
    vertex -169.67193424017316 33.89561462402374 0.0
    vertex -169.67193424017316 29.520614624023754 5.937500000000018
    vertex -169.67193424017316 29.520614624023754 0.0
  endloop
endfacet
facet normal 1.0 0.0 0.0
  outer loop
    vertex -169.67193424017316 29.520614624023754 5.937500000000018
    vertex -169.67193424017316 33.89561462402374 0.0
    vertex -169.67193424017316 33.89561462402374 5.937500000000018
  endloop
endfacet
facet normal 1.0 0.0 0.0
  outer loop
    vertex -130.29693424017324 73.27061462402368 0.0
    vertex -130.29693424017324 68.8956146240237 5.937500000000018
    vertex -130.29693424017324 68.8956146240237 0.0
  endloop
endfacet
facet normal 1.0 0.0 0.0
  outer loop
    vertex -130.29693424017324 68.8956146240237 5.937500000000018
    vertex -130.29693424017324 73.27061462402368 0.0
    vertex -130.29693424017324 73.27061462402368 5.937500000000018
  endloop
endfacet
facet normal 0.0 1.0 0.0
  outer loop
    vertex -130.29693424017324 68.8956146240237 5.937500000000018
    vertex -125.92193424017324 68.8956146240237 0.0
    vertex -130.29693424017324 68.8956146240237 0.0
  endloop
endfacet
facet normal 0.0 1.0 0.0
  outer loop
    vertex -125.92193424017324 68.8956146240237 0.0
    vertex -130.29693424017324 68.8956146240237 5.937500000000018
    vertex -125.92193424017324 68.8956146240237 5.937500000000018
  endloop
endfacet
facet normal -3.575716107962795e-09 5.385372642677931e-09 1.0
  outer loop
    vertex -202.188886945236 -27.25444305558638 25.000006242294642
    vertex -199.68888669375096 -21.204422533145777 25.000009147622926
    vertex -202.18888743302506 -19.9544430555264 25.000005591253583
  endloop
endfacet
facet normal -3.575716107962795e-09 5.385372642677931e-09 1.0
  outer loop
    vertex -199.68888669375096 -21.204422533145777 25.000009147622926
    vertex -202.188886945236 -27.25444305558638 25.000006242294642
    vertex -199.6888855662881 -26.004443055583494 25.00000713860397
  endloop
endfacet
facet normal -3.575716107962795e-09 5.385372642677931e-09 1.0
  outer loop
    vertex -199.68888669375096 -21.204422533145777 25.000009147622926
    vertex -199.6888855662881 -26.004443055583494 25.00000713860397
    vertex -199.6888638666377 -18.604385375976186 25.00000782276295
  endloop
endfacet
facet normal -3.575716107962795e-09 5.385372642677931e-09 1.0
  outer loop
    vertex -199.6888638666377 -18.604385375976186 25.00000782276295
    vertex -199.6888855662881 -26.004443055583494 25.00000713860397
    vertex -199.6888638666377 -28.604477009078614 25.00000782276295
  endloop
endfacet
facet normal -3.575716107962795e-09 5.385372642677931e-09 1.0
  outer loop
    vertex -199.6888638666377 -18.604385375976186 25.00000782276295
    vertex -199.6888638666377 -28.604477009078614 25.00000782276295
    vertex -77.75349628240943 -28.604477009078614 25.00000782276295
  endloop
endfacet
facet normal -3.575716107962795e-09 5.385372642677931e-09 1.0
  outer loop
    vertex -199.6888638666377 -18.604385375976186 25.00000782276295
    vertex -77.75349628240943 -28.604477009078614 25.00000782276295
    vertex -80.25349542911813 -27.354429819593435 25.00000756164963
  endloop
endfacet
facet normal -3.575716107962795e-09 5.385372642677931e-09 1.0
  outer loop
    vertex -80.25349542911813 -27.354429819593435 25.00000756164963
    vertex -77.75349628240943 -28.604477009078614 25.00000782276295
    vertex -77.75349398020703 -26.104429819592678 25.000008499731955
  endloop
endfacet
facet normal -3.575716107962795e-09 5.385372642677931e-09 1.0
  outer loop
    vertex -199.6888638666377 -18.604385375976186 25.00000782276295
    vertex -80.25349542911813 -19.85442981959345 25.00000783505857
    vertex -77.75349628240943 -18.604385375976186 25.00000782276295
  endloop
endfacet
facet normal -3.575716107962795e-09 5.385372642677931e-09 1.0
  outer loop
    vertex -80.25349542911813 -19.85442981959345 25.00000783505857
    vertex -199.6888638666377 -18.604385375976186 25.00000782276295
    vertex -80.25349542911813 -27.354429819593435 25.00000756164963
  endloop
endfacet
facet normal -3.575716107962795e-09 5.385372642677931e-09 1.0
  outer loop
    vertex -77.75349628240943 -18.604385375976186 25.00000782276295
    vertex -80.25349542911813 -19.85442981959345 25.00000783505857
    vertex -77.75349687803009 -21.104428370683966 25.00000672631643
  endloop
endfacet
facet normal -0.9999999999897842 4.498177581545282e-06 -4.452673531774244e-07
  outer loop
    vertex -199.6888638666377 -18.604385375976186 25.00000782276295
    vertex -199.6888644303691 -21.204420931308533 1.004509479218818e-06
    vertex -199.68888669375096 -21.204422533145777 25.000009147622926
  endloop
endfacet
facet normal -0.9999999999897842 4.498177581545282e-06 -4.452673531774244e-07
  outer loop
    vertex -199.6888644303691 -21.204420931308533 1.004509479218818e-06
    vertex -199.6888638666377 -18.604385375976186 25.00000782276295
    vertex -199.6888638666377 -18.604385375976186 0.0
  endloop
endfacet
facet normal 3.4093198102504134e-09 1.6513730856452698e-09 -1.0
  outer loop
    vertex -130.29693424017324 73.27061462402368 0.0
    vertex -130.29693424017324 7.645614624023788 0.0
    vertex -130.29693424017327 3.2706146240238017 0.0
  endloop
endfacet
facet normal 3.4093198102504134e-09 1.6513730856452698e-09 -1.0
  outer loop
    vertex -130.29693424017324 7.645614624023788 0.0
    vertex -130.29693424017324 73.27061462402368 0.0
    vertex -130.29693424017324 68.8956146240237 0.0
  endloop
endfacet
facet normal 3.4093198102504134e-09 1.6513730856452698e-09 -1.0
  outer loop
    vertex -130.29693424017324 7.645614624023788 0.0
    vertex -130.29693424017324 68.8956146240237 0.0
    vertex -125.92193424017324 68.8956146240237 0.0
  endloop
endfacet
facet normal 3.4093198102504134e-09 1.6513730856452698e-09 -1.0
  outer loop
    vertex -130.29693424017324 7.645614624023788 0.0
    vertex -125.92193424017324 68.8956146240237 0.0
    vertex -125.92193424017324 7.645614624023788 0.0
  endloop
endfacet
facet normal 3.4093198102504134e-09 1.6513730856452698e-09 -1.0
  outer loop
    vertex -125.92193424017324 7.645614624023788 0.0
    vertex -125.92193424017324 68.8956146240237 0.0
    vertex -125.92193424017324 16.39561462402377 0.0
  endloop
endfacet
facet normal 3.4093198102504134e-09 1.6513730856452698e-09 -1.0
  outer loop
    vertex -199.6888644303691 -21.204420931308533 1.004509479218818e-06
    vertex -202.18886468185414 -27.25444145374916 -1.9008188043789785e-06
    vertex -202.18886516964324 -19.954441453689157 -2.551859864019512e-06
  endloop
endfacet
facet normal 3.4093198102504134e-09 1.6513730856452698e-09 -1.0
  outer loop
    vertex -202.18886468185414 -27.25444145374916 -1.9008188043789785e-06
    vertex -199.6888644303691 -21.204420931308533 1.004509479218818e-06
    vertex -199.68886330290627 -26.004441453746274 -1.004509479218818e-06
  endloop
endfacet
facet normal 3.4093198102504134e-09 1.6513730856452698e-09 -1.0
  outer loop
    vertex -199.68886330290627 -26.004441453746274 -1.004509479218818e-06
    vertex -199.6888644303691 -21.204420931308533 1.004509479218818e-06
    vertex -199.6888638666377 -18.604385375976186 0.0
  endloop
endfacet
facet normal 3.4093198102504134e-09 1.6513730856452698e-09 -1.0
  outer loop
    vertex -199.68886330290627 -26.004441453746274 -1.004509479218818e-06
    vertex -199.6888638666377 -18.604385375976186 0.0
    vertex -160.9219342401732 -18.604385375976168 0.0
  endloop
endfacet
facet normal 3.4093198102504134e-09 1.6513730856452698e-09 -1.0
  outer loop
    vertex -174.04693424017316 42.64561462402372 0.0
    vertex -178.42193424017313 16.39561462402377 0.0
    vertex -178.42193424017313 42.64561462402372 0.0
  endloop
endfacet
facet normal 3.4093198102504134e-09 1.6513730856452698e-09 -1.0
  outer loop
    vertex -178.42193424017313 16.39561462402377 0.0
    vertex -174.04693424017316 42.64561462402372 0.0
    vertex -174.04693424017316 16.39561462402377 0.0
  endloop
endfacet
facet normal 3.4093198102504134e-09 1.6513730856452698e-09 -1.0
  outer loop
    vertex -174.04693424017316 16.39561462402377 0.0
    vertex -174.04693424017316 42.64561462402372 0.0
    vertex -174.04693424017316 12.020614624023775 0.0
  endloop
endfacet
facet normal 3.4093198102504134e-09 1.6513730856452698e-09 -1.0
  outer loop
    vertex -174.04693424017316 12.020614624023775 0.0
    vertex -174.04693424017316 42.64561462402372 0.0
    vertex -174.04693424017316 33.89561462402374 0.0
  endloop
endfacet
facet normal 3.4093198102504134e-09 1.6513730856452698e-09 -1.0
  outer loop
    vertex -174.04693424017316 12.020614624023775 0.0
    vertex -174.04693424017316 33.89561462402374 0.0
    vertex -169.6719342401732 12.020614624023775 0.0
  endloop
endfacet
facet normal 3.4093198102504134e-09 1.6513730856452698e-09 -1.0
  outer loop
    vertex -169.6719342401732 12.020614624023775 0.0
    vertex -174.04693424017316 33.89561462402374 0.0
    vertex -169.67193424017316 33.89561462402374 0.0
  endloop
endfacet
facet normal 3.4093198102504134e-09 1.6513730856452698e-09 -1.0
  outer loop
    vertex -169.6719342401732 12.020614624023775 0.0
    vertex -169.67193424017316 33.89561462402374 0.0
    vertex -169.6719342401732 7.645614624023788 0.0
  endloop
endfacet
facet normal 3.4093198102504134e-09 1.6513730856452698e-09 -1.0
  outer loop
    vertex -169.6719342401732 7.645614624023788 0.0
    vertex -169.67193424017316 33.89561462402374 0.0
    vertex -169.67193424017316 29.520614624023754 0.0
  endloop
endfacet
facet normal 3.4093198102504134e-09 1.6513730856452698e-09 -1.0
  outer loop
    vertex -169.6719342401732 7.645614624023788 0.0
    vertex -169.67193424017316 29.520614624023754 0.0
    vertex -165.2969342401732 7.645614624023788 0.0
  endloop
endfacet
facet normal 3.4093198102504134e-09 1.6513730856452698e-09 -1.0
  outer loop
    vertex -165.2969342401732 7.645614624023788 0.0
    vertex -169.67193424017316 29.520614624023754 0.0
    vertex -165.2969342401732 29.520614624023754 0.0
  endloop
endfacet
facet normal 3.4093198102504134e-09 1.6513730856452698e-09 -1.0
  outer loop
    vertex -165.2969342401732 7.645614624023788 0.0
    vertex -165.2969342401732 29.520614624023754 0.0
    vertex -165.2969342401732 25.145614624023757 0.0
  endloop
endfacet
facet normal 3.4093198102504134e-09 1.6513730856452698e-09 -1.0
  outer loop
    vertex -165.2969342401732 7.645614624023788 0.0
    vertex -165.2969342401732 25.145614624023757 0.0
    vertex -156.54693424017321 25.145614624023757 0.0
  endloop
endfacet
facet normal 3.4093198102504134e-09 1.6513730856452698e-09 -1.0
  outer loop
    vertex -165.2969342401732 7.645614624023788 0.0
    vertex -156.54693424017321 25.145614624023757 0.0
    vertex -165.2969342401732 3.2706146240238017 0.0
  endloop
endfacet
facet normal 3.4093198102504134e-09 1.6513730856452698e-09 -1.0
  outer loop
    vertex -165.2969342401732 3.2706146240238017 0.0
    vertex -156.54693424017321 25.145614624023757 0.0
    vertex -160.9219342401732 3.2706146240238017 0.0
  endloop
endfacet
facet normal 3.4093198102504134e-09 1.6513730856452698e-09 -1.0
  outer loop
    vertex -160.9219342401732 3.2706146240238017 0.0
    vertex -156.54693424017321 25.145614624023757 0.0
    vertex -160.9219342401732 -18.604385375976168 0.0
  endloop
endfacet
facet normal 3.4093198102504134e-09 1.6513730856452698e-09 -1.0
  outer loop
    vertex -134.67193424017324 73.27061462402368 0.0
    vertex -139.04693424017324 42.64561462402372 0.0
    vertex -139.04693424017324 73.27061462402368 0.0
  endloop
endfacet
facet normal 3.4093198102504134e-09 1.6513730856452698e-09 -1.0
  outer loop
    vertex -139.04693424017324 42.64561462402372 0.0
    vertex -134.67193424017324 73.27061462402368 0.0
    vertex -139.04693424017324 -5.479385375976188 0.0
  endloop
endfacet
facet normal 3.4093198102504134e-09 1.6513730856452698e-09 -1.0
  outer loop
    vertex -139.04693424017324 -5.479385375976188 0.0
    vertex -134.67193424017324 73.27061462402368 0.0
    vertex -139.04693424017324 -18.60438537597616 0.0
  endloop
endfacet
facet normal 3.4093198102504134e-09 1.6513730856452698e-09 -1.0
  outer loop
    vertex -77.75349628240943 -18.604385375976186 0.0
    vertex -80.253496282409 -19.85443191698252 2.2203437837209348e-07
    vertex -121.45565647675225 -18.60438537597619 6.797246718134037e-08
  endloop
endfacet
facet normal 3.4093198102504134e-09 1.6513730856452698e-09 -1.0
  outer loop
    vertex -80.253496282409 -19.85443191698252 2.2203437837209348e-07
    vertex -77.75349628240943 -18.604385375976186 0.0
    vertex -77.75349773132098 -21.104430468073037 -8.867077651020239e-07
  endloop
endfacet
facet normal 3.4093198102504134e-09 1.6513730856452698e-09 -1.0
  outer loop
    vertex -199.68886330290627 -26.004441453746274 -1.004509479218818e-06
    vertex -77.75349628240943 -28.604477009078614 0.0
    vertex -199.6888638666377 -28.604477009078614 0.0
  endloop
endfacet
facet normal 3.4093198102504134e-09 1.6513730856452698e-09 -1.0
  outer loop
    vertex -77.75349628240943 -28.604477009078614 0.0
    vertex -199.68886330290627 -26.004441453746274 -1.004509479218818e-06
    vertex -160.9219342401732 -18.604385375976168 0.0
  endloop
endfacet
facet normal 3.4093198102504134e-09 1.6513730856452698e-09 -1.0
  outer loop
    vertex -77.75349628240943 -28.604477009078614 0.0
    vertex -160.9219342401732 -18.604385375976168 0.0
    vertex -152.1719342401731 -18.60438537597616 0.0
  endloop
endfacet
facet normal 3.4093198102504134e-09 1.6513730856452698e-09 -1.0
  outer loop
    vertex -152.1719342401731 -18.60438537597616 0.0
    vertex -160.9219342401732 -18.604385375976168 0.0
    vertex -156.5469342401731 -14.22938537597617 0.0
  endloop
endfacet
facet normal 3.4093198102504134e-09 1.6513730856452698e-09 -1.0
  outer loop
    vertex -156.5469342401731 -14.22938537597617 0.0
    vertex -160.9219342401732 -18.604385375976168 0.0
    vertex -156.54693424017321 25.145614624023757 0.0
  endloop
endfacet
facet normal 3.4093198102504134e-09 1.6513730856452698e-09 -1.0
  outer loop
    vertex -156.5469342401731 -14.22938537597617 0.0
    vertex -156.54693424017321 25.145614624023757 0.0
    vertex -156.5469342401731 -9.85438537597618 0.0
  endloop
endfacet
facet normal 3.4093198102504134e-09 1.6513730856452698e-09 -1.0
  outer loop
    vertex -152.1719342401731 -18.60438537597616 0.0
    vertex -156.5469342401731 -14.22938537597617 0.0
    vertex -152.1719342401731 -14.22938537597617 0.0
  endloop
endfacet
facet normal 3.4093198102504134e-09 1.6513730856452698e-09 -1.0
  outer loop
    vertex -77.75349628240943 -28.604477009078614 0.0
    vertex -152.1719342401731 -18.60438537597616 0.0
    vertex -139.04693424017324 -18.60438537597616 0.0
  endloop
endfacet
facet normal 3.4093198102504134e-09 1.6513730856452698e-09 -1.0
  outer loop
    vertex -77.75349628240943 -28.604477009078614 0.0
    vertex -139.04693424017324 -18.60438537597616 0.0
    vertex -130.2969342401732 -18.60438537597616 0.0
  endloop
endfacet
facet normal 3.4093198102504134e-09 1.6513730856452698e-09 -1.0
  outer loop
    vertex -130.2969342401732 -18.60438537597616 0.0
    vertex -139.04693424017324 -18.60438537597616 0.0
    vertex -134.67193424017324 -14.22938537597617 0.0
  endloop
endfacet
facet normal 3.4093198102504134e-09 1.6513730856452698e-09 -1.0
  outer loop
    vertex -134.67193424017324 -14.22938537597617 0.0
    vertex -139.04693424017324 -18.60438537597616 0.0
    vertex -134.67193424017324 73.27061462402368 0.0
  endloop
endfacet
facet normal 3.4093198102504134e-09 1.6513730856452698e-09 -1.0
  outer loop
    vertex -134.67193424017324 -14.22938537597617 0.0
    vertex -134.67193424017324 73.27061462402368 0.0
    vertex -134.67193424017324 3.2706146240238017 0.0
  endloop
endfacet
facet normal 3.4093198102504134e-09 1.6513730856452698e-09 -1.0
  outer loop
    vertex -130.2969342401732 -18.60438537597616 0.0
    vertex -134.67193424017324 -14.22938537597617 0.0
    vertex -130.2969342401732 -14.22938537597617 0.0
  endloop
endfacet
facet normal 3.4093198102504134e-09 1.6513730856452698e-09 -1.0
  outer loop
    vertex -77.75349628240943 -28.604477009078614 0.0
    vertex -130.2969342401732 -18.60438537597616 0.0
    vertex -121.45565647675225 -18.60438537597619 6.797246718134037e-08
  endloop
endfacet
facet normal 3.4093198102504134e-09 1.6513730856452698e-09 -1.0
  outer loop
    vertex -77.75349628240943 -28.604477009078614 0.0
    vertex -121.45565647675225 -18.60438537597619 6.797246718134037e-08
    vertex -80.253496282409 -27.35443191698252 -5.137456391413053e-08
  endloop
endfacet
facet normal 3.4093198102504134e-09 1.6513730856452698e-09 -1.0
  outer loop
    vertex -80.253496282409 -27.35443191698252 -5.137456391413053e-08
    vertex -121.45565647675225 -18.60438537597619 6.797246718134037e-08
    vertex -80.253496282409 -19.85443191698252 2.2203437837209348e-07
  endloop
endfacet
facet normal 3.4093198102504134e-09 1.6513730856452698e-09 -1.0
  outer loop
    vertex -77.75349628240943 -28.604477009078614 0.0
    vertex -80.253496282409 -27.35443191698252 -5.137456391413053e-08
    vertex -77.75349483349788 -26.10443191698176 8.867077622820573e-07
  endloop
endfacet
facet normal 3.4093198102504134e-09 1.6513730856452698e-09 -1.0
  outer loop
    vertex -139.04693424017324 42.64561462402372 0.0
    vertex -143.42193424017321 38.27061462402373 0.0
    vertex -143.42193424017321 42.64561462402372 0.0
  endloop
endfacet
facet normal 3.4093198102504134e-09 1.6513730856452698e-09 -1.0
  outer loop
    vertex -143.42193424017321 38.27061462402373 0.0
    vertex -139.04693424017324 42.64561462402372 0.0
    vertex -143.4219342401732 -1.104385375976196 0.0
  endloop
endfacet
facet normal 3.4093198102504134e-09 1.6513730856452698e-09 -1.0
  outer loop
    vertex -143.4219342401732 -1.104385375976196 0.0
    vertex -139.04693424017324 42.64561462402372 0.0
    vertex -143.4219342401732 -5.479385375976188 0.0
  endloop
endfacet
facet normal 3.4093198102504134e-09 1.6513730856452698e-09 -1.0
  outer loop
    vertex -143.4219342401732 -5.479385375976188 0.0
    vertex -139.04693424017324 42.64561462402372 0.0
    vertex -139.04693424017324 -5.479385375976188 0.0
  endloop
endfacet
facet normal 3.4093198102504134e-09 1.6513730856452698e-09 -1.0
  outer loop
    vertex -143.42193424017321 38.27061462402373 0.0
    vertex -147.79693424017321 33.89561462402374 0.0
    vertex -147.79693424017321 38.27061462402373 0.0
  endloop
endfacet
facet normal 3.4093198102504134e-09 1.6513730856452698e-09 -1.0
  outer loop
    vertex -147.79693424017321 33.89561462402374 0.0
    vertex -143.42193424017321 38.27061462402373 0.0
    vertex -147.79693424017313 -1.104385375976196 0.0
  endloop
endfacet
facet normal 3.4093198102504134e-09 1.6513730856452698e-09 -1.0
  outer loop
    vertex -147.79693424017313 -1.104385375976196 0.0
    vertex -143.42193424017321 38.27061462402373 0.0
    vertex -143.4219342401732 -1.104385375976196 0.0
  endloop
endfacet
facet normal 3.4093198102504134e-09 1.6513730856452698e-09 -1.0
  outer loop
    vertex -147.79693424017321 33.89561462402374 0.0
    vertex -152.17193424017321 29.520614624023754 0.0
    vertex -152.17193424017321 33.89561462402374 0.0
  endloop
endfacet
facet normal 3.4093198102504134e-09 1.6513730856452698e-09 -1.0
  outer loop
    vertex -152.17193424017321 29.520614624023754 0.0
    vertex -147.79693424017321 33.89561462402374 0.0
    vertex -152.1719342401731 -5.479385375976188 0.0
  endloop
endfacet
facet normal 3.4093198102504134e-09 1.6513730856452698e-09 -1.0
  outer loop
    vertex -152.1719342401731 -5.479385375976188 0.0
    vertex -147.79693424017321 33.89561462402374 0.0
    vertex -147.79693424017313 -5.479385375976188 0.0
  endloop
endfacet
facet normal 3.4093198102504134e-09 1.6513730856452698e-09 -1.0
  outer loop
    vertex -147.79693424017313 -5.479385375976188 0.0
    vertex -147.79693424017321 33.89561462402374 0.0
    vertex -147.79693424017313 -1.104385375976196 0.0
  endloop
endfacet
facet normal 3.4093198102504134e-09 1.6513730856452698e-09 -1.0
  outer loop
    vertex -152.17193424017321 29.520614624023754 0.0
    vertex -156.54693424017321 25.145614624023757 0.0
    vertex -156.54693424017321 29.520614624023754 0.0
  endloop
endfacet
facet normal 3.4093198102504134e-09 1.6513730856452698e-09 -1.0
  outer loop
    vertex -156.54693424017321 25.145614624023757 0.0
    vertex -152.17193424017321 29.520614624023754 0.0
    vertex -156.5469342401731 -9.85438537597618 0.0
  endloop
endfacet
facet normal 3.4093198102504134e-09 1.6513730856452698e-09 -1.0
  outer loop
    vertex -156.5469342401731 -9.85438537597618 0.0
    vertex -152.17193424017321 29.520614624023754 0.0
    vertex -152.1719342401731 -9.85438537597618 0.0
  endloop
endfacet
facet normal 3.4093198102504134e-09 1.6513730856452698e-09 -1.0
  outer loop
    vertex -152.1719342401731 -9.85438537597618 0.0
    vertex -152.17193424017321 29.520614624023754 0.0
    vertex -152.1719342401731 -5.479385375976188 0.0
  endloop
endfacet
facet normal 3.4093198102504134e-09 1.6513730856452698e-09 -1.0
  outer loop
    vertex -99.67193424017331 77.64561462402366 0.0
    vertex -134.67193424017324 73.27061462402368 0.0
    vertex -134.67193424017324 77.64561462402366 0.0
  endloop
endfacet
facet normal 3.4093198102504134e-09 1.6513730856452698e-09 -1.0
  outer loop
    vertex -134.67193424017324 73.27061462402368 0.0
    vertex -99.67193424017331 77.64561462402366 0.0
    vertex -130.29693424017324 73.27061462402368 0.0
  endloop
endfacet
facet normal 3.4093198102504134e-09 1.6513730856452698e-09 -1.0
  outer loop
    vertex -134.67193424017324 73.27061462402368 0.0
    vertex -130.29693424017324 73.27061462402368 0.0
    vertex -134.67193424017324 3.2706146240238017 0.0
  endloop
endfacet
facet normal 3.4093198102504134e-09 1.6513730856452698e-09 -1.0
  outer loop
    vertex -134.67193424017324 3.2706146240238017 0.0
    vertex -130.29693424017324 73.27061462402368 0.0
    vertex -130.29693424017327 3.2706146240238017 0.0
  endloop
endfacet
facet normal 3.4093198102504134e-09 1.6513730856452698e-09 -1.0
  outer loop
    vertex -130.29693424017324 73.27061462402368 0.0
    vertex -99.67193424017331 77.64561462402366 0.0
    vertex -125.92193424017324 73.27061462402368 0.0
  endloop
endfacet
facet normal 3.4093198102504134e-09 1.6513730856452698e-09 -1.0
  outer loop
    vertex -125.92193424017324 73.27061462402368 0.0
    vertex -99.67193424017331 77.64561462402366 0.0
    vertex -125.92193424017324 68.8956146240237 0.0
  endloop
endfacet
facet normal 3.4093198102504134e-09 1.6513730856452698e-09 -1.0
  outer loop
    vertex -125.92193424017324 68.8956146240237 0.0
    vertex -99.67193424017331 77.64561462402366 0.0
    vertex -117.17193424017329 51.39561462402372 0.0
  endloop
endfacet
facet normal 3.4093198102504134e-09 1.6513730856452698e-09 -1.0
  outer loop
    vertex -125.92193424017324 68.8956146240237 0.0
    vertex -117.17193424017329 51.39561462402372 0.0
    vertex -121.54693424017329 42.64561462402372 0.0
  endloop
endfacet
facet normal 3.4093198102504134e-09 1.6513730856452698e-09 -1.0
  outer loop
    vertex -125.92193424017324 68.8956146240237 0.0
    vertex -121.54693424017329 42.64561462402372 0.0
    vertex -125.92193424017324 16.39561462402377 0.0
  endloop
endfacet
facet normal 3.4093198102504134e-09 1.6513730856452698e-09 -1.0
  outer loop
    vertex -117.17193424017329 51.39561462402372 0.0
    vertex -99.67193424017331 77.64561462402366 0.0
    vertex -99.6719342401733 73.27061462402368 0.0
  endloop
endfacet
facet normal 3.4093198102504134e-09 1.6513730856452698e-09 -1.0
  outer loop
    vertex -117.17193424017329 51.39561462402372 0.0
    vertex -99.6719342401733 73.27061462402368 0.0
    vertex -95.2969342401733 51.39561462402372 0.0
  endloop
endfacet
facet normal 3.4093198102504134e-09 1.6513730856452698e-09 -1.0
  outer loop
    vertex -95.2969342401733 51.39561462402372 0.0
    vertex -99.6719342401733 73.27061462402368 0.0
    vertex -95.2969342401733 73.27061462402368 0.0
  endloop
endfacet
facet normal 3.4093198102504134e-09 1.6513730856452698e-09 -1.0
  outer loop
    vertex -121.54693424017329 42.64561462402372 0.0
    vertex -117.17193424017329 47.02061462402372 0.0
    vertex -104.0469342401733 42.64561462402372 0.0
  endloop
endfacet
facet normal 3.4093198102504134e-09 1.6513730856452698e-09 -1.0
  outer loop
    vertex -117.17193424017329 47.02061462402372 0.0
    vertex -121.54693424017329 42.64561462402372 0.0
    vertex -117.17193424017329 51.39561462402372 0.0
  endloop
endfacet
facet normal 3.4093198102504134e-09 1.6513730856452698e-09 -1.0
  outer loop
    vertex -104.0469342401733 42.64561462402372 0.0
    vertex -117.17193424017329 47.02061462402372 0.0
    vertex -104.0469342401733 47.02061462402372 0.0
  endloop
endfacet
facet normal 3.4093198102504134e-09 1.6513730856452698e-09 -1.0
  outer loop
    vertex -121.54693424017324 33.89561462402374 0.0
    vertex -121.54693424017329 29.520614624023754 0.0
    vertex -121.54693424017329 42.64561462402372 0.0
  endloop
endfacet
facet normal 3.4093198102504134e-09 1.6513730856452698e-09 -1.0
  outer loop
    vertex -121.54693424017329 29.520614624023754 0.0
    vertex -121.54693424017324 33.89561462402374 0.0
    vertex -117.17193424017329 29.520614624023754 0.0
  endloop
endfacet
facet normal 3.4093198102504134e-09 1.6513730856452698e-09 -1.0
  outer loop
    vertex -117.17193424017329 29.520614624023754 0.0
    vertex -121.54693424017324 33.89561462402374 0.0
    vertex -112.79693424017329 33.89561462402374 0.0
  endloop
endfacet
facet normal 3.4093198102504134e-09 1.6513730856452698e-09 -1.0
  outer loop
    vertex -117.17193424017329 29.520614624023754 0.0
    vertex -112.79693424017329 33.89561462402374 0.0
    vertex -117.17193424017329 25.145614624023757 0.0
  endloop
endfacet
facet normal 3.4093198102504134e-09 1.6513730856452698e-09 -1.0
  outer loop
    vertex -117.17193424017329 25.145614624023757 0.0
    vertex -112.79693424017329 33.89561462402374 0.0
    vertex -112.79693424017329 25.145614624023757 0.0
  endloop
endfacet
facet normal 3.4093198102504134e-09 1.6513730856452698e-09 -1.0
  outer loop
    vertex -125.92193424017324 16.39561462402377 0.0
    vertex -121.54693424017329 29.520614624023754 0.0
    vertex -121.54693424017324 16.39561462402377 0.0
  endloop
endfacet
facet normal 3.4093198102504134e-09 1.6513730856452698e-09 -1.0
  outer loop
    vertex -121.54693424017329 29.520614624023754 0.0
    vertex -125.92193424017324 16.39561462402377 0.0
    vertex -121.54693424017329 42.64561462402372 0.0
  endloop
endfacet
facet normal -0.9999999999916407 -4.064544299342656e-06 -4.4526762749990136e-07
  outer loop
    vertex -199.6888855662881 -26.004443055583494 25.00000713860397
    vertex -199.6888638666377 -28.604477009078614 0.0
    vertex -199.6888638666377 -28.604477009078614 25.00000782276295
  endloop
endfacet
facet normal -0.9999999999916407 -4.064544299342656e-06 -4.4526762749990136e-07
  outer loop
    vertex -199.6888638666377 -28.604477009078614 0.0
    vertex -199.6888855662881 -26.004443055583494 25.00000713860397
    vertex -199.68886330290627 -26.004441453746274 -1.004509479218818e-06
  endloop
endfacet
facet normal 0.9999999999999163 -4.088993012296918e-07 -1.7065794944058698e-08
  outer loop
    vertex -77.75349628240943 -18.604385375976186 0.0
    vertex -77.75349687803009 -21.104428370683966 25.00000672631643
    vertex -77.75349773132098 -21.104430468073037 -8.867077651020239e-07
  endloop
endfacet
facet normal 0.9999999999999163 -4.088993012296918e-07 -1.7065794944058698e-08
  outer loop
    vertex -77.75349687803009 -21.104428370683966 25.00000672631643
    vertex -77.75349628240943 -18.604385375976186 0.0
    vertex -77.75349628240943 -18.604385375976186 25.00000782276295
  endloop
endfacet
facet normal 0.4472133981617794 -0.8944272896689129 3.4095011778652985e-07
  outer loop
    vertex -199.68886330290627 -26.004441453746274 -1.004509479218818e-06
    vertex -202.188886945236 -27.25444305558638 25.000006242294642
    vertex -202.18886468185414 -27.25444145374916 -1.9008188043789785e-06
  endloop
endfacet
facet normal 0.4472133981617794 -0.8944272896689129 3.4095011778652985e-07
  outer loop
    vertex -202.188886945236 -27.25444305558638 25.000006242294642
    vertex -199.68886330290627 -26.004441453746274 -1.004509479218818e-06
    vertex -199.6888855662881 -26.004443055583494 25.00000713860397
  endloop
endfacet
facet normal -0.4472133881490759 -0.8944272946753223 9.030257789888404e-08
  outer loop
    vertex -77.75349687803009 -21.104428370683966 25.00000672631643
    vertex -80.253496282409 -19.85443191698252 2.2203437837209348e-07
    vertex -77.75349773132098 -21.104430468073037 -8.867077651020239e-07
  endloop
endfacet
facet normal -0.4472133881490759 -0.8944272946753223 9.030257789888404e-08
  outer loop
    vertex -80.253496282409 -19.85443191698252 2.2203437837209348e-07
    vertex -77.75349687803009 -21.104428370683966 25.00000672631643
    vertex -80.25349542911813 -19.85442981959345 25.00000783505857
  endloop
endfacet
facet normal -0.44721338814895933 0.8944272946753833 -5.977433944850867e-08
  outer loop
    vertex -80.25349542911813 -27.354429819593435 25.00000756164963
    vertex -77.75349483349788 -26.10443191698176 8.867077622820573e-07
    vertex -80.253496282409 -27.35443191698252 -5.137456391413053e-08
  endloop
endfacet
facet normal -0.44721338814895933 0.8944272946753833 -5.977433944850867e-08
  outer loop
    vertex -77.75349483349788 -26.10443191698176 8.867077622820573e-07
    vertex -80.25349542911813 -27.354429819593435 25.00000756164963
    vertex -77.75349398020703 -26.104429819592678 25.000008499731955
  endloop
endfacet
facet normal -0.9999999999996013 -6.68205001788416e-08 -8.905349878935928e-07
  outer loop
    vertex -202.18888743302506 -19.9544430555264 25.000005591253583
    vertex -202.18886468185414 -27.25444145374916 -1.9008188043789785e-06
    vertex -202.188886945236 -27.25444305558638 25.000006242294642
  endloop
endfacet
facet normal -0.9999999999996013 -6.68205001788416e-08 -8.905349878935928e-07
  outer loop
    vertex -202.18886468185414 -27.25444145374916 -1.9008188043789785e-06
    vertex -202.18888743302506 -19.9544430555264 25.000005591253583
    vertex -202.18886516964324 -19.954441453689157 -2.551859864019512e-06
  endloop
endfacet
facet normal 0.0 -1.0 0.0
  outer loop
    vertex -77.75349628240943 -28.604477009078614 25.00000782276295
    vertex -199.6888638666377 -28.604477009078614 0.0
    vertex -77.75349628240943 -28.604477009078614 0.0
  endloop
endfacet
facet normal 0.0 -1.0 0.0
  outer loop
    vertex -199.6888638666377 -28.604477009078614 0.0
    vertex -77.75349628240943 -28.604477009078614 25.00000782276295
    vertex -199.6888638666377 -28.604477009078614 25.00000782276295
  endloop
endfacet
facet normal 0.4472076158267993 0.8944301808113936 4.555632710049867e-07
  outer loop
    vertex -202.18888743302506 -19.9544430555264 25.000005591253583
    vertex -199.6888644303691 -21.204420931308533 1.004509479218818e-06
    vertex -202.18886516964324 -19.954441453689157 -2.551859864019512e-06
  endloop
endfacet
facet normal 0.4472076158267993 0.8944301808113936 4.555632710049867e-07
  outer loop
    vertex -199.6888644303691 -21.204420931308533 1.004509479218818e-06
    vertex -202.18888743302506 -19.9544430555264 25.000005591253583
    vertex -199.68888669375096 -21.204422533145777 25.000009147622926
  endloop
endfacet
facet normal 0.9999999999997184 -7.502090135355363e-07 -1.706578062687449e-08
  outer loop
    vertex -77.75349483349788 -26.10443191698176 8.867077622820573e-07
    vertex -77.75349628240943 -28.604477009078614 25.00000782276295
    vertex -77.75349628240943 -28.604477009078614 0.0
  endloop
endfacet
facet normal 0.9999999999997184 -7.502090135355363e-07 -1.706578062687449e-08
  outer loop
    vertex -77.75349628240943 -28.604477009078614 25.00000782276295
    vertex -77.75349483349788 -26.10443191698176 8.867077622820573e-07
    vertex -77.75349398020703 -26.104429819592678 25.000008499731955
  endloop
endfacet
facet normal 0.9999999999999994 1.244252208345794e-15 -3.413162526639001e-08
  outer loop
    vertex -80.253496282409 -19.85443191698252 2.2203437837209348e-07
    vertex -80.25349542911813 -27.354429819593435 25.00000756164963
    vertex -80.253496282409 -27.35443191698252 -5.137456391413053e-08
  endloop
endfacet
facet normal 0.9999999999999994 1.244252208345794e-15 -3.413162526639001e-08
  outer loop
    vertex -80.25349542911813 -27.354429819593435 25.00000756164963
    vertex -80.253496282409 -19.85443191698252 2.2203437837209348e-07
    vertex -80.25349542911813 -19.85442981959345 25.00000783505857
  endloop
endfacet
facet normal 3.910763052575142e-17 1.0 5.052850999593698e-16
  outer loop
    vertex -130.2969342401732 -18.60438537597616 5.937500000000018
    vertex -121.45565647675225 -18.60438537597619 6.797246718134037e-08
    vertex -130.2969342401732 -18.60438537597616 0.0
  endloop
endfacet
facet normal 3.910763052575142e-17 1.0 5.052850999593698e-16
  outer loop
    vertex -199.6888638666377 -18.604385375976186 25.00000782276295
    vertex -160.9219342401732 -18.604385375976168 0.0
    vertex -199.6888638666377 -18.604385375976186 0.0
  endloop
endfacet
facet normal 3.910763052575142e-17 1.0 5.052850999593698e-16
  outer loop
    vertex -160.9219342401732 -18.604385375976168 0.0
    vertex -199.6888638666377 -18.604385375976186 25.00000782276295
    vertex -160.9219342401732 -18.604385375976168 5.937500000000018
  endloop
endfacet
facet normal 3.910763052575142e-17 1.0 5.052850999593698e-16
  outer loop
    vertex -160.9219342401732 -18.604385375976168 5.937500000000018
    vertex -199.6888638666377 -18.604385375976186 25.00000782276295
    vertex -152.1719342401731 -18.60438537597616 5.937500000000018
  endloop
endfacet
facet normal 3.910763052575142e-17 1.0 5.052850999593698e-16
  outer loop
    vertex -152.1719342401731 -18.60438537597616 5.937500000000018
    vertex -199.6888638666377 -18.604385375976186 25.00000782276295
    vertex -139.04693424017324 -18.60438537597616 5.937500000000018
  endloop
endfacet
facet normal 3.910763052575142e-17 1.0 5.052850999593698e-16
  outer loop
    vertex -139.04693424017324 -18.60438537597616 5.937500000000018
    vertex -199.6888638666377 -18.604385375976186 25.00000782276295
    vertex -130.2969342401732 -18.60438537597616 5.937500000000018
  endloop
endfacet
facet normal 3.910763052575142e-17 1.0 5.052850999593698e-16
  outer loop
    vertex -121.45565647675225 -18.60438537597619 6.797246718134037e-08
    vertex -77.75349628240943 -18.604385375976186 25.00000782276295
    vertex -77.75349628240943 -18.604385375976186 0.0
  endloop
endfacet
facet normal 3.910763052575142e-17 1.0 5.052850999593698e-16
  outer loop
    vertex -77.75349628240943 -18.604385375976186 25.00000782276295
    vertex -121.45565647675225 -18.60438537597619 6.797246718134037e-08
    vertex -130.2969342401732 -18.60438537597616 5.937500000000018
  endloop
endfacet
facet normal 3.910763052575142e-17 1.0 5.052850999593698e-16
  outer loop
    vertex -77.75349628240943 -18.604385375976186 25.00000782276295
    vertex -130.2969342401732 -18.60438537597616 5.937500000000018
    vertex -199.6888638666377 -18.604385375976186 25.00000782276295
  endloop
endfacet
facet normal 3.910763052575142e-17 1.0 5.052850999593698e-16
  outer loop
    vertex -152.1719342401731 -18.60438537597616 5.937500000000018
    vertex -139.04693424017324 -18.60438537597616 0.0
    vertex -152.1719342401731 -18.60438537597616 0.0
  endloop
endfacet
facet normal 3.910763052575142e-17 1.0 5.052850999593698e-16
  outer loop
    vertex -139.04693424017324 -18.60438537597616 0.0
    vertex -152.1719342401731 -18.60438537597616 5.937500000000018
    vertex -139.04693424017324 -18.60438537597616 5.937500000000018
  endloop
endfacet
endsolid Google Offline Trex
