solid Google Offline Trex
facet normal -1.0 0.0 0.0
  outer loop
    vertex -60.25349628240942 5.791213989258216 5.937500000000018
    vertex -60.25349628240942 -18.604385375976186 0.0
    vertex -60.25349628240942 -18.604395598034756 5.937500000000018
  endloop
endfacet
facet normal -1.0 0.0 0.0
  outer loop
    vertex -60.25349628240942 -18.604385375976186 0.0
    vertex -60.25349628240942 5.791213989258216 5.937500000000018
    vertex -60.25349628240942 -17.538253784179034 0.0
  endloop
endfacet
facet normal -1.0 0.0 0.0
  outer loop
    vertex -60.25349628240942 -17.538253784179034 0.0
    vertex -60.25349628240942 5.791213989258216 5.937500000000018
    vertex -60.25349628240942 5.791213989258216 0.0
  endloop
endfacet
facet normal 7.736355327279975e-09 3.4693386850443627e-09 -1.0
  outer loop
    vertex -77.75349684614085 -21.204420931308533 9.912594014060972e-07
    vertex -80.2534970976259 -27.25444145374916 -1.8813629729663717e-06
    vertex -80.25349758541493 -19.954441453689178 -2.572706181425133e-06
  endloop
endfacet
facet normal 7.736355327279975e-09 3.4693386850443627e-09 -1.0
  outer loop
    vertex -80.2534970976259 -27.25444145374916 -1.8813629729663717e-06
    vertex -77.75349684614085 -21.204420931308533 9.912594014060972e-07
    vertex -77.753495718678 -26.004441453746264 -9.912594014060972e-07
  endloop
endfacet
facet normal 7.736355327279975e-09 3.4693386850443627e-09 -1.0
  outer loop
    vertex -77.753495718678 -26.004441453746264 -9.912594014060972e-07
    vertex -77.75349684614085 -21.204420931308533 9.912594014060972e-07
    vertex -77.75349628240942 -18.604385375976186 0.0
  endloop
endfacet
facet normal 7.736355327279975e-09 3.4693386850443627e-09 -1.0
  outer loop
    vertex -77.753495718678 -26.004441453746264 -9.912594014060972e-07
    vertex -77.75349628240942 -18.604385375976186 0.0
    vertex -60.25349628240942 -18.604385375976186 0.0
  endloop
endfacet
facet normal 7.736355327279975e-09 3.4693386850443627e-09 -1.0
  outer loop
    vertex -73.0484105280148 36.01422119140684 0.0
    vertex -74.01028644354199 11.22673797607481 0.0
    vertex -74.01028644354199 36.01422119140684 0.0
  endloop
endfacet
facet normal 7.736355327279975e-09 3.4693386850443627e-09 -1.0
  outer loop
    vertex -74.01028644354199 11.22673797607481 0.0
    vertex -73.0484105280148 36.01422119140684 0.0
    vertex -72.45598804266345 11.22673797607481 0.0
  endloop
endfacet
facet normal 7.736355327279975e-09 3.4693386850443627e-09 -1.0
  outer loop
    vertex -67.5071431329951 38.42388916015694 0.0
    vertex -73.0484105280148 36.01422119140684 0.0
    vertex -73.0484105280148 38.42388916015694 0.0
  endloop
endfacet
facet normal 7.736355327279975e-09 3.4693386850443627e-09 -1.0
  outer loop
    vertex -73.0484105280148 36.01422119140684 0.0
    vertex -67.5071431329951 38.42388916015694 0.0
    vertex -72.45598804266345 11.22673797607481 0.0
  endloop
endfacet
facet normal 7.736355327279975e-09 3.4693386850443627e-09 -1.0
  outer loop
    vertex -72.45598804266345 11.22673797607481 0.0
    vertex -67.5071431329951 38.42388916015694 0.0
    vertex -72.45598804266345 9.054534912110002 0.0
  endloop
endfacet
facet normal 7.736355327279975e-09 3.4693386850443627e-09 -1.0
  outer loop
    vertex -72.45598804266345 9.054534912110002 0.0
    vertex -67.5071431329951 38.42388916015694 0.0
    vertex -70.79342853338576 9.054534912110002 0.0
  endloop
endfacet
facet normal 7.736355327279975e-09 3.4693386850443627e-09 -1.0
  outer loop
    vertex -70.79342853338576 9.054534912110002 0.0
    vertex -67.5071431329951 38.42388916015694 0.0
    vertex -70.79342853338576 7.9105834960943495 0.0
  endloop
endfacet
facet normal 7.736355327279975e-09 3.4693386850443627e-09 -1.0
  outer loop
    vertex -70.79342853338576 7.9105834960943495 0.0
    vertex -67.5071431329951 38.42388916015694 0.0
    vertex -69.76212512762396 7.9105834960943495 0.0
  endloop
endfacet
facet normal 7.736355327279975e-09 3.4693386850443627e-09 -1.0
  outer loop
    vertex -69.76212512762396 7.9105834960943495 0.0
    vertex -67.5071431329951 38.42388916015694 0.0
    vertex -69.76212512762396 6.849411010742652 0.0
  endloop
endfacet
facet normal 7.736355327279975e-09 3.4693386850443627e-09 -1.0
  outer loop
    vertex -69.76212512762396 6.849411010742652 0.0
    vertex -67.5071431329951 38.42388916015694 0.0
    vertex -68.68882190496792 6.849449157715358 0.0
  endloop
endfacet
facet normal 7.736355327279975e-09 3.4693386850443627e-09 -1.0
  outer loop
    vertex -68.68882190496792 6.849449157715358 0.0
    vertex -67.5071431329951 38.42388916015694 0.0
    vertex -68.68882190496792 5.791213989258216 0.0
  endloop
endfacet
facet normal 7.736355327279975e-09 3.4693386850443627e-09 -1.0
  outer loop
    vertex -68.68882190496792 5.791213989258216 0.0
    vertex -67.5071431329951 38.42388916015694 0.0
    vertex -67.507181279968 36.01422119140684 0.0
  endloop
endfacet
facet normal 7.736355327279975e-09 3.4693386850443627e-09 -1.0
  outer loop
    vertex -38.2551289728392 41.715248107910654 0.0
    vertex -41.58413898260443 40.32818603515681 0.0
    vertex -41.58413898260443 41.715248107910654 0.0
  endloop
endfacet
facet normal 7.736355327279975e-09 3.4693386850443627e-09 -1.0
  outer loop
    vertex -41.58413898260443 40.32818603515681 0.0
    vertex -38.2551289728392 41.715248107910654 0.0
    vertex -41.58413898260443 10.33810424804774 0.0
  endloop
endfacet
facet normal 7.736355327279975e-09 3.4693386850443627e-09 -1.0
  outer loop
    vertex -41.58413898260443 10.33810424804774 0.0
    vertex -38.2551289728392 41.715248107910654 0.0
    vertex -39.361925237487334 12.29523468017616 0.0
  endloop
endfacet
facet normal 7.736355327279975e-09 3.4693386850443627e-09 -1.0
  outer loop
    vertex -39.361925237487334 12.29523468017616 0.0
    vertex -38.2551289728392 41.715248107910654 0.0
    vertex -38.325090520690495 14.528282165527715 0.0
  endloop
endfacet
facet normal 7.736355327279975e-09 3.4693386850443627e-09 -1.0
  outer loop
    vertex -38.325090520690495 14.528282165527715 0.0
    vertex -38.2551289728392 41.715248107910654 0.0
    vertex -38.2551289728392 40.3281478881843 0.0
  endloop
endfacet
facet normal 7.736355327279975e-09 3.4693386850443627e-09 -1.0
  outer loop
    vertex -38.325090520690495 14.528282165527715 0.0
    vertex -38.2551289728392 40.3281478881843 0.0
    vertex -36.98796283514365 14.528282165527715 0.0
  endloop
endfacet
facet normal 7.736355327279975e-09 3.4693386850443627e-09 -1.0
  outer loop
    vertex -36.98796283514365 14.528282165527715 0.0
    vertex -38.2551289728392 40.3281478881843 0.0
    vertex -36.98796283514365 40.32818603515681 0.0
  endloop
endfacet
facet normal 7.736355327279975e-09 3.4693386850443627e-09 -1.0
  outer loop
    vertex -38.325090520690495 12.29523468017616 0.0
    vertex -39.361925237487334 12.29523468017616 0.0
    vertex -38.325090520690495 14.528282165527715 0.0
  endloop
endfacet
facet normal 7.736355327279975e-09 3.4693386850443627e-09 -1.0
  outer loop
    vertex -39.361925237487334 10.33810424804774 0.0
    vertex -41.58413898260443 10.33810424804774 0.0
    vertex -39.361925237487334 12.29523468017616 0.0
  endloop
endfacet
facet normal 7.736355327279975e-09 3.4693386850443627e-09 -1.0
  outer loop
    vertex -59.20018207342508 57.66678619384833 0.0
    vertex -60.25349628240942 13.456161499024256 0.0
    vertex -60.25349628240942 57.66678619384833 0.0
  endloop
endfacet
facet normal 7.736355327279975e-09 3.4693386850443627e-09 -1.0
  outer loop
    vertex -60.25349628240942 13.456161499024256 0.0
    vertex -59.20018207342508 57.66678619384833 0.0
    vertex -60.25349628240942 5.791213989258216 0.0
  endloop
endfacet
facet normal 7.736355327279975e-09 3.4693386850443627e-09 -1.0
  outer loop
    vertex -60.25349628240942 5.791213989258216 0.0
    vertex -59.20018207342508 57.66678619384833 0.0
    vertex -60.25349628240942 -17.538253784179034 0.0
  endloop
endfacet
facet normal 7.736355327279975e-09 3.4693386850443627e-09 -1.0
  outer loop
    vertex -60.25349628240942 -17.538253784179034 0.0
    vertex -59.20018207342508 57.66678619384833 0.0
    vertex -60.223630024210934 -17.538253784179037 0.0
  endloop
endfacet
facet normal 7.736355327279975e-09 3.4693386850443627e-09 -1.0
  outer loop
    vertex -50.322847478698414 59.01631164550837 0.0
    vertex -59.20018207342508 57.66678619384833 0.0
    vertex -59.20018207342508 59.01631164550837 0.0
  endloop
endfacet
facet normal 7.736355327279975e-09 3.4693386850443627e-09 -1.0
  outer loop
    vertex -41.58413898260443 40.32818603515681 0.0
    vertex -42.67502795965533 14.5282440185552 0.0
    vertex -42.67502795965533 40.32818603515681 0.0
  endloop
endfacet
facet normal 7.736355327279975e-09 3.4693386850443627e-09 -1.0
  outer loop
    vertex -49.19613849432331 57.66678619384833 0.0
    vertex -49.2125661156209 -18.604385375976186 0.0
    vertex -50.3228093317259 57.66678619384833 0.0
  endloop
endfacet
facet normal 7.736355327279975e-09 3.4693386850443627e-09 -1.0
  outer loop
    vertex -49.2125661156209 -18.604385375976186 0.0
    vertex -49.19613849432331 57.66678619384833 0.0
    vertex -49.19613849432331 8.997314453125657 0.0
  endloop
endfacet
facet normal 7.736355327279975e-09 3.4693386850443627e-09 -1.0
  outer loop
    vertex -49.19613849432331 8.997314453125657 0.0
    vertex -49.19613849432331 57.66678619384833 0.0
    vertex -49.19613849432331 14.5282440185552 0.0
  endloop
endfacet
facet normal 7.736355327279975e-09 3.4693386850443627e-09 -1.0
  outer loop
    vertex -49.19613849432331 8.997314453125657 0.0
    vertex -49.19613849432331 14.5282440185552 0.0
    vertex -42.67502795965533 14.5282440185552 0.0
  endloop
endfacet
facet normal 7.736355327279975e-09 3.4693386850443627e-09 -1.0
  outer loop
    vertex -49.19613849432331 8.997314453125657 0.0
    vertex -42.67502795965533 14.5282440185552 0.0
    vertex -41.58413898260443 8.997314453125657 0.0
  endloop
endfacet
facet normal 7.736355327279975e-09 3.4693386850443627e-09 -1.0
  outer loop
    vertex -41.58413898260443 8.997314453125657 0.0
    vertex -42.67502795965533 14.5282440185552 0.0
    vertex -41.58413898260443 40.32818603515681 0.0
  endloop
endfacet
facet normal 7.736355327279975e-09 3.4693386850443627e-09 -1.0
  outer loop
    vertex -41.58413898260443 8.997314453125657 0.0
    vertex -41.58413898260443 40.32818603515681 0.0
    vertex -41.58413898260443 10.33810424804774 0.0
  endloop
endfacet
facet normal 7.736355327279975e-09 3.4693386850443627e-09 -1.0
  outer loop
    vertex -31.7125661156209 -18.604385375976186 0.0
    vertex -34.21256611562048 -19.854450990468777 2.2203438119205998e-07
    vertex -49.2125661156209 -18.604385375976186 0.0
  endloop
endfacet
facet normal 7.736355327279975e-09 3.4693386850443627e-09 -1.0
  outer loop
    vertex -34.21256611562048 -19.854450990468777 2.2203438119205998e-07
    vertex -31.7125661156209 -18.604385375976186 0.0
    vertex -31.71256756453244 -21.104449541559294 -8.867077622820573e-07
  endloop
endfacet
facet normal 7.736355327279975e-09 3.4693386850443627e-09 -1.0
  outer loop
    vertex -77.753495718678 -26.004441453746264 -9.912594014060972e-07
    vertex -31.7125661156209 -28.604477009078614 0.0
    vertex -77.75349628240942 -28.604477009078614 0.0
  endloop
endfacet
facet normal 7.736355327279975e-09 3.4693386850443627e-09 -1.0
  outer loop
    vertex -31.7125661156209 -28.604477009078614 0.0
    vertex -77.753495718678 -26.004441453746264 -9.912594014060972e-07
    vertex -60.25349628240942 -18.604385375976186 0.0
  endloop
endfacet
facet normal 7.736355327279975e-09 3.4693386850443627e-09 -1.0
  outer loop
    vertex -31.7125661156209 -28.604477009078614 0.0
    vertex -60.25349628240942 -18.604385375976186 0.0
    vertex -60.223630024210934 -17.538253784179037 0.0
  endloop
endfacet
facet normal 7.736355327279975e-09 3.4693386850443627e-09 -1.0
  outer loop
    vertex -31.7125661156209 -28.604477009078614 0.0
    vertex -60.223630024210934 -17.538253784179037 0.0
    vertex -34.21256611562048 -27.35445099046877 -5.137456109416405e-08
  endloop
endfacet
facet normal 7.736355327279975e-09 3.4693386850443627e-09 -1.0
  outer loop
    vertex -34.21256611562048 -27.35445099046877 -5.137456109416405e-08
    vertex -60.223630024210934 -17.538253784179037 0.0
    vertex -49.2125661156209 -18.604385375976186 0.0
  endloop
endfacet
facet normal 7.736355327279975e-09 3.4693386850443627e-09 -1.0
  outer loop
    vertex -49.2125661156209 -18.604385375976186 0.0
    vertex -60.223630024210934 -17.538253784179037 0.0
    vertex -59.20018207342508 57.66678619384833 0.0
  endloop
endfacet
facet normal 7.736355327279975e-09 3.4693386850443627e-09 -1.0
  outer loop
    vertex -49.2125661156209 -18.604385375976186 0.0
    vertex -59.20018207342508 57.66678619384833 0.0
    vertex -50.3228093317259 57.66678619384833 0.0
  endloop
endfacet
facet normal 7.736355327279975e-09 3.4693386850443627e-09 -1.0
  outer loop
    vertex -50.3228093317259 57.66678619384833 0.0
    vertex -59.20018207342508 57.66678619384833 0.0
    vertex -50.322847478698414 59.01631164550837 0.0
  endloop
endfacet
facet normal 7.736355327279975e-09 3.4693386850443627e-09 -1.0
  outer loop
    vertex -34.21256611562048 -27.35445099046877 -5.137456109416405e-08
    vertex -49.2125661156209 -18.604385375976186 0.0
    vertex -34.21256611562048 -19.854450990468777 2.2203438119205998e-07
  endloop
endfacet
facet normal 7.736355327279975e-09 3.4693386850443627e-09 -1.0
  outer loop
    vertex -31.7125661156209 -28.604477009078614 0.0
    vertex -34.21256611562048 -27.35445099046877 -5.137456109416405e-08
    vertex -31.712564666709355 -26.104450990468017 8.867077651020239e-07
  endloop
endfacet
facet normal 7.736355327279975e-09 3.4693386850443627e-09 -1.0
  outer loop
    vertex -68.68882190496792 5.791213989258216 0.0
    vertex -66.46283160955765 13.456161499024256 0.0
    vertex -60.25349628240942 5.791213989258216 0.0
  endloop
endfacet
facet normal 7.736355327279975e-09 3.4693386850443627e-09 -1.0
  outer loop
    vertex -66.46283160955765 13.456161499024256 0.0
    vertex -68.68882190496792 5.791213989258216 0.0
    vertex -67.507181279968 36.01422119140684 0.0
  endloop
endfacet
facet normal 7.736355327279975e-09 3.4693386850443627e-09 -1.0
  outer loop
    vertex -66.46283160955765 13.456161499024256 0.0
    vertex -67.507181279968 36.01422119140684 0.0
    vertex -66.46283160955765 36.01422119140684 0.0
  endloop
endfacet
facet normal 7.736355327279975e-09 3.4693386850443627e-09 -1.0
  outer loop
    vertex -60.25349628240942 5.791213989258216 0.0
    vertex -66.46283160955765 13.456161499024256 0.0
    vertex -60.25349628240942 13.456161499024256 0.0
  endloop
endfacet
facet normal 1.6034812613623027e-31 6.093643493085162e-32 1.0
  outer loop
    vertex -70.79342853338576 9.054534912110002 5.937500000000018
    vertex -72.45598804266345 11.22673797607481 5.937500000000018
    vertex -72.45598804266345 9.054534912110002 5.937500000000018
  endloop
endfacet
facet normal 1.6034812613623027e-31 6.093643493085162e-32 1.0
  outer loop
    vertex -69.76212512762396 7.9105834960943495 5.937500000000018
    vertex -70.79342853338576 9.054534912110002 5.937500000000018
    vertex -70.79342853338576 7.9105834960943495 5.937500000000018
  endloop
endfacet
facet normal 1.6034812613623027e-31 6.093643493085162e-32 1.0
  outer loop
    vertex -68.68882190496792 6.849449157715358 5.937500000000018
    vertex -69.76212512762396 7.9105834960943495 5.937500000000018
    vertex -69.76212512762396 6.849411010742652 5.937500000000018
  endloop
endfacet
facet normal 1.6034812613623027e-31 6.093643493085162e-32 1.0
  outer loop
    vertex -36.98796283514365 14.528282165527715 5.937500000000018
    vertex -38.2551289728392 40.3281478881843 5.937500000000018
    vertex -38.325090520690495 14.528282165527715 5.937500000000018
  endloop
endfacet
facet normal 1.6034812613623027e-31 6.093643493085162e-32 1.0
  outer loop
    vertex -38.2551289728392 40.3281478881843 5.937500000000018
    vertex -36.98796283514365 14.528282165527715 5.937500000000018
    vertex -36.98796283514365 40.32818603515681 5.937500000000018
  endloop
endfacet
facet normal 1.6034812613623027e-31 6.093643493085162e-32 1.0
  outer loop
    vertex -41.58413898260443 8.997314453125657 5.937500000000018
    vertex -49.19613849432331 14.5282440185552 5.937500000000018
    vertex -49.19613849432331 8.997314453125657 5.937500000000018
  endloop
endfacet
facet normal 1.6034812613623027e-31 6.093643493085162e-32 1.0
  outer loop
    vertex -49.19613849432331 14.5282440185552 5.937500000000018
    vertex -41.58413898260443 8.997314453125657 5.937500000000018
    vertex -42.67502795965533 14.5282440185552 5.937500000000018
  endloop
endfacet
facet normal 1.6034812613623027e-31 6.093643493085162e-32 1.0
  outer loop
    vertex -42.67502795965533 14.5282440185552 5.937500000000018
    vertex -41.58413898260443 8.997314453125657 5.937500000000018
    vertex -42.67502795965533 40.32818603515681 5.937500000000018
  endloop
endfacet
facet normal 1.6034812613623027e-31 6.093643493085162e-32 1.0
  outer loop
    vertex -42.67502795965533 40.32818603515681 5.937500000000018
    vertex -41.58413898260443 8.997314453125657 5.937500000000018
    vertex -41.58413898260443 40.32818603515681 5.937500000000018
  endloop
endfacet
facet normal 1.6034812613623027e-31 6.093643493085162e-32 1.0
  outer loop
    vertex -41.58413898260443 40.32818603515681 5.937500000000018
    vertex -41.58413898260443 8.997314453125657 5.937500000000018
    vertex -41.58413898260443 10.33810424804774 5.937500000000018
  endloop
endfacet
facet normal 1.6034812613623027e-31 6.093643493085162e-32 1.0
  outer loop
    vertex -41.58413898260443 40.32818603515681 5.937500000000018
    vertex -41.58413898260443 10.33810424804774 5.937500000000018
    vertex -39.361925237487334 10.33810424804774 5.937500000000018
  endloop
endfacet
facet normal 1.6034812613623027e-31 6.093643493085162e-32 1.0
  outer loop
    vertex -41.58413898260443 40.32818603515681 5.937500000000018
    vertex -39.361925237487334 10.33810424804774 5.937500000000018
    vertex -41.58413898260443 41.715248107910654 5.937500000000018
  endloop
endfacet
facet normal 1.6034812613623027e-31 6.093643493085162e-32 1.0
  outer loop
    vertex -41.58413898260443 41.715248107910654 5.937500000000018
    vertex -39.361925237487334 10.33810424804774 5.937500000000018
    vertex -39.361925237487334 12.29523468017616 5.937500000000018
  endloop
endfacet
facet normal 1.6034812613623027e-31 6.093643493085162e-32 1.0
  outer loop
    vertex -41.58413898260443 41.715248107910654 5.937500000000018
    vertex -39.361925237487334 12.29523468017616 5.937500000000018
    vertex -38.2551289728392 41.715248107910654 5.937500000000018
  endloop
endfacet
facet normal 1.6034812613623027e-31 6.093643493085162e-32 1.0
  outer loop
    vertex -38.2551289728392 41.715248107910654 5.937500000000018
    vertex -39.361925237487334 12.29523468017616 5.937500000000018
    vertex -38.325090520690495 14.528282165527715 5.937500000000018
  endloop
endfacet
facet normal 1.6034812613623027e-31 6.093643493085162e-32 1.0
  outer loop
    vertex -38.325090520690495 14.528282165527715 5.937500000000018
    vertex -39.361925237487334 12.29523468017616 5.937500000000018
    vertex -38.325090520690495 12.29523468017616 5.937500000000018
  endloop
endfacet
facet normal 1.6034812613623027e-31 6.093643493085162e-32 1.0
  outer loop
    vertex -38.2551289728392 41.715248107910654 5.937500000000018
    vertex -38.325090520690495 14.528282165527715 5.937500000000018
    vertex -38.2551289728392 40.3281478881843 5.937500000000018
  endloop
endfacet
facet normal 1.6034812613623027e-31 6.093643493085162e-32 1.0
  outer loop
    vertex -49.19613849432331 -18.604395598034756 5.937500000000018
    vertex -60.25349628240942 5.791213989258216 5.937500000000018
    vertex -60.25349628240942 -18.604395598034756 5.937500000000018
  endloop
endfacet
facet normal 1.6034812613623027e-31 6.093643493085162e-32 1.0
  outer loop
    vertex -60.25349628240942 5.791213989258216 5.937500000000018
    vertex -49.19613849432331 -18.604395598034756 5.937500000000018
    vertex -60.25349628240942 13.456161499024256 5.937500000000018
  endloop
endfacet
facet normal 1.6034812613623027e-31 6.093643493085162e-32 1.0
  outer loop
    vertex -60.25349628240942 13.456161499024256 5.937500000000018
    vertex -49.19613849432331 -18.604395598034756 5.937500000000018
    vertex -60.25349628240942 57.66678619384833 5.937500000000018
  endloop
endfacet
facet normal 1.6034812613623027e-31 6.093643493085162e-32 1.0
  outer loop
    vertex -60.25349628240942 57.66678619384833 5.937500000000018
    vertex -49.19613849432331 -18.604395598034756 5.937500000000018
    vertex -59.20018207342508 57.66678619384833 5.937500000000018
  endloop
endfacet
facet normal 1.6034812613623027e-31 6.093643493085162e-32 1.0
  outer loop
    vertex -59.20018207342508 57.66678619384833 5.937500000000018
    vertex -49.19613849432331 -18.604395598034756 5.937500000000018
    vertex -59.20018207342508 59.01631164550837 5.937500000000018
  endloop
endfacet
facet normal 1.6034812613623027e-31 6.093643493085162e-32 1.0
  outer loop
    vertex -59.20018207342508 59.01631164550837 5.937500000000018
    vertex -49.19613849432331 -18.604395598034756 5.937500000000018
    vertex -50.3228093317259 57.66678619384833 5.937500000000018
  endloop
endfacet
facet normal 1.6034812613623027e-31 6.093643493085162e-32 1.0
  outer loop
    vertex -59.20018207342508 59.01631164550837 5.937500000000018
    vertex -50.3228093317259 57.66678619384833 5.937500000000018
    vertex -50.322847478698414 59.01631164550837 5.937500000000018
  endloop
endfacet
facet normal 1.6034812613623027e-31 6.093643493085162e-32 1.0
  outer loop
    vertex -50.3228093317259 57.66678619384833 5.937500000000018
    vertex -49.19613849432331 -18.604395598034756 5.937500000000018
    vertex -49.19613849432331 57.66678619384833 5.937500000000018
  endloop
endfacet
facet normal 1.6034812613623027e-31 6.093643493085162e-32 1.0
  outer loop
    vertex -49.19613849432331 57.66678619384833 5.937500000000018
    vertex -49.19613849432331 -18.604395598034756 5.937500000000018
    vertex -49.19613849432331 8.997314453125657 5.937500000000018
  endloop
endfacet
facet normal 1.6034812613623027e-31 6.093643493085162e-32 1.0
  outer loop
    vertex -49.19613849432331 57.66678619384833 5.937500000000018
    vertex -49.19613849432331 8.997314453125657 5.937500000000018
    vertex -49.19613849432331 14.5282440185552 5.937500000000018
  endloop
endfacet
facet normal 1.6034812613623027e-31 6.093643493085162e-32 1.0
  outer loop
    vertex -60.25349628240942 5.791213989258216 5.937500000000018
    vertex -68.68882190496792 6.849449157715358 5.937500000000018
    vertex -68.68882190496792 5.791213989258216 5.937500000000018
  endloop
endfacet
facet normal 1.6034812613623027e-31 6.093643493085162e-32 1.0
  outer loop
    vertex -68.68882190496792 6.849449157715358 5.937500000000018
    vertex -60.25349628240942 5.791213989258216 5.937500000000018
    vertex -66.46283160955765 13.456161499024256 5.937500000000018
  endloop
endfacet
facet normal 1.6034812613623027e-31 6.093643493085162e-32 1.0
  outer loop
    vertex -68.68882190496792 6.849449157715358 5.937500000000018
    vertex -66.46283160955765 13.456161499024256 5.937500000000018
    vertex -67.507181279968 36.01422119140684 5.937500000000018
  endloop
endfacet
facet normal 1.6034812613623027e-31 6.093643493085162e-32 1.0
  outer loop
    vertex -66.46283160955765 13.456161499024256 5.937500000000018
    vertex -60.25349628240942 5.791213989258216 5.937500000000018
    vertex -60.25349628240942 13.456161499024256 5.937500000000018
  endloop
endfacet
facet normal 1.6034812613623027e-31 6.093643493085162e-32 1.0
  outer loop
    vertex -66.46283160955765 36.01422119140684 5.937500000000018
    vertex -67.507181279968 36.01422119140684 5.937500000000018
    vertex -66.46283160955765 13.456161499024256 5.937500000000018
  endloop
endfacet
facet normal 1.6034812613623027e-31 6.093643493085162e-32 1.0
  outer loop
    vertex -72.45598804266345 11.22673797607481 5.937500000000018
    vertex -74.01028644354199 36.01422119140684 5.937500000000018
    vertex -74.01028644354199 11.22673797607481 5.937500000000018
  endloop
endfacet
facet normal 1.6034812613623027e-31 6.093643493085162e-32 1.0
  outer loop
    vertex -74.01028644354199 36.01422119140684 5.937500000000018
    vertex -72.45598804266345 11.22673797607481 5.937500000000018
    vertex -73.0484105280148 36.01422119140684 5.937500000000018
  endloop
endfacet
facet normal 1.6034812613623027e-31 6.093643493085162e-32 1.0
  outer loop
    vertex -73.0484105280148 36.01422119140684 5.937500000000018
    vertex -72.45598804266345 11.22673797607481 5.937500000000018
    vertex -73.0484105280148 38.42388916015694 5.937500000000018
  endloop
endfacet
facet normal 1.6034812613623027e-31 6.093643493085162e-32 1.0
  outer loop
    vertex -73.0484105280148 38.42388916015694 5.937500000000018
    vertex -72.45598804266345 11.22673797607481 5.937500000000018
    vertex -67.5071431329951 38.42388916015694 5.937500000000018
  endloop
endfacet
facet normal 1.6034812613623027e-31 6.093643493085162e-32 1.0
  outer loop
    vertex -67.5071431329951 38.42388916015694 5.937500000000018
    vertex -72.45598804266345 11.22673797607481 5.937500000000018
    vertex -70.79342853338576 9.054534912110002 5.937500000000018
  endloop
endfacet
facet normal 1.6034812613623027e-31 6.093643493085162e-32 1.0
  outer loop
    vertex -67.5071431329951 38.42388916015694 5.937500000000018
    vertex -70.79342853338576 9.054534912110002 5.937500000000018
    vertex -69.76212512762396 7.9105834960943495 5.937500000000018
  endloop
endfacet
facet normal 1.6034812613623027e-31 6.093643493085162e-32 1.0
  outer loop
    vertex -67.5071431329951 38.42388916015694 5.937500000000018
    vertex -69.76212512762396 7.9105834960943495 5.937500000000018
    vertex -68.68882190496792 6.849449157715358 5.937500000000018
  endloop
endfacet
facet normal 1.6034812613623027e-31 6.093643493085162e-32 1.0
  outer loop
    vertex -67.5071431329951 38.42388916015694 5.937500000000018
    vertex -68.68882190496792 6.849449157715358 5.937500000000018
    vertex -67.507181279968 36.01422119140684 5.937500000000018
  endloop
endfacet
facet normal 0.0 -1.0 0.0
  outer loop
    vertex -49.19613849432331 8.997314453125657 5.937500000000018
    vertex -49.19613849432331 8.997314453125657 0.0
    vertex -41.58413898260443 8.997314453125657 5.937500000000018
  endloop
endfacet
facet normal 0.0 -1.0 0.0
  outer loop
    vertex -60.25349628240942 5.791213989258216 5.937500000000018
    vertex -68.68882190496792 5.791213989258216 0.0
    vertex -60.25349628240942 5.791213989258216 0.0
  endloop
endfacet
facet normal 0.0 -1.0 0.0
  outer loop
    vertex -41.58413898260443 8.997314453125657 5.937500000000018
    vertex -49.19613849432331 8.997314453125657 0.0
    vertex -41.58413898260443 8.997314453125657 0.0
  endloop
endfacet
facet normal 0.0 -1.0 0.0
  outer loop
    vertex -68.68882190496792 5.791213989258216 5.937500000000018
    vertex -68.68882190496792 5.791213989258216 0.0
    vertex -60.25349628240942 5.791213989258216 5.937500000000018
  endloop
endfacet
facet normal -1.0 0.0 0.0
  outer loop
    vertex -68.68882190496792 6.849449157715358 5.937500000000018
    vertex -68.68882190496792 5.791213989258216 0.0
    vertex -68.68882190496792 5.791213989258216 5.937500000000018
  endloop
endfacet
facet normal 3.554165482224106e-05 -0.9999999993683956 -9.702070673728041e-22
  outer loop
    vertex -68.68882190496792 6.849449157715358 5.937500000000018
    vertex -69.76212512762396 6.849411010742652 0.0
    vertex -68.68882190496792 6.849449157715358 0.0
  endloop
endfacet
facet normal -1.0 0.0 0.0
  outer loop
    vertex -68.68882190496792 6.849449157715358 0.0
    vertex -68.68882190496792 5.791213989258216 0.0
    vertex -68.68882190496792 6.849449157715358 5.937500000000018
  endloop
endfacet
facet normal 3.554165482224106e-05 -0.9999999993683956 0.0
  outer loop
    vertex -69.76212512762396 6.849411010742652 5.937500000000018
    vertex -69.76212512762396 6.849411010742652 0.0
    vertex -68.68882190496792 6.849449157715358 5.937500000000018
  endloop
endfacet
facet normal 0.0 1.0 0.0
  outer loop
    vertex -59.20018207342508 59.01631164550837 5.937500000000018
    vertex -50.322847478698414 59.01631164550837 0.0
    vertex -59.20018207342508 59.01631164550837 0.0
  endloop
endfacet
facet normal 0.0 1.0 0.0
  outer loop
    vertex -50.322847478698414 59.01631164550837 0.0
    vertex -59.20018207342508 59.01631164550837 5.937500000000018
    vertex -50.322847478698414 59.01631164550837 5.937500000000018
  endloop
endfacet
facet normal 0.0 -1.0 0.0
  outer loop
    vertex -70.79342853338576 9.054534912110002 5.937500000000018
    vertex -72.45598804266345 9.054534912110002 0.0
    vertex -70.79342853338576 9.054534912110002 0.0
  endloop
endfacet
facet normal 0.0 -1.0 0.0
  outer loop
    vertex -70.79342853338576 7.9105834960943495 5.937500000000018
    vertex -70.79342853338576 7.9105834960943495 0.0
    vertex -69.76212512762396 7.9105834960943495 5.937500000000018
  endloop
endfacet
facet normal -1.0 0.0 0.0
  outer loop
    vertex -74.01028644354199 36.01422119140684 5.937500000000018
    vertex -74.01028644354199 11.22673797607481 0.0
    vertex -74.01028644354199 11.22673797607481 5.937500000000018
  endloop
endfacet
facet normal 0.0 1.0 0.0
  outer loop
    vertex -73.0484105280148 38.42388916015694 5.937500000000018
    vertex -67.5071431329951 38.42388916015694 0.0
    vertex -73.0484105280148 38.42388916015694 0.0
  endloop
endfacet
facet normal 0.0 1.0 0.0
  outer loop
    vertex -67.5071431329951 38.42388916015694 0.0
    vertex -73.0484105280148 38.42388916015694 5.937500000000018
    vertex -67.5071431329951 38.42388916015694 5.937500000000018
  endloop
endfacet
facet normal 0.0 1.0 0.0
  outer loop
    vertex -66.46283160955765 13.456161499024256 5.937500000000018
    vertex -60.25349628240942 13.456161499024256 0.0
    vertex -66.46283160955765 13.456161499024256 0.0
  endloop
endfacet
facet normal 0.0 1.0 0.0
  outer loop
    vertex -60.25349628240942 13.456161499024256 0.0
    vertex -66.46283160955765 13.456161499024256 5.937500000000018
    vertex -60.25349628240942 13.456161499024256 5.937500000000018
  endloop
endfacet
facet normal -1.0 0.0 0.0
  outer loop
    vertex -74.01028644354199 36.01422119140684 0.0
    vertex -74.01028644354199 11.22673797607481 0.0
    vertex -74.01028644354199 36.01422119140684 5.937500000000018
  endloop
endfacet
facet normal 0.0 -1.0 0.0
  outer loop
    vertex -74.01028644354199 11.22673797607481 5.937500000000018
    vertex -74.01028644354199 11.22673797607481 0.0
    vertex -72.45598804266345 11.22673797607481 5.937500000000018
  endloop
endfacet
facet normal 0.0 -1.0 0.0
  outer loop
    vertex -69.76212512762396 7.9105834960943495 5.937500000000018
    vertex -70.79342853338576 7.9105834960943495 0.0
    vertex -69.76212512762396 7.9105834960943495 0.0
  endloop
endfacet
facet normal 0.0 1.0 0.0
  outer loop
    vertex -60.25349628240942 57.66678619384833 5.937500000000018
    vertex -59.20018207342508 57.66678619384833 0.0
    vertex -60.25349628240942 57.66678619384833 0.0
  endloop
endfacet
facet normal -1.0 0.0 0.0
  outer loop
    vertex -59.20018207342508 59.01631164550837 0.0
    vertex -59.20018207342508 57.66678619384833 0.0
    vertex -59.20018207342508 59.01631164550837 5.937500000000018
  endloop
endfacet
facet normal -1.0 0.0 0.0
  outer loop
    vertex -70.79342853338576 9.054534912110002 5.937500000000018
    vertex -70.79342853338576 7.9105834960943495 0.0
    vertex -70.79342853338576 7.9105834960943495 5.937500000000018
  endloop
endfacet
facet normal 1.0 0.0 0.0
  outer loop
    vertex -66.46283160955765 36.01422119140684 0.0
    vertex -66.46283160955765 13.456161499024256 5.937500000000018
    vertex -66.46283160955765 13.456161499024256 0.0
  endloop
endfacet
facet normal 1.0 0.0 0.0
  outer loop
    vertex -66.46283160955765 13.456161499024256 5.937500000000018
    vertex -66.46283160955765 36.01422119140684 0.0
    vertex -66.46283160955765 36.01422119140684 5.937500000000018
  endloop
endfacet
facet normal 0.9999999996004897 2.826695311390502e-05 6.13687307881723e-22
  outer loop
    vertex -50.322847478698414 59.01631164550837 0.0
    vertex -50.3228093317259 57.66678619384833 5.937500000000018
    vertex -50.3228093317259 57.66678619384833 0.0
  endloop
endfacet
facet normal -1.0 0.0 0.0
  outer loop
    vertex -73.0484105280148 38.42388916015694 0.0
    vertex -73.0484105280148 36.01422119140684 0.0
    vertex -73.0484105280148 38.42388916015694 5.937500000000018
  endloop
endfacet
facet normal -1.0 0.0 0.0
  outer loop
    vertex -59.20018207342508 59.01631164550837 5.937500000000018
    vertex -59.20018207342508 57.66678619384833 0.0
    vertex -59.20018207342508 57.66678619384833 5.937500000000018
  endloop
endfacet
facet normal -1.0 0.0 0.0
  outer loop
    vertex -69.76212512762396 7.9105834960943495 0.0
    vertex -69.76212512762396 6.849411010742652 0.0
    vertex -69.76212512762396 7.9105834960943495 5.937500000000018
  endloop
endfacet
facet normal -1.0 0.0 0.0
  outer loop
    vertex -73.0484105280148 38.42388916015694 5.937500000000018
    vertex -73.0484105280148 36.01422119140684 0.0
    vertex -73.0484105280148 36.01422119140684 5.937500000000018
  endloop
endfacet
facet normal -1.0 0.0 0.0
  outer loop
    vertex -72.45598804266345 11.22673797607481 5.937500000000018
    vertex -72.45598804266345 9.054534912110002 0.0
    vertex -72.45598804266345 9.054534912110002 5.937500000000018
  endloop
endfacet
facet normal -1.0 0.0 0.0
  outer loop
    vertex -69.76212512762396 7.9105834960943495 5.937500000000018
    vertex -69.76212512762396 6.849411010742652 0.0
    vertex -69.76212512762396 6.849411010742652 5.937500000000018
  endloop
endfacet
facet normal 0.0 -1.0 0.0
  outer loop
    vertex -72.45598804266345 9.054534912110002 5.937500000000018
    vertex -72.45598804266345 9.054534912110002 0.0
    vertex -70.79342853338576 9.054534912110002 5.937500000000018
  endloop
endfacet
facet normal 0.0 1.0 0.0
  outer loop
    vertex -73.0484105280148 36.01422119140684 5.937500000000018
    vertex -73.0484105280148 36.01422119140684 0.0
    vertex -74.01028644354199 36.01422119140684 5.937500000000018
  endloop
endfacet
facet normal 0.0 -1.0 0.0
  outer loop
    vertex -72.45598804266345 11.22673797607481 5.937500000000018
    vertex -74.01028644354199 11.22673797607481 0.0
    vertex -72.45598804266345 11.22673797607481 0.0
  endloop
endfacet
facet normal -1.0 0.0 0.0
  outer loop
    vertex -70.79342853338576 9.054534912110002 0.0
    vertex -70.79342853338576 7.9105834960943495 0.0
    vertex -70.79342853338576 9.054534912110002 5.937500000000018
  endloop
endfacet
facet normal -1.0 0.0 0.0
  outer loop
    vertex -72.45598804266345 11.22673797607481 0.0
    vertex -72.45598804266345 9.054534912110002 0.0
    vertex -72.45598804266345 11.22673797607481 5.937500000000018
  endloop
endfacet
facet normal 0.0 1.0 0.0
  outer loop
    vertex -74.01028644354199 36.01422119140684 5.937500000000018
    vertex -73.0484105280148 36.01422119140684 0.0
    vertex -74.01028644354199 36.01422119140684 0.0
  endloop
endfacet
facet normal 0.9999999998746929 -1.5830800503466776e-05 -2.422035555060709e-22
  outer loop
    vertex -67.5071431329951 38.42388916015694 0.0
    vertex -67.507181279968 36.01422119140684 5.937500000000018
    vertex -67.507181279968 36.01422119140684 0.0
  endloop
endfacet
facet normal 0.9999999998746929 -1.5830800503466776e-05 -2.422035555060709e-22
  outer loop
    vertex -67.507181279968 36.01422119140684 5.937500000000018
    vertex -67.5071431329951 38.42388916015694 0.0
    vertex -67.5071431329951 38.42388916015694 5.937500000000018
  endloop
endfacet
facet normal 0.0 1.0 0.0
  outer loop
    vertex -67.507181279968 36.01422119140684 5.937500000000018
    vertex -66.46283160955765 36.01422119140684 0.0
    vertex -67.507181279968 36.01422119140684 0.0
  endloop
endfacet
facet normal 0.0 1.0 0.0
  outer loop
    vertex -66.46283160955765 36.01422119140684 5.937500000000018
    vertex -66.46283160955765 36.01422119140684 0.0
    vertex -67.507181279968 36.01422119140684 5.937500000000018
  endloop
endfacet
facet normal 0.0 1.0 0.0
  outer loop
    vertex -59.20018207342508 57.66678619384833 5.937500000000018
    vertex -59.20018207342508 57.66678619384833 0.0
    vertex -60.25349628240942 57.66678619384833 5.937500000000018
  endloop
endfacet
facet normal -1.0 0.0 0.0
  outer loop
    vertex -60.25349628240942 57.66678619384833 5.937500000000018
    vertex -60.25349628240942 13.456161499024256 0.0
    vertex -60.25349628240942 13.456161499024256 5.937500000000018
  endloop
endfacet
facet normal -1.0 0.0 0.0
  outer loop
    vertex -60.25349628240942 13.456161499024256 0.0
    vertex -60.25349628240942 57.66678619384833 5.937500000000018
    vertex -60.25349628240942 57.66678619384833 0.0
  endloop
endfacet
facet normal 0.0 -1.0 0.0
  outer loop
    vertex -39.361925237487334 10.33810424804774 5.937500000000018
    vertex -41.58413898260443 10.33810424804774 0.0
    vertex -39.361925237487334 10.33810424804774 0.0
  endloop
endfacet
facet normal 0.0 -1.0 0.0
  outer loop
    vertex -39.361925237487334 12.29523468017616 5.937500000000018
    vertex -39.361925237487334 12.29523468017616 0.0
    vertex -38.325090520690495 12.29523468017616 5.937500000000018
  endloop
endfacet
facet normal 0.0 -1.0 0.0
  outer loop
    vertex -41.58413898260443 10.33810424804774 5.937500000000018
    vertex -41.58413898260443 10.33810424804774 0.0
    vertex -39.361925237487334 10.33810424804774 5.937500000000018
  endloop
endfacet
facet normal 1.0 0.0 0.0
  outer loop
    vertex -38.325090520690495 14.528282165527715 0.0
    vertex -38.325090520690495 12.29523468017616 5.937500000000018
    vertex -38.325090520690495 12.29523468017616 0.0
  endloop
endfacet
facet normal 1.0 0.0 0.0
  outer loop
    vertex -41.58413898260443 10.33810424804774 0.0
    vertex -41.58413898260443 8.997314453125657 5.937500000000018
    vertex -41.58413898260443 8.997314453125657 0.0
  endloop
endfacet
facet normal 1.0 0.0 0.0
  outer loop
    vertex -41.58413898260443 10.33810424804774 5.937500000000018
    vertex -41.58413898260443 8.997314453125657 5.937500000000018
    vertex -41.58413898260443 10.33810424804774 0.0
  endloop
endfacet
facet normal 0.9999999996004897 2.826695311390502e-05 6.13687307881723e-22
  outer loop
    vertex -50.322847478698414 59.01631164550837 5.937500000000018
    vertex -50.3228093317259 57.66678619384833 5.937500000000018
    vertex -50.322847478698414 59.01631164550837 0.0
  endloop
endfacet
facet normal 0.0 1.0 0.0
  outer loop
    vertex -41.58413898260443 40.32818603515681 5.937500000000018
    vertex -41.58413898260443 40.32818603515681 0.0
    vertex -42.67502795965533 40.32818603515681 5.937500000000018
  endloop
endfacet
facet normal 1.0 0.0 0.0
  outer loop
    vertex -38.2551289728392 41.715248107910654 0.0
    vertex -38.2551289728392 40.3281478881843 5.937500000000018
    vertex -38.2551289728392 40.3281478881843 0.0
  endloop
endfacet
facet normal 1.0 0.0 0.0
  outer loop
    vertex -49.19613849432331 57.66678619384833 0.0
    vertex -49.19613849432331 14.5282440185552 5.937500000000018
    vertex -49.19613849432331 14.5282440185552 0.0
  endloop
endfacet
facet normal 1.0 0.0 0.0
  outer loop
    vertex -49.19613849432331 14.5282440185552 5.937500000000018
    vertex -49.19613849432331 57.66678619384833 0.0
    vertex -49.19613849432331 57.66678619384833 5.937500000000018
  endloop
endfacet
facet normal 0.0 1.0 0.0
  outer loop
    vertex -49.19613849432331 14.5282440185552 5.937500000000018
    vertex -42.67502795965533 14.5282440185552 0.0
    vertex -49.19613849432331 14.5282440185552 0.0
  endloop
endfacet
facet normal 0.0 1.0 0.0
  outer loop
    vertex -42.67502795965533 14.5282440185552 0.0
    vertex -49.19613849432331 14.5282440185552 5.937500000000018
    vertex -42.67502795965533 14.5282440185552 5.937500000000018
  endloop
endfacet
facet normal 1.0 0.0 0.0
  outer loop
    vertex -38.325090520690495 14.528282165527715 5.937500000000018
    vertex -38.325090520690495 12.29523468017616 5.937500000000018
    vertex -38.325090520690495 14.528282165527715 0.0
  endloop
endfacet
facet normal 1.0 0.0 0.0
  outer loop
    vertex -38.2551289728392 41.715248107910654 5.937500000000018
    vertex -38.2551289728392 40.3281478881843 5.937500000000018
    vertex -38.2551289728392 41.715248107910654 0.0
  endloop
endfacet
facet normal -1.0 0.0 0.0
  outer loop
    vertex -41.58413898260443 41.715248107910654 5.937500000000018
    vertex -41.58413898260443 40.32818603515681 0.0
    vertex -41.58413898260443 40.32818603515681 5.937500000000018
  endloop
endfacet
facet normal 0.0 1.0 0.0
  outer loop
    vertex -42.67502795965533 40.32818603515681 5.937500000000018
    vertex -41.58413898260443 40.32818603515681 0.0
    vertex -42.67502795965533 40.32818603515681 0.0
  endloop
endfacet
facet normal -1.0 0.0 0.0
  outer loop
    vertex -41.58413898260443 41.715248107910654 0.0
    vertex -41.58413898260443 40.32818603515681 0.0
    vertex -41.58413898260443 41.715248107910654 5.937500000000018
  endloop
endfacet
facet normal 0.0 1.0 0.0
  outer loop
    vertex -49.19613849432331 57.66678619384833 5.937500000000018
    vertex -49.19613849432331 57.66678619384833 0.0
    vertex -50.3228093317259 57.66678619384833 5.937500000000018
  endloop
endfacet
facet normal 0.0 1.0 0.0
  outer loop
    vertex -41.58413898260443 41.715248107910654 5.937500000000018
    vertex -38.2551289728392 41.715248107910654 0.0
    vertex -41.58413898260443 41.715248107910654 0.0
  endloop
endfacet
facet normal 0.0 1.0 0.0
  outer loop
    vertex -38.2551289728392 41.715248107910654 0.0
    vertex -41.58413898260443 41.715248107910654 5.937500000000018
    vertex -38.2551289728392 41.715248107910654 5.937500000000018
  endloop
endfacet
facet normal -3.0104160358195057e-05 0.9999999995468698 -6.960527971295488e-22
  outer loop
    vertex -36.98796283514365 40.32818603515681 5.937500000000018
    vertex -36.98796283514365 40.32818603515681 0.0
    vertex -38.2551289728392 40.3281478881843 5.937500000000018
  endloop
endfacet
facet normal 1.0 0.0 0.0
  outer loop
    vertex -36.98796283514365 40.32818603515681 5.937500000000018
    vertex -36.98796283514365 14.528282165527715 5.937500000000018
    vertex -36.98796283514365 40.32818603515681 0.0
  endloop
endfacet
facet normal 0.0 -1.0 0.0
  outer loop
    vertex -36.98796283514365 14.528282165527715 5.937500000000018
    vertex -38.325090520690495 14.528282165527715 0.0
    vertex -36.98796283514365 14.528282165527715 0.0
  endloop
endfacet
facet normal 0.0 -1.0 0.0
  outer loop
    vertex -38.325090520690495 14.528282165527715 5.937500000000018
    vertex -38.325090520690495 14.528282165527715 0.0
    vertex -36.98796283514365 14.528282165527715 5.937500000000018
  endloop
endfacet
facet normal 0.0 1.0 0.0
  outer loop
    vertex -50.3228093317259 57.66678619384833 5.937500000000018
    vertex -49.19613849432331 57.66678619384833 0.0
    vertex -50.3228093317259 57.66678619384833 0.0
  endloop
endfacet
facet normal -3.0104160358195057e-05 0.9999999995468698 -6.960527971295488e-22
  outer loop
    vertex -38.2551289728392 40.3281478881843 5.937500000000018
    vertex -36.98796283514365 40.32818603515681 0.0
    vertex -38.2551289728392 40.3281478881843 0.0
  endloop
endfacet
facet normal 1.0 0.0 0.0
  outer loop
    vertex -39.361925237487334 12.29523468017616 0.0
    vertex -39.361925237487334 10.33810424804774 5.937500000000018
    vertex -39.361925237487334 10.33810424804774 0.0
  endloop
endfacet
facet normal 1.0 0.0 0.0
  outer loop
    vertex -39.361925237487334 12.29523468017616 5.937500000000018
    vertex -39.361925237487334 10.33810424804774 5.937500000000018
    vertex -39.361925237487334 12.29523468017616 0.0
  endloop
endfacet
facet normal 0.0 -1.0 0.0
  outer loop
    vertex -38.325090520690495 12.29523468017616 5.937500000000018
    vertex -39.361925237487334 12.29523468017616 0.0
    vertex -38.325090520690495 12.29523468017616 0.0
  endloop
endfacet
facet normal 1.0 0.0 0.0
  outer loop
    vertex -36.98796283514365 40.32818603515681 0.0
    vertex -36.98796283514365 14.528282165527715 5.937500000000018
    vertex -36.98796283514365 14.528282165527715 0.0
  endloop
endfacet
facet normal 0.9999989988549853 -0.00029758309939327787 -0.0013833775067849058
  outer loop
    vertex -49.2125661156209 -18.604385375976186 0.0
    vertex -49.19613849432331 8.997314453125657 5.937500000000018
    vertex -49.19613849432331 -18.604395598034756 5.937500000000018
  endloop
endfacet
facet normal 0.9999989988549853 -0.00029758309939327787 -0.0013833775067849058
  outer loop
    vertex -49.19613849432331 8.997314453125657 5.937500000000018
    vertex -49.2125661156209 -18.604385375976186 0.0
    vertex -49.19613849432331 8.997314453125657 0.0
  endloop
endfacet
facet normal -1.0 0.0 0.0
  outer loop
    vertex -42.67502795965533 40.32818603515681 5.937500000000018
    vertex -42.67502795965533 14.5282440185552 0.0
    vertex -42.67502795965533 14.5282440185552 5.937500000000018
  endloop
endfacet
facet normal -1.0 0.0 0.0
  outer loop
    vertex -42.67502795965533 14.5282440185552 0.0
    vertex -42.67502795965533 40.32818603515681 5.937500000000018
    vertex -42.67502795965533 40.32818603515681 0.0
  endloop
endfacet
facet normal -1.0502157222076225e-08 -7.100691982943312e-09 1.0
  outer loop
    vertex -80.25351936796069 -27.254442917565314 25.000006234146035
    vertex -77.75351911647566 -21.204422395124674 25.000009106768406
    vertex -80.25351985574974 -19.954442917505318 25.000005542802825
  endloop
endfacet
facet normal -1.0502157222076225e-08 -7.100691982943312e-09 1.0
  outer loop
    vertex -77.75351911647566 -21.204422395124674 25.000009106768406
    vertex -80.25351936796069 -27.254442917565314 25.000006234146035
    vertex -77.7535179890128 -26.004442917562418 25.000007124249606
  endloop
endfacet
facet normal -1.0502157222076225e-08 -7.100691982943312e-09 1.0
  outer loop
    vertex -77.75351911647566 -21.204422395124674 25.000009106768406
    vertex -77.7535179890128 -26.004442917562418 25.000007124249606
    vertex -77.75349628240942 -18.604385375976186 25.000007822762967
  endloop
endfacet
facet normal -1.0502157222076225e-08 -7.100691982943312e-09 1.0
  outer loop
    vertex -77.75349628240942 -18.604385375976186 25.000007822762967
    vertex -77.7535179890128 -26.004442917562418 25.000007124249606
    vertex -77.75349628240942 -28.604477009078614 25.000007822762967
  endloop
endfacet
facet normal -1.0502157222076225e-08 -7.100691982943312e-09 1.0
  outer loop
    vertex -77.75349628240942 -18.604385375976186 25.000007822762967
    vertex -77.75349628240942 -28.604477009078614 25.000007822762967
    vertex -31.7125661156209 -28.604477009078614 25.000007822762967
  endloop
endfacet
facet normal -1.0502157222076225e-08 -7.100691982943312e-09 1.0
  outer loop
    vertex -77.75349628240942 -18.604385375976186 25.000007822762967
    vertex -31.7125661156209 -28.604477009078614 25.000007822762967
    vertex -34.21256526232959 -27.354448893079688 25.000007561649653
  endloop
endfacet
facet normal -1.0502157222076225e-08 -7.100691982943312e-09 1.0
  outer loop
    vertex -34.21256526232959 -27.354448893079688 25.000007561649653
    vertex -31.7125661156209 -28.604477009078614 25.000007822762967
    vertex -31.712563813418466 -26.104448893078935 25.00000849973198
  endloop
endfacet
facet normal -1.0502157222076225e-08 -7.100691982943312e-09 1.0
  outer loop
    vertex -77.75349628240942 -18.604385375976186 25.000007822762967
    vertex -34.21256526232959 -19.854448893079706 25.000007835058593
    vertex -31.7125661156209 -18.604385375976186 25.000007822762967
  endloop
endfacet
facet normal -1.0502157222076225e-08 -7.100691982943312e-09 1.0
  outer loop
    vertex -34.21256526232959 -19.854448893079706 25.000007835058593
    vertex -77.75349628240942 -18.604385375976186 25.000007822762967
    vertex -34.21256526232959 -27.354448893079688 25.000007561649653
  endloop
endfacet
facet normal -1.0502157222076225e-08 -7.100691982943312e-09 1.0
  outer loop
    vertex -31.7125661156209 -18.604385375976186 25.000007822762967
    vertex -34.21256526232959 -19.854448893079706 25.000007835058593
    vertex -31.71256671124155 -21.104447444170223 25.00000672631645
  endloop
endfacet
facet normal 0.9999999999999163 -4.0889618052586725e-07 -1.7065795282585497e-08
  outer loop
    vertex -31.7125661156209 -18.604385375976186 0.0
    vertex -31.71256671124155 -21.104447444170223 25.00000672631645
    vertex -31.71256756453244 -21.104449541559294 -8.867077622820573e-07
  endloop
endfacet
facet normal 0.9999999999999163 -4.0889618052586725e-07 -1.7065795282585497e-08
  outer loop
    vertex -31.71256671124155 -21.104447444170223 25.00000672631645
    vertex -31.7125661156209 -18.604385375976186 0.0
    vertex -31.7125661156209 -18.604385375976186 25.000007822762967
  endloop
endfacet
facet normal -0.0 -1.0 -0.0
  outer loop
    vertex -31.7125661156209 -28.604477009078614 25.000007822762967
    vertex -77.75349628240942 -28.604477009078614 0.0
    vertex -31.7125661156209 -28.604477009078614 0.0
  endloop
endfacet
facet normal -0.0 -1.0 -0.0
  outer loop
    vertex -77.75349628240942 -28.604477009078614 0.0
    vertex -31.7125661156209 -28.604477009078614 25.000007822762967
    vertex -77.75349628240942 -28.604477009078614 25.000007822762967
  endloop
endfacet
facet normal -0.9999999999897782 4.49951468455617e-06 -4.454064250523984e-07
  outer loop
    vertex -77.75349628240942 -18.604385375976186 25.000007822762967
    vertex -77.75349684614085 -21.204420931308533 9.912594014060972e-07
    vertex -77.75351911647566 -21.204422395124674 25.000009106768406
  endloop
endfacet
facet normal -0.9999999999897782 4.49951468455617e-06 -4.454064250523984e-07
  outer loop
    vertex -77.75349684614085 -21.204420931308533 9.912594014060972e-07
    vertex -77.75349628240942 -18.604385375976186 25.000007822762967
    vertex -77.75349628240942 -18.604385375976186 0.0
  endloop
endfacet
facet normal -2.9172237586812803e-09 0.9999999999999978 -6.83955572241451e-08
  outer loop
    vertex -77.75349628240942 -18.604385375976186 25.000007822762967
    vertex -60.25349628240942 -18.604385375976186 0.0
    vertex -77.75349628240942 -18.604385375976186 0.0
  endloop
endfacet
facet normal -2.9172237586812803e-09 0.9999999999999978 -6.83955572241451e-08
  outer loop
    vertex -60.25349628240942 -18.604385375976186 0.0
    vertex -77.75349628240942 -18.604385375976186 25.000007822762967
    vertex -60.25349628240942 -18.604395598034756 5.937500000000018
  endloop
endfacet
facet normal -2.9172237586812803e-09 0.9999999999999978 -6.83955572241451e-08
  outer loop
    vertex -60.25349628240942 -18.604395598034756 5.937500000000018
    vertex -77.75349628240942 -18.604385375976186 25.000007822762967
    vertex -49.19613849432331 -18.604395598034756 5.937500000000018
  endloop
endfacet
facet normal -2.9172237586812803e-09 0.9999999999999978 -6.83955572241451e-08
  outer loop
    vertex -49.19613849432331 -18.604395598034756 5.937500000000018
    vertex -31.7125661156209 -18.604385375976186 0.0
    vertex -49.2125661156209 -18.604385375976186 0.0
  endloop
endfacet
facet normal -2.9172237586812803e-09 0.9999999999999978 -6.83955572241451e-08
  outer loop
    vertex -31.7125661156209 -18.604385375976186 0.0
    vertex -49.19613849432331 -18.604395598034756 5.937500000000018
    vertex -31.7125661156209 -18.604385375976186 25.000007822762967
  endloop
endfacet
facet normal -2.9172237586812803e-09 0.9999999999999978 -6.83955572241451e-08
  outer loop
    vertex -31.7125661156209 -18.604385375976186 25.000007822762967
    vertex -49.19613849432331 -18.604395598034756 5.937500000000018
    vertex -77.75349628240942 -18.604385375976186 25.000007822762967
  endloop
endfacet
facet normal -0.4472133881489577 0.894427294675384 -5.977433914900386e-08
  outer loop
    vertex -34.21256526232959 -27.354448893079688 25.000007561649653
    vertex -31.712564666709355 -26.104450990468017 8.867077651020239e-07
    vertex -34.21256611562048 -27.35445099046877 -5.137456109416405e-08
  endloop
endfacet
facet normal -0.4472133881489577 0.894427294675384 -5.977433914900386e-08
  outer loop
    vertex -31.712564666709355 -26.104450990468017 8.867077651020239e-07
    vertex -34.21256526232959 -27.354448893079688 25.000007561649653
    vertex -31.712563813418466 -26.104448893078935 25.00000849973198
  endloop
endfacet
facet normal 0.9999999999999994 1.2442522083457992e-15 -3.4131625266390135e-08
  outer loop
    vertex -34.21256611562048 -19.854450990468777 2.2203438119205998e-07
    vertex -34.21256526232959 -27.354448893079688 25.000007561649653
    vertex -34.21256611562048 -27.35445099046877 -5.137456109416405e-08
  endloop
endfacet
facet normal 0.9999999999999994 1.2442522083457992e-15 -3.4131625266390135e-08
  outer loop
    vertex -34.21256526232959 -27.354448893079688 25.000007561649653
    vertex -34.21256611562048 -19.854450990468777 2.2203438119205998e-07
    vertex -34.21256526232959 -19.854448893079706 25.000007835058593
  endloop
endfacet
facet normal -0.4472133881490759 -0.8944272946753223 9.030257810229086e-08
  outer loop
    vertex -31.71256671124155 -21.104447444170223 25.00000672631645
    vertex -34.21256611562048 -19.854450990468777 2.2203438119205998e-07
    vertex -31.71256756453244 -21.104449541559294 -8.867077622820573e-07
  endloop
endfacet
facet normal -0.4472133881490759 -0.8944272946753223 9.030257810229086e-08
  outer loop
    vertex -34.21256611562048 -19.854450990468777 2.2203438119205998e-07
    vertex -31.71256671124155 -21.104447444170223 25.00000672631645
    vertex -34.21256526232959 -19.854448893079706 25.000007835058593
  endloop
endfacet
facet normal 0.9999999999997184 -7.502147382426133e-07 -1.706578096503021e-08
  outer loop
    vertex -31.712564666709355 -26.104450990468017 8.867077651020239e-07
    vertex -31.7125661156209 -28.604477009078614 25.000007822762967
    vertex -31.7125661156209 -28.604477009078614 0.0
  endloop
endfacet
facet normal 0.9999999999997184 -7.502147382426133e-07 -1.706578096503021e-08
  outer loop
    vertex -31.7125661156209 -28.604477009078614 25.000007822762967
    vertex -31.712564666709355 -26.104450990468017 8.867077651020239e-07
    vertex -31.712563813418466 -26.104448893078935 25.00000849973198
  endloop
endfacet
facet normal 0.44721339816177946 -0.8944272896689109 3.460124874023468e-07
  outer loop
    vertex -77.753495718678 -26.004441453746264 -9.912594014060972e-07
    vertex -80.25351936796069 -27.254442917565314 25.000006234146035
    vertex -80.2534970976259 -27.25444145374916 -1.8813629729663717e-06
  endloop
endfacet
facet normal 0.44721339816177946 -0.8944272896689109 3.460124874023468e-07
  outer loop
    vertex -80.25351936796069 -27.254442917565314 25.000006234146035
    vertex -77.753495718678 -26.004441453746264 -9.912594014060972e-07
    vertex -77.7535179890128 -26.004442917562418 25.000007124249606
  endloop
endfacet
facet normal -0.999999999999601 -6.682050203130993e-08 -8.908131072656319e-07
  outer loop
    vertex -80.25351985574974 -19.954442917505318 25.000005542802825
    vertex -80.2534970976259 -27.25444145374916 -1.8813629729663717e-06
    vertex -80.25351936796069 -27.254442917565314 25.000006234146035
  endloop
endfacet
facet normal -0.999999999999601 -6.682050203130993e-08 -8.908131072656319e-07
  outer loop
    vertex -80.2534970976259 -27.25444145374916 -1.8813629729663717e-06
    vertex -80.25351985574974 -19.954442917505318 25.000005542802825
    vertex -80.25349758541493 -19.954441453689178 -2.572706181425133e-06
  endloop
endfacet
facet normal 0.4472076158268007 0.8944301808113956 4.507496403663344e-07
  outer loop
    vertex -80.25351985574974 -19.954442917505318 25.000005542802825
    vertex -77.75349684614085 -21.204420931308533 9.912594014060972e-07
    vertex -80.25349758541493 -19.954441453689178 -2.572706181425133e-06
  endloop
endfacet
facet normal 0.4472076158268007 0.8944301808113956 4.507496403663344e-07
  outer loop
    vertex -77.75349684614085 -21.204420931308533 9.912594014060972e-07
    vertex -80.25351985574974 -19.954442917505318 25.000005542802825
    vertex -77.75351911647566 -21.204422395124674 25.000009106768406
  endloop
endfacet
facet normal -0.9999999999916351 -4.065881397921299e-06 -4.454066758164502e-07
  outer loop
    vertex -77.7535179890128 -26.004442917562418 25.000007124249606
    vertex -77.75349628240942 -28.604477009078614 0.0
    vertex -77.75349628240942 -28.604477009078614 25.000007822762967
  endloop
endfacet
facet normal -0.9999999999916351 -4.065881397921299e-06 -4.454066758164502e-07
  outer loop
    vertex -77.75349628240942 -28.604477009078614 0.0
    vertex -77.7535179890128 -26.004442917562418 25.000007124249606
    vertex -77.753495718678 -26.004441453746264 -9.912594014060972e-07
  endloop
endfacet
endsolid Google Offline Trex
