solid Google Offline Trex
facet normal -1.0 0.0 0.0
  outer loop
    vertex 19.923115539551375 -4.322158813476118 5.937500000000018
    vertex 19.923115539551375 -6.494361877440977 0.0
    vertex 19.923115539551375 -6.494361877440977 5.937500000000018
  endloop
endfacet
facet normal 0.0 1.0 0.0
  outer loop
    vertex 24.871960449219813 22.874954223633427 5.937500000000018
    vertex 24.871960449219813 22.874954223633427 0.0
    vertex 19.330693054200054 22.874954223633427 5.937500000000018
  endloop
endfacet
facet normal -0.9999999993538726 3.5947947342623604e-05 -8.130687745369134e-22
  outer loop
    vertex 22.61697845459067 -7.638313293456782 5.937500000000018
    vertex 22.616940307617973 -8.69948577880815 0.0
    vertex 22.616940307617973 -8.69948577880815 5.937500000000018
  endloop
endfacet
facet normal 0.0 1.0 0.0
  outer loop
    vertex 24.871960449219813 20.465324401855934 5.937500000000018
    vertex 25.916310119629845 20.465324401855934 0.0
    vertex 24.871960449219813 20.465324401855934 0.0
  endloop
endfacet
facet normal -1.0 0.0 0.0
  outer loop
    vertex 31.82943420410217 -9.757682800292717 5.937500000000018
    vertex 31.82943420410217 -18.6044235229487 0.0
    vertex 31.82943420410217 -18.6044235229487 5.937500000000018
  endloop
endfacet
facet normal -1.0 0.0 0.0
  outer loop
    vertex 31.82943420410217 -9.757682800292717 0.0
    vertex 31.82943420410217 -18.6044235229487 0.0
    vertex 31.82943420410217 -9.757682800292717 5.937500000000018
  endloop
endfacet
facet normal -1.0 0.0 0.0
  outer loop
    vertex 21.58567504882884 -6.494361877440977 0.0
    vertex 21.58567504882884 -7.638313293456782 0.0
    vertex 21.58567504882884 -6.494361877440977 5.937500000000018
  endloop
endfacet
facet normal -1.0 0.0 0.0
  outer loop
    vertex 18.36881713867277 20.465324401855934 0.0
    vertex 18.36881713867277 -4.322158813476118 0.0
    vertex 18.36881713867277 20.465324401855934 5.937500000000018
  endloop
endfacet
facet normal 0.0 -1.0 0.0
  outer loop
    vertex 19.923115539551375 -4.322158813476118 5.937500000000018
    vertex 18.36881713867277 -4.322158813476118 0.0
    vertex 19.923115539551375 -4.322158813476118 0.0
  endloop
endfacet
facet normal -1.0 0.0 0.0
  outer loop
    vertex 19.923115539551375 -4.322158813476118 0.0
    vertex 19.923115539551375 -6.494361877440977 0.0
    vertex 19.923115539551375 -4.322158813476118 5.937500000000018
  endloop
endfacet
facet normal -1.0 0.0 0.0
  outer loop
    vertex 18.36881713867277 20.465324401855934 5.937500000000018
    vertex 18.36881713867277 -4.322158813476118 0.0
    vertex 18.36881713867277 -4.322158813476118 5.937500000000018
  endloop
endfacet
facet normal 0.0 -1.0 0.0
  outer loop
    vertex 31.82943420410217 -9.757682800292717 5.937500000000018
    vertex 23.69031982421946 -9.757682800292717 0.0
    vertex 31.82943420410217 -9.757682800292717 0.0
  endloop
endfacet
facet normal 1.0 0.0 0.0
  outer loop
    vertex 24.871960449219813 22.874954223633427 0.0
    vertex 24.871960449219813 20.465324401855934 5.937500000000018
    vertex 24.871960449219813 20.465324401855934 0.0
  endloop
endfacet
facet normal 0.0 -1.0 0.0
  outer loop
    vertex 21.58567504882884 -7.638313293456782 5.937500000000018
    vertex 21.58567504882884 -7.638313293456782 0.0
    vertex 22.61697845459067 -7.638313293456782 5.937500000000018
  endloop
endfacet
facet normal 0.0 -1.0 0.0
  outer loop
    vertex 22.616940307617973 -8.69948577880815 5.937500000000018
    vertex 22.616940307617973 -8.69948577880815 0.0
    vertex 23.69031982421946 -8.69948577880815 5.937500000000018
  endloop
endfacet
facet normal 0.0 1.0 0.0
  outer loop
    vertex 18.36881713867277 20.465324401855934 5.937500000000018
    vertex 19.330693054200054 20.465324401855934 0.0
    vertex 18.36881713867277 20.465324401855934 0.0
  endloop
endfacet
facet normal 0.0 1.0 0.0
  outer loop
    vertex 19.330693054200054 20.465324401855934 5.937500000000018
    vertex 19.330693054200054 20.465324401855934 0.0
    vertex 18.36881713867277 20.465324401855934 5.937500000000018
  endloop
endfacet
facet normal 0.0 -1.0 0.0
  outer loop
    vertex 23.69031982421946 -9.757682800292717 5.937500000000018
    vertex 23.69031982421946 -9.757682800292717 0.0
    vertex 31.82943420410217 -9.757682800292717 5.937500000000018
  endloop
endfacet
facet normal 1.0 0.0 0.0
  outer loop
    vertex 24.871960449219813 22.874954223633427 5.937500000000018
    vertex 24.871960449219813 20.465324401855934 5.937500000000018
    vertex 24.871960449219813 22.874954223633427 0.0
  endloop
endfacet
facet normal 0.0 -1.0 0.0
  outer loop
    vertex 23.69031982421946 -8.69948577880815 5.937500000000018
    vertex 22.616940307617973 -8.69948577880815 0.0
    vertex 23.69031982421946 -8.69948577880815 0.0
  endloop
endfacet
facet normal -0.9999999993538726 3.5947947342623604e-05 -8.130687745369134e-22
  outer loop
    vertex 22.61697845459067 -7.638313293456782 0.0
    vertex 22.616940307617973 -8.69948577880815 0.0
    vertex 22.61697845459067 -7.638313293456782 5.937500000000018
  endloop
endfacet
facet normal 0.0 -1.0 0.0
  outer loop
    vertex 18.36881713867277 -4.322158813476118 5.937500000000018
    vertex 18.36881713867277 -4.322158813476118 0.0
    vertex 19.923115539551375 -4.322158813476118 5.937500000000018
  endloop
endfacet
facet normal -1.0 0.0 0.0
  outer loop
    vertex 19.330693054200054 22.874954223633427 0.0
    vertex 19.330693054200054 20.465324401855934 0.0
    vertex 19.330693054200054 22.874954223633427 5.937500000000018
  endloop
endfacet
facet normal -1.0 0.0 0.0
  outer loop
    vertex 23.69031982421946 -8.69948577880815 5.937500000000018
    vertex 23.69031982421946 -9.757682800292717 0.0
    vertex 23.69031982421946 -9.757682800292717 5.937500000000018
  endloop
endfacet
facet normal 0.0 -1.0 0.0
  outer loop
    vertex 22.61697845459067 -7.638313293456782 5.937500000000018
    vertex 21.58567504882884 -7.638313293456782 0.0
    vertex 22.61697845459067 -7.638313293456782 0.0
  endloop
endfacet
facet normal -1.0 0.0 0.0
  outer loop
    vertex 23.69031982421946 -8.69948577880815 0.0
    vertex 23.69031982421946 -9.757682800292717 0.0
    vertex 23.69031982421946 -8.69948577880815 5.937500000000018
  endloop
endfacet
facet normal -1.0 0.0 0.0
  outer loop
    vertex 21.58567504882884 -6.494361877440977 5.937500000000018
    vertex 21.58567504882884 -7.638313293456782 0.0
    vertex 21.58567504882884 -7.638313293456782 5.937500000000018
  endloop
endfacet
facet normal 0.0 -1.0 0.0
  outer loop
    vertex 21.58567504882884 -6.494361877440977 5.937500000000018
    vertex 19.923115539551375 -6.494361877440977 0.0
    vertex 21.58567504882884 -6.494361877440977 0.0
  endloop
endfacet
facet normal 0.0 -1.0 0.0
  outer loop
    vertex 19.923115539551375 -6.494361877440977 5.937500000000018
    vertex 19.923115539551375 -6.494361877440977 0.0
    vertex 21.58567504882884 -6.494361877440977 5.937500000000018
  endloop
endfacet
facet normal -1.0 0.0 0.0
  outer loop
    vertex 19.330693054200054 22.874954223633427 5.937500000000018
    vertex 19.330693054200054 20.465324401855934 0.0
    vertex 19.330693054200054 20.465324401855934 5.937500000000018
  endloop
endfacet
facet normal 0.0 1.0 0.0
  outer loop
    vertex 19.330693054200054 22.874954223633427 5.937500000000018
    vertex 24.871960449219813 22.874954223633427 0.0
    vertex 19.330693054200054 22.874954223633427 0.0
  endloop
endfacet
facet normal 0.0 0.0 1.0
  outer loop
    vertex 21.58567504882884 -6.494361877440977 5.937500000000018
    vertex 19.923115539551375 -4.322158813476118 5.937500000000018
    vertex 19.923115539551375 -6.494361877440977 5.937500000000018
  endloop
endfacet
facet normal 0.0 0.0 1.0
  outer loop
    vertex 22.61697845459067 -7.638313293456782 5.937500000000018
    vertex 21.58567504882884 -6.494361877440977 5.937500000000018
    vertex 21.58567504882884 -7.638313293456782 5.937500000000018
  endloop
endfacet
facet normal 1.0 0.0 0.0
  outer loop
    vertex 53.82780151367284 36.30341339111399 0.0
    vertex 53.82780151367284 34.91635131835987 5.937500000000018
    vertex 53.82780151367284 34.91635131835987 0.0
  endloop
endfacet
facet normal 1.0 0.0 0.0
  outer loop
    vertex 42.886791992188144 58.79528808593793 5.937500000000018
    vertex 42.886791992188144 9.116447448730966 5.937500000000018
    vertex 42.886791992188144 58.79528808593793 0.0
  endloop
endfacet
facet normal 1.0 0.0 0.0
  outer loop
    vertex 42.886791992188144 58.79528808593793 0.0
    vertex 42.886791992188144 9.116447448730966 5.937500000000018
    vertex 42.886791992188144 9.116447448730966 0.0
  endloop
endfacet
facet normal -1.0 0.0 0.0
  outer loop
    vertex 50.498753356934465 36.30341339111399 5.937500000000018
    vertex 50.498753356934465 34.91635131835987 0.0
    vertex 50.498753356934465 34.91635131835987 5.937500000000018
  endloop
endfacet
facet normal -1.7430643586275177e-31 4.881291771662447e-32 1.0
  outer loop
    vertex 31.82943420410217 -9.757682800292717 5.937500000000018
    vertex 23.69031982421946 -8.69948577880815 5.937500000000018
    vertex 23.69031982421946 -9.757682800292717 5.937500000000018
  endloop
endfacet
facet normal -1.7430643586275177e-31 4.881291771662447e-32 1.0
  outer loop
    vertex 23.69031982421946 -8.69948577880815 5.937500000000018
    vertex 31.82943420410217 -9.757682800292717 5.937500000000018
    vertex 25.916310119629845 -2.0927352905269365 5.937500000000018
  endloop
endfacet
facet normal -1.7430643586275177e-31 4.881291771662447e-32 1.0
  outer loop
    vertex 23.69031982421946 -8.69948577880815 5.937500000000018
    vertex 25.916310119629845 -2.0927352905269365 5.937500000000018
    vertex 24.871960449219813 20.465324401855934 5.937500000000018
  endloop
endfacet
facet normal -1.7430643586275177e-31 4.881291771662447e-32 1.0
  outer loop
    vertex 25.916310119629845 -2.0927352905269365 5.937500000000018
    vertex 31.82943420410217 -9.757682800292717 5.937500000000018
    vertex 31.82943420410217 -2.0927352905269365 5.937500000000018
  endloop
endfacet
facet normal -1.7430643586275177e-31 4.881291771662447e-32 1.0
  outer loop
    vertex 55.094967651367895 9.116447448730966 5.937500000000018
    vertex 53.82780151367284 34.91635131835987 5.937500000000018
    vertex 53.75780181884837 9.116447448730966 5.937500000000018
  endloop
endfacet
facet normal -1.7430643586275177e-31 4.881291771662447e-32 1.0
  outer loop
    vertex 53.82780151367284 34.91635131835987 5.937500000000018
    vertex 55.094967651367895 9.116447448730966 5.937500000000018
    vertex 55.094967651367895 34.91635131835987 5.937500000000018
  endloop
endfacet
facet normal -1.7430643586275177e-31 4.881291771662447e-32 1.0
  outer loop
    vertex 50.498753356934465 3.5854797363284336 5.937500000000018
    vertex 42.886791992188144 9.116447448730966 5.937500000000018
    vertex 42.886791992188144 3.5854797363284336 5.937500000000018
  endloop
endfacet
facet normal -1.7430643586275177e-31 4.881291771662447e-32 1.0
  outer loop
    vertex 42.886791992188144 9.116447448730966 5.937500000000018
    vertex 50.498753356934465 3.5854797363284336 5.937500000000018
    vertex 49.40786437988348 9.116447448730966 5.937500000000018
  endloop
endfacet
facet normal -1.7430643586275177e-31 4.881291771662447e-32 1.0
  outer loop
    vertex 49.40786437988348 9.116447448730966 5.937500000000018
    vertex 50.498753356934465 3.5854797363284336 5.937500000000018
    vertex 49.40786437988348 34.91635131835987 5.937500000000018
  endloop
endfacet
facet normal -1.7430643586275177e-31 4.881291771662447e-32 1.0
  outer loop
    vertex 49.40786437988348 34.91635131835987 5.937500000000018
    vertex 50.498753356934465 3.5854797363284336 5.937500000000018
    vertex 50.498753356934465 34.91635131835987 5.937500000000018
  endloop
endfacet
facet normal -1.7430643586275177e-31 4.881291771662447e-32 1.0
  outer loop
    vertex 50.498753356934465 34.91635131835987 5.937500000000018
    vertex 50.498753356934465 3.5854797363284336 5.937500000000018
    vertex 50.498753356934465 4.926269531250264 5.937500000000018
  endloop
endfacet
facet normal -1.7430643586275177e-31 4.881291771662447e-32 1.0
  outer loop
    vertex 50.498753356934465 34.91635131835987 5.937500000000018
    vertex 50.498753356934465 4.926269531250264 5.937500000000018
    vertex 52.721005249024344 4.926269531250264 5.937500000000018
  endloop
endfacet
facet normal -1.7430643586275177e-31 4.881291771662447e-32 1.0
  outer loop
    vertex 50.498753356934465 34.91635131835987 5.937500000000018
    vertex 52.721005249024344 4.926269531250264 5.937500000000018
    vertex 50.498753356934465 36.30341339111399 5.937500000000018
  endloop
endfacet
facet normal -1.7430643586275177e-31 4.881291771662447e-32 1.0
  outer loop
    vertex 50.498753356934465 36.30341339111399 5.937500000000018
    vertex 52.721005249024344 4.926269531250264 5.937500000000018
    vertex 52.721005249024344 6.883399963379484 5.937500000000018
  endloop
endfacet
facet normal -1.7430643586275177e-31 4.881291771662447e-32 1.0
  outer loop
    vertex 50.498753356934465 36.30341339111399 5.937500000000018
    vertex 52.721005249024344 6.883399963379484 5.937500000000018
    vertex 53.82780151367284 36.30341339111399 5.937500000000018
  endloop
endfacet
facet normal -1.7430643586275177e-31 4.881291771662447e-32 1.0
  outer loop
    vertex 53.82780151367284 36.30341339111399 5.937500000000018
    vertex 52.721005249024344 6.883399963379484 5.937500000000018
    vertex 53.75780181884837 9.116447448730966 5.937500000000018
  endloop
endfacet
facet normal -1.7430643586275177e-31 4.881291771662447e-32 1.0
  outer loop
    vertex 53.75780181884837 9.116447448730966 5.937500000000018
    vertex 52.721005249024344 6.883399963379484 5.937500000000018
    vertex 53.75780181884837 6.883399963379484 5.937500000000018
  endloop
endfacet
facet normal -1.7430643586275177e-31 4.881291771662447e-32 1.0
  outer loop
    vertex 53.82780151367284 36.30341339111399 5.937500000000018
    vertex 53.75780181884837 9.116447448730966 5.937500000000018
    vertex 53.82780151367284 34.91635131835987 5.937500000000018
  endloop
endfacet
facet normal -1.7430643586275177e-31 4.881291771662447e-32 1.0
  outer loop
    vertex 42.886791992188144 -18.604385375976186 5.937500000000018
    vertex 31.82943420410217 -9.757682800292717 5.937500000000018
    vertex 31.82943420410217 -18.6044235229487 5.937500000000018
  endloop
endfacet
facet normal -1.7430643586275177e-31 4.881291771662447e-32 1.0
  outer loop
    vertex 31.82943420410217 -9.757682800292717 5.937500000000018
    vertex 42.886791992188144 -18.604385375976186 5.937500000000018
    vertex 31.82943420410217 -2.0927352905269365 5.937500000000018
  endloop
endfacet
facet normal -1.7430643586275177e-31 4.881291771662447e-32 1.0
  outer loop
    vertex 31.82943420410217 -2.0927352905269365 5.937500000000018
    vertex 42.886791992188144 -18.604385375976186 5.937500000000018
    vertex 31.82943420410217 58.79528808593793 5.937500000000018
  endloop
endfacet
facet normal -1.7430643586275177e-31 4.881291771662447e-32 1.0
  outer loop
    vertex 31.82943420410217 58.79528808593793 5.937500000000018
    vertex 42.886791992188144 -18.604385375976186 5.937500000000018
    vertex 32.8827102661139 58.79528808593793 5.937500000000018
  endloop
endfacet
facet normal -1.7430643586275177e-31 4.881291771662447e-32 1.0
  outer loop
    vertex 32.8827102661139 58.79528808593793 5.937500000000018
    vertex 42.886791992188144 -18.604385375976186 5.937500000000018
    vertex 32.8827102661139 60.144813537598154 5.937500000000018
  endloop
endfacet
facet normal -1.7430643586275177e-31 4.881291771662447e-32 1.0
  outer loop
    vertex 32.8827102661139 60.144813537598154 5.937500000000018
    vertex 42.886791992188144 -18.604385375976186 5.937500000000018
    vertex 41.76008300781345 58.79528808593793 5.937500000000018
  endloop
endfacet
facet normal -1.7430643586275177e-31 4.881291771662447e-32 1.0
  outer loop
    vertex 41.76008300781345 58.79528808593793 5.937500000000018
    vertex 42.886791992188144 -18.604385375976186 5.937500000000018
    vertex 42.886791992188144 58.79528808593793 5.937500000000018
  endloop
endfacet
facet normal -1.7430643586275177e-31 4.881291771662447e-32 1.0
  outer loop
    vertex 42.886791992188144 58.79528808593793 5.937500000000018
    vertex 42.886791992188144 -18.604385375976186 5.937500000000018
    vertex 42.886791992188144 3.5854797363284336 5.937500000000018
  endloop
endfacet
facet normal -1.7430643586275177e-31 4.881291771662447e-32 1.0
  outer loop
    vertex 42.886791992188144 58.79528808593793 5.937500000000018
    vertex 42.886791992188144 3.5854797363284336 5.937500000000018
    vertex 42.886791992188144 9.116447448730966 5.937500000000018
  endloop
endfacet
facet normal -1.7430643586275177e-31 4.881291771662447e-32 1.0
  outer loop
    vertex 41.76008300781345 60.144813537598154 5.937500000000018
    vertex 32.8827102661139 60.144813537598154 5.937500000000018
    vertex 41.76008300781345 58.79528808593793 5.937500000000018
  endloop
endfacet
facet normal -1.7430643586275177e-31 4.881291771662447e-32 1.0
  outer loop
    vertex 25.916310119629845 20.465324401855934 5.937500000000018
    vertex 24.871960449219813 20.465324401855934 5.937500000000018
    vertex 25.916310119629845 -2.0927352905269365 5.937500000000018
  endloop
endfacet
facet normal -1.7430643586275177e-31 4.881291771662447e-32 1.0
  outer loop
    vertex 19.923115539551375 -4.322158813476118 5.937500000000018
    vertex 18.36881713867277 20.465324401855934 5.937500000000018
    vertex 18.36881713867277 -4.322158813476118 5.937500000000018
  endloop
endfacet
facet normal -1.7430643586275177e-31 4.881291771662447e-32 1.0
  outer loop
    vertex 18.36881713867277 20.465324401855934 5.937500000000018
    vertex 19.923115539551375 -4.322158813476118 5.937500000000018
    vertex 19.330693054200054 20.465324401855934 5.937500000000018
  endloop
endfacet
facet normal -1.7430643586275177e-31 4.881291771662447e-32 1.0
  outer loop
    vertex 19.330693054200054 20.465324401855934 5.937500000000018
    vertex 19.923115539551375 -4.322158813476118 5.937500000000018
    vertex 19.330693054200054 22.874954223633427 5.937500000000018
  endloop
endfacet
facet normal -1.7430643586275177e-31 4.881291771662447e-32 1.0
  outer loop
    vertex 19.330693054200054 22.874954223633427 5.937500000000018
    vertex 19.923115539551375 -4.322158813476118 5.937500000000018
    vertex 24.871960449219813 22.874954223633427 5.937500000000018
  endloop
endfacet
facet normal -1.7430643586275177e-31 4.881291771662447e-32 1.0
  outer loop
    vertex 24.871960449219813 22.874954223633427 5.937500000000018
    vertex 19.923115539551375 -4.322158813476118 5.937500000000018
    vertex 21.58567504882884 -6.494361877440977 5.937500000000018
  endloop
endfacet
facet normal -1.7430643586275177e-31 4.881291771662447e-32 1.0
  outer loop
    vertex 24.871960449219813 22.874954223633427 5.937500000000018
    vertex 21.58567504882884 -6.494361877440977 5.937500000000018
    vertex 22.61697845459067 -7.638313293456782 5.937500000000018
  endloop
endfacet
facet normal -1.7430643586275177e-31 4.881291771662447e-32 1.0
  outer loop
    vertex 24.871960449219813 22.874954223633427 5.937500000000018
    vertex 22.61697845459067 -7.638313293456782 5.937500000000018
    vertex 23.69031982421946 -8.69948577880815 5.937500000000018
  endloop
endfacet
facet normal -1.7430643586275177e-31 4.881291771662447e-32 1.0
  outer loop
    vertex 24.871960449219813 22.874954223633427 5.937500000000018
    vertex 23.69031982421946 -8.69948577880815 5.937500000000018
    vertex 24.871960449219813 20.465324401855934 5.937500000000018
  endloop
endfacet
facet normal 0.0 1.0 0.0
  outer loop
    vertex 49.40786437988348 34.91635131835987 5.937500000000018
    vertex 50.498753356934465 34.91635131835987 0.0
    vertex 49.40786437988348 34.91635131835987 0.0
  endloop
endfacet
facet normal 0.0 1.0 0.0
  outer loop
    vertex 42.886791992188144 9.116447448730966 5.937500000000018
    vertex 49.40786437988348 9.116447448730966 0.0
    vertex 42.886791992188144 9.116447448730966 0.0
  endloop
endfacet
facet normal 0.0 1.0 0.0
  outer loop
    vertex 49.40786437988348 9.116447448730966 0.0
    vertex 42.886791992188144 9.116447448730966 5.937500000000018
    vertex 49.40786437988348 9.116447448730966 5.937500000000018
  endloop
endfacet
facet normal -1.0 0.0 0.0
  outer loop
    vertex 49.40786437988348 34.91635131835987 5.937500000000018
    vertex 49.40786437988348 9.116447448730966 0.0
    vertex 49.40786437988348 9.116447448730966 5.937500000000018
  endloop
endfacet
facet normal -1.0 0.0 0.0
  outer loop
    vertex 49.40786437988348 9.116447448730966 0.0
    vertex 49.40786437988348 34.91635131835987 5.937500000000018
    vertex 49.40786437988348 34.91635131835987 0.0
  endloop
endfacet
facet normal 0.0 0.0 1.0
  outer loop
    vertex 23.69031982421946 -8.69948577880815 5.937500000000018
    vertex 22.61697845459067 -7.638313293456782 5.937500000000018
    vertex 22.616940307617973 -8.69948577880815 5.937500000000018
  endloop
endfacet
facet normal -1.0 0.0 0.0
  outer loop
    vertex 50.498753356934465 36.30341339111399 0.0
    vertex 50.498753356934465 34.91635131835987 0.0
    vertex 50.498753356934465 36.30341339111399 5.937500000000018
  endloop
endfacet
facet normal 0.0 1.0 0.0
  outer loop
    vertex 50.498753356934465 34.91635131835987 5.937500000000018
    vertex 50.498753356934465 34.91635131835987 0.0
    vertex 49.40786437988348 34.91635131835987 5.937500000000018
  endloop
endfacet
facet normal 0.0 1.0 0.0
  outer loop
    vertex 50.498753356934465 36.30341339111399 5.937500000000018
    vertex 53.82780151367284 36.30341339111399 0.0
    vertex 50.498753356934465 36.30341339111399 0.0
  endloop
endfacet
facet normal 0.0 1.0 0.0
  outer loop
    vertex 53.82780151367284 36.30341339111399 5.937500000000018
    vertex 53.82780151367284 36.30341339111399 0.0
    vertex 50.498753356934465 36.30341339111399 5.937500000000018
  endloop
endfacet
facet normal 0.0 -1.0 0.0
  outer loop
    vertex 53.75780181884837 9.116447448730966 5.937500000000018
    vertex 53.75780181884837 9.116447448730966 0.0
    vertex 55.094967651367895 9.116447448730966 5.937500000000018
  endloop
endfacet
facet normal 0.0 1.0 0.0
  outer loop
    vertex 55.094967651367895 34.91635131835987 5.937500000000018
    vertex 55.094967651367895 34.91635131835987 0.0
    vertex 53.82780151367284 34.91635131835987 5.937500000000018
  endloop
endfacet
facet normal 0.0 -1.0 0.0
  outer loop
    vertex 50.498753356934465 4.926269531250264 5.937500000000018
    vertex 50.498753356934465 4.926269531250264 0.0
    vertex 52.721005249024344 4.926269531250264 5.937500000000018
  endloop
endfacet
facet normal 1.0 0.0 0.0
  outer loop
    vertex 50.498753356934465 4.926269531250264 0.0
    vertex 50.498753356934465 3.5854797363284336 5.937500000000018
    vertex 50.498753356934465 3.5854797363284336 0.0
  endloop
endfacet
facet normal 1.0 0.0 0.0
  outer loop
    vertex 55.094967651367895 34.91635131835987 5.937500000000018
    vertex 55.094967651367895 9.116447448730966 5.937500000000018
    vertex 55.094967651367895 34.91635131835987 0.0
  endloop
endfacet
facet normal 0.0 -1.0 0.0
  outer loop
    vertex 55.094967651367895 9.116447448730966 5.937500000000018
    vertex 53.75780181884837 9.116447448730966 0.0
    vertex 55.094967651367895 9.116447448730966 0.0
  endloop
endfacet
facet normal 1.0 0.0 0.0
  outer loop
    vertex 55.094967651367895 34.91635131835987 0.0
    vertex 55.094967651367895 9.116447448730966 5.937500000000018
    vertex 55.094967651367895 9.116447448730966 0.0
  endloop
endfacet
facet normal 1.0 0.0 0.0
  outer loop
    vertex 50.498753356934465 4.926269531250264 5.937500000000018
    vertex 50.498753356934465 3.5854797363284336 5.937500000000018
    vertex 50.498753356934465 4.926269531250264 0.0
  endloop
endfacet
facet normal 0.0 -1.0 0.0
  outer loop
    vertex 50.498753356934465 3.5854797363284336 5.937500000000018
    vertex 42.886791992188144 3.5854797363284336 0.0
    vertex 50.498753356934465 3.5854797363284336 0.0
  endloop
endfacet
facet normal 1.0 0.0 0.0
  outer loop
    vertex 53.82780151367284 36.30341339111399 5.937500000000018
    vertex 53.82780151367284 34.91635131835987 5.937500000000018
    vertex 53.82780151367284 36.30341339111399 0.0
  endloop
endfacet
facet normal 0.0 -1.0 0.0
  outer loop
    vertex 52.721005249024344 4.926269531250264 5.937500000000018
    vertex 50.498753356934465 4.926269531250264 0.0
    vertex 52.721005249024344 4.926269531250264 0.0
  endloop
endfacet
facet normal 0.0 -1.0 0.0
  outer loop
    vertex 42.886791992188144 3.5854797363284336 5.937500000000018
    vertex 42.886791992188144 3.5854797363284336 0.0
    vertex 50.498753356934465 3.5854797363284336 5.937500000000018
  endloop
endfacet
facet normal 1.0 0.0 0.0
  outer loop
    vertex 42.886791992188144 3.5854797363284336 0.0
    vertex 42.886791992188144 -18.604385375976186 5.937500000000018
    vertex 42.886791992188144 -18.604385375976186 0.0
  endloop
endfacet
facet normal 1.0 0.0 0.0
  outer loop
    vertex 42.886791992188144 -18.604385375976186 5.937500000000018
    vertex 42.886791992188144 3.5854797363284336 0.0
    vertex 42.886791992188144 3.5854797363284336 5.937500000000018
  endloop
endfacet
facet normal 1.0 0.0 0.0
  outer loop
    vertex 52.721005249024344 6.883399963379484 0.0
    vertex 52.721005249024344 4.926269531250264 5.937500000000018
    vertex 52.721005249024344 4.926269531250264 0.0
  endloop
endfacet
facet normal 0.0 -1.0 0.0
  outer loop
    vertex 53.75780181884837 6.883399963379484 5.937500000000018
    vertex 52.721005249024344 6.883399963379484 0.0
    vertex 53.75780181884837 6.883399963379484 0.0
  endloop
endfacet
facet normal 1.0 0.0 0.0
  outer loop
    vertex 53.75780181884837 9.116447448730966 0.0
    vertex 53.75780181884837 6.883399963379484 5.937500000000018
    vertex 53.75780181884837 6.883399963379484 0.0
  endloop
endfacet
facet normal 0.0 -1.0 0.0
  outer loop
    vertex 52.721005249024344 6.883399963379484 5.937500000000018
    vertex 52.721005249024344 6.883399963379484 0.0
    vertex 53.75780181884837 6.883399963379484 5.937500000000018
  endloop
endfacet
facet normal 0.0 1.0 0.0
  outer loop
    vertex 53.82780151367284 34.91635131835987 5.937500000000018
    vertex 55.094967651367895 34.91635131835987 0.0
    vertex 53.82780151367284 34.91635131835987 0.0
  endloop
endfacet
facet normal 1.0 0.0 0.0
  outer loop
    vertex 52.721005249024344 6.883399963379484 5.937500000000018
    vertex 52.721005249024344 4.926269531250264 5.937500000000018
    vertex 52.721005249024344 6.883399963379484 0.0
  endloop
endfacet
facet normal 1.0 0.0 0.0
  outer loop
    vertex 53.75780181884837 9.116447448730966 5.937500000000018
    vertex 53.75780181884837 6.883399963379484 5.937500000000018
    vertex 53.75780181884837 9.116447448730966 0.0
  endloop
endfacet
facet normal 0.0 1.0 0.0
  outer loop
    vertex 25.916310119629845 -2.0927352905269365 5.937500000000018
    vertex 31.82943420410217 -2.0927352905269365 0.0
    vertex 25.916310119629845 -2.0927352905269365 0.0
  endloop
endfacet
facet normal 0.0 1.0 0.0
  outer loop
    vertex 41.76008300781345 58.79528808593793 5.937500000000018
    vertex 42.886791992188144 58.79528808593793 0.0
    vertex 41.76008300781345 58.79528808593793 0.0
  endloop
endfacet
facet normal 1.0 0.0 0.0
  outer loop
    vertex 25.916310119629845 20.465324401855934 0.0
    vertex 25.916310119629845 -2.0927352905269365 5.937500000000018
    vertex 25.916310119629845 -2.0927352905269365 0.0
  endloop
endfacet
facet normal 1.0 0.0 0.0
  outer loop
    vertex 25.916310119629845 20.465324401855934 5.937500000000018
    vertex 25.916310119629845 -2.0927352905269365 5.937500000000018
    vertex 25.916310119629845 20.465324401855934 0.0
  endloop
endfacet
facet normal 0.0 1.0 0.0
  outer loop
    vertex 32.8827102661139 60.144813537598154 5.937500000000018
    vertex 41.76008300781345 60.144813537598154 0.0
    vertex 32.8827102661139 60.144813537598154 0.0
  endloop
endfacet
facet normal 1.0 0.0 0.0
  outer loop
    vertex 41.76008300781345 60.144813537598154 5.937500000000018
    vertex 41.76008300781345 58.79528808593793 5.937500000000018
    vertex 41.76008300781345 60.144813537598154 0.0
  endloop
endfacet
facet normal 0.0 1.0 0.0
  outer loop
    vertex 31.82943420410217 58.79528808593793 5.937500000000018
    vertex 32.8827102661139 58.79528808593793 0.0
    vertex 31.82943420410217 58.79528808593793 0.0
  endloop
endfacet
facet normal 1.0 0.0 0.0
  outer loop
    vertex 41.76008300781345 60.144813537598154 0.0
    vertex 41.76008300781345 58.79528808593793 5.937500000000018
    vertex 41.76008300781345 58.79528808593793 0.0
  endloop
endfacet
facet normal 0.0 1.0 0.0
  outer loop
    vertex 42.886791992188144 58.79528808593793 5.937500000000018
    vertex 42.886791992188144 58.79528808593793 0.0
    vertex 41.76008300781345 58.79528808593793 5.937500000000018
  endloop
endfacet
facet normal 0.0 1.0 0.0
  outer loop
    vertex 41.76008300781345 60.144813537598154 5.937500000000018
    vertex 41.76008300781345 60.144813537598154 0.0
    vertex 32.8827102661139 60.144813537598154 5.937500000000018
  endloop
endfacet
facet normal 0.0 1.0 0.0
  outer loop
    vertex 25.916310119629845 20.465324401855934 5.937500000000018
    vertex 25.916310119629845 20.465324401855934 0.0
    vertex 24.871960449219813 20.465324401855934 5.937500000000018
  endloop
endfacet
facet normal -1.0 0.0 0.0
  outer loop
    vertex 31.82943420410217 58.79528808593793 5.937500000000018
    vertex 31.82943420410217 -2.0927352905269365 0.0
    vertex 31.82943420410217 -2.0927352905269365 5.937500000000018
  endloop
endfacet
facet normal 0.0 1.0 0.0
  outer loop
    vertex 32.8827102661139 58.79528808593793 5.937500000000018
    vertex 32.8827102661139 58.79528808593793 0.0
    vertex 31.82943420410217 58.79528808593793 5.937500000000018
  endloop
endfacet
facet normal -1.0 0.0 0.0
  outer loop
    vertex 31.82943420410217 58.79528808593793 0.0
    vertex 31.82943420410217 -2.0927352905269365 0.0
    vertex 31.82943420410217 58.79528808593793 5.937500000000018
  endloop
endfacet
facet normal -1.0 0.0 0.0
  outer loop
    vertex 32.8827102661139 60.144813537598154 5.937500000000018
    vertex 32.8827102661139 58.79528808593793 0.0
    vertex 32.8827102661139 58.79528808593793 5.937500000000018
  endloop
endfacet
facet normal 0.0 1.0 0.0
  outer loop
    vertex 31.82943420410217 -2.0927352905269365 5.937500000000018
    vertex 31.82943420410217 -2.0927352905269365 0.0
    vertex 25.916310119629845 -2.0927352905269365 5.937500000000018
  endloop
endfacet
facet normal -1.0 0.0 0.0
  outer loop
    vertex 32.8827102661139 60.144813537598154 0.0
    vertex 32.8827102661139 58.79528808593793 0.0
    vertex 32.8827102661139 60.144813537598154 5.937500000000018
  endloop
endfacet
facet normal -5.795644354528594e-07 0.9999999999995262 -7.822750960386254e-07
  outer loop
    vertex 14.32943420410218 -18.604385375976186 25.000000000000004
    vertex 31.82943420410217 -18.6044235229487 0.0
    vertex 14.32943420410218 -18.6044235229487 0.0
  endloop
endfacet
facet normal -5.795644354528594e-07 0.9999999999995262 -7.822750960386254e-07
  outer loop
    vertex 31.82943420410217 -18.6044235229487 0.0
    vertex 14.32943420410218 -18.604385375976186 25.000000000000004
    vertex 31.82943420410217 -18.6044235229487 5.937500000000018
  endloop
endfacet
facet normal -5.795644354528594e-07 0.9999999999995262 -7.822750960386254e-07
  outer loop
    vertex 31.82943420410217 -18.6044235229487 5.937500000000018
    vertex 14.32943420410218 -18.604385375976186 25.000000000000004
    vertex 42.886791992188144 -18.604385375976186 5.937500000000018
  endloop
endfacet
facet normal -5.795644354528594e-07 0.9999999999995262 -7.822750960386254e-07
  outer loop
    vertex 42.886791992188144 -18.604385375976186 5.937500000000018
    vertex 60.38679199218814 -18.604385375976186 0.0
    vertex 42.886791992188144 -18.604385375976186 0.0
  endloop
endfacet
facet normal -5.795644354528594e-07 0.9999999999995262 -7.822750960386254e-07
  outer loop
    vertex 60.38679199218814 -18.604385375976186 0.0
    vertex 42.886791992188144 -18.604385375976186 5.937500000000018
    vertex 60.38679199218814 -18.604385375976186 25.000000000000004
  endloop
endfacet
facet normal -5.795644354528594e-07 0.9999999999995262 -7.822750960386254e-07
  outer loop
    vertex 60.38679199218814 -18.604385375976186 25.000000000000004
    vertex 42.886791992188144 -18.604385375976186 5.937500000000018
    vertex 14.32943420410218 -18.604385375976186 25.000000000000004
  endloop
endfacet
facet normal 4.991616384782885e-07 -0.9999999999995846 7.629394502825121e-07
  outer loop
    vertex 60.386797787841374 -28.604400715133586 25.000007822762964
    vertex 14.329439999755426 -28.6044388621061 7.822762960296714e-06
    vertex 60.386797787841374 -28.604400715133586 7.822762960296714e-06
  endloop
endfacet
facet normal 4.991616384782885e-07 -0.9999999999995846 7.629394502825121e-07
  outer loop
    vertex 14.329439999755426 -28.6044388621061 7.822762960296714e-06
    vertex 60.386797787841374 -28.604400715133586 25.000007822762964
    vertex 14.329439999755426 -28.604400715133586 25.000007822762964
  endloop
endfacet
facet normal -0.9999999999998321 -5.795593594358371e-07 3.593946832790526e-13
  outer loop
    vertex 14.32943571096778 -21.204427459321064 25.000006451775192
    vertex 14.32943420410218 -18.6044235229487 0.0
    vertex 14.329435710973662 -21.20443046807275 5.423712539820435e-06
  endloop
endfacet
facet normal -0.9999999999998321 -5.795593594358371e-07 3.593946832790526e-13
  outer loop
    vertex 14.32943420410218 -18.6044235229487 0.0
    vertex 14.32943571096778 -21.204427459321064 25.000006451775192
    vertex 14.32943420410218 -18.604385375976186 25.000000000000004
  endloop
endfacet
facet normal 0.999999999999921 3.9763974542595093e-07 1.8192525750373578e-08
  outer loop
    vertex 60.38679199218814 -18.604385375976186 0.0
    vertex 60.38679253147546 -21.1043888677776 25.000001250728076
    vertex 60.38679344110283 -21.104391596645407 2.933537042815182e-06
  endloop
endfacet
facet normal 0.999999999999921 3.9763974542595093e-07 1.8192525750373578e-08
  outer loop
    vertex 60.38679253147546 -21.1043888677776 25.000001250728076
    vertex 60.38679199218814 -18.604385375976186 0.0
    vertex 60.38679199218814 -18.604385375976186 25.000000000000004
  endloop
endfacet
facet normal 2.994496562382002e-08 4.571084664456663e-07 0.9999999999998952
  outer loop
    vertex 11.82943545948277 -27.254447981761615 25.000003684549267
    vertex 14.32943571096778 -21.204427459321064 25.000006451775192
    vertex 11.829434971693722 -19.954447981701637 25.000002831716706
  endloop
endfacet
facet normal 2.994496562382002e-08 4.571084664456663e-07 0.9999999999998952
  outer loop
    vertex 14.32943571096778 -21.204427459321064 25.000006451775192
    vertex 11.82943545948277 -27.254447981761615 25.000003684549267
    vertex 14.329436838430647 -26.00444798175874 25.00000457544163
  endloop
endfacet
facet normal 2.994496562382002e-08 4.571084664456663e-07 0.9999999999998952
  outer loop
    vertex 60.386797787841374 -28.604400715133586 25.000007822762964
    vertex 57.88679398038738 -27.35439031668708 25.000002228572512
    vertex 14.329439999755426 -28.604400715133586 25.000007822762964
  endloop
endfacet
facet normal 2.994496562382002e-08 4.571084664456663e-07 0.9999999999998952
  outer loop
    vertex 57.88679398038738 -27.35439031668708 25.000002228572512
    vertex 60.386797787841374 -28.604400715133586 25.000007822762964
    vertex 60.38679542929847 -26.104390316686324 25.00000320641638
  endloop
endfacet
facet normal 2.994496562382002e-08 4.571084664456663e-07 0.9999999999998952
  outer loop
    vertex 14.32943571096778 -21.204427459321064 25.000006451775192
    vertex 60.38679199218814 -18.604385375976186 25.000000000000004
    vertex 14.32943420410218 -18.604385375976186 25.000000000000004
  endloop
endfacet
facet normal 2.994496562382002e-08 4.571084664456663e-07 0.9999999999998952
  outer loop
    vertex 60.38679199218814 -18.604385375976186 25.000000000000004
    vertex 14.32943571096778 -21.204427459321064 25.000006451775192
    vertex 14.329436838430647 -26.00444798175874 25.00000457544163
  endloop
endfacet
facet normal 2.994496562382002e-08 4.571084664456663e-07 0.9999999999998952
  outer loop
    vertex 60.38679199218814 -18.604385375976186 25.000000000000004
    vertex 14.329436838430647 -26.00444798175874 25.00000457544163
    vertex 14.329439999755426 -28.604400715133586 25.000007822762964
  endloop
endfacet
facet normal 2.994496562382002e-08 4.571084664456663e-07 0.9999999999998952
  outer loop
    vertex 60.38679199218814 -18.604385375976186 25.000000000000004
    vertex 14.329439999755426 -28.604400715133586 25.000007822762964
    vertex 57.88679398038738 -19.854390316687084 25.000002228572512
  endloop
endfacet
facet normal 2.994496562382002e-08 4.571084664456663e-07 0.9999999999998952
  outer loop
    vertex 57.88679398038738 -19.854390316687084 25.000002228572512
    vertex 14.329439999755426 -28.604400715133586 25.000007822762964
    vertex 57.88679398038738 -27.35439031668708 25.000002228572512
  endloop
endfacet
facet normal 2.994496562382002e-08 4.571084664456663e-07 0.9999999999998952
  outer loop
    vertex 60.38679199218814 -18.604385375976186 25.000000000000004
    vertex 57.88679398038738 -19.854390316687084 25.000002228572512
    vertex 60.38679253147546 -21.1043888677776 25.000001250728076
  endloop
endfacet
facet normal 1.513743613595145e-08 -3.988532891629453e-08 -0.9999999999999991
  outer loop
    vertex 32.8827102661139 58.79528808593793 0.0
    vertex 31.82943420410217 -2.0927352905269365 0.0
    vertex 31.82943420410217 58.79528808593793 0.0
  endloop
endfacet
facet normal 1.513743613595145e-08 -3.988532891629453e-08 -0.9999999999999991
  outer loop
    vertex 31.82943420410217 -2.0927352905269365 0.0
    vertex 32.8827102661139 58.79528808593793 0.0
    vertex 31.82943420410217 -9.757682800292717 0.0
  endloop
endfacet
facet normal 1.513743613595145e-08 -3.988532891629453e-08 -0.9999999999999991
  outer loop
    vertex 31.82943420410217 -9.757682800292717 0.0
    vertex 32.8827102661139 58.79528808593793 0.0
    vertex 31.82943420410217 -18.6044235229487 0.0
  endloop
endfacet
facet normal 1.513743613595145e-08 -3.988532891629453e-08 -0.9999999999999991
  outer loop
    vertex 41.76008300781345 60.144813537598154 0.0
    vertex 32.8827102661139 58.79528808593793 0.0
    vertex 32.8827102661139 60.144813537598154 0.0
  endloop
endfacet
facet normal 1.513743613595145e-08 -3.988532891629453e-08 -0.9999999999999991
  outer loop
    vertex 50.498753356934465 34.91635131835987 0.0
    vertex 49.40786437988348 9.116447448730966 0.0
    vertex 49.40786437988348 34.91635131835987 0.0
  endloop
endfacet
facet normal 1.513743613595145e-08 -3.988532891629453e-08 -0.9999999999999991
  outer loop
    vertex 49.40786437988348 9.116447448730966 0.0
    vertex 42.886791992188144 3.5854797363284336 0.0
    vertex 42.886791992188144 9.116447448730966 0.0
  endloop
endfacet
facet normal 1.513743613595145e-08 -3.988532891629453e-08 -0.9999999999999991
  outer loop
    vertex 42.886791992188144 3.5854797363284336 0.0
    vertex 49.40786437988348 9.116447448730966 0.0
    vertex 50.498753356934465 3.5854797363284336 0.0
  endloop
endfacet
facet normal 1.513743613595145e-08 -3.988532891629453e-08 -0.9999999999999991
  outer loop
    vertex 50.498753356934465 3.5854797363284336 0.0
    vertex 49.40786437988348 9.116447448730966 0.0
    vertex 50.498753356934465 34.91635131835987 0.0
  endloop
endfacet
facet normal 1.513743613595145e-08 -3.988532891629453e-08 -0.9999999999999991
  outer loop
    vertex 50.498753356934465 3.5854797363284336 0.0
    vertex 50.498753356934465 34.91635131835987 0.0
    vertex 50.498753356934465 4.926269531250264 0.0
  endloop
endfacet
facet normal 1.513743613595145e-08 -3.988532891629453e-08 -0.9999999999999991
  outer loop
    vertex 60.38679199218814 -18.604385375976186 0.0
    vertex 57.886794890014755 -19.85439304555489 3.911381480148357e-06
    vertex 42.886791992188144 -18.604385375976186 0.0
  endloop
endfacet
facet normal 1.513743613595145e-08 -3.988532891629453e-08 -0.9999999999999991
  outer loop
    vertex 57.886794890014755 -19.85439304555489 3.911381480148357e-06
    vertex 60.38679199218814 -18.604385375976186 0.0
    vertex 60.38679344110283 -21.104391596645407 2.933537042815182e-06
  endloop
endfacet
facet normal 1.513743613595145e-08 -3.988532891629453e-08 -0.9999999999999991
  outer loop
    vertex 31.82943420410217 -18.6044235229487 0.0
    vertex 14.329435710973662 -21.20443046807275 5.423712539820435e-06
    vertex 14.32943420410218 -18.6044235229487 0.0
  endloop
endfacet
facet normal 1.513743613595145e-08 -3.988532891629453e-08 -0.9999999999999991
  outer loop
    vertex 14.329435710973662 -21.20443046807275 5.423712539820435e-06
    vertex 31.82943420410217 -18.6044235229487 0.0
    vertex 14.329436838436528 -26.004450990510442 3.547378977075688e-06
  endloop
endfacet
facet normal 1.513743613595145e-08 -3.988532891629453e-08 -0.9999999999999991
  outer loop
    vertex 14.329436838436528 -26.004450990510442 3.547378977075688e-06
    vertex 31.82943420410217 -18.6044235229487 0.0
    vertex 14.329439999755426 -28.6044388621061 7.822762960296714e-06
  endloop
endfacet
facet normal 1.513743613595145e-08 -3.988532891629453e-08 -0.9999999999999991
  outer loop
    vertex 14.329439999755426 -28.6044388621061 7.822762960296714e-06
    vertex 31.82943420410217 -18.6044235229487 0.0
    vertex 60.386797787841374 -28.604400715133586 7.822762960296714e-06
  endloop
endfacet
facet normal 1.513743613595145e-08 -3.988532891629453e-08 -0.9999999999999991
  outer loop
    vertex 60.386797787841374 -28.604400715133586 7.822762960296714e-06
    vertex 31.82943420410217 -18.6044235229487 0.0
    vertex 57.886794890014755 -27.354393045554886 3.911381480148357e-06
  endloop
endfacet
facet normal 1.513743613595145e-08 -3.988532891629453e-08 -0.9999999999999991
  outer loop
    vertex 57.886794890014755 -27.354393045554886 3.911381480148357e-06
    vertex 31.82943420410217 -18.6044235229487 0.0
    vertex 42.886791992188144 -18.604385375976186 0.0
  endloop
endfacet
facet normal 1.513743613595145e-08 -3.988532891629453e-08 -0.9999999999999991
  outer loop
    vertex 42.886791992188144 -18.604385375976186 0.0
    vertex 31.82943420410217 -18.6044235229487 0.0
    vertex 32.8827102661139 58.79528808593793 0.0
  endloop
endfacet
facet normal 1.513743613595145e-08 -3.988532891629453e-08 -0.9999999999999991
  outer loop
    vertex 42.886791992188144 -18.604385375976186 0.0
    vertex 32.8827102661139 58.79528808593793 0.0
    vertex 41.76008300781345 58.79528808593793 0.0
  endloop
endfacet
facet normal 1.513743613595145e-08 -3.988532891629453e-08 -0.9999999999999991
  outer loop
    vertex 41.76008300781345 58.79528808593793 0.0
    vertex 32.8827102661139 58.79528808593793 0.0
    vertex 41.76008300781345 60.144813537598154 0.0
  endloop
endfacet
facet normal 1.513743613595145e-08 -3.988532891629453e-08 -0.9999999999999991
  outer loop
    vertex 42.886791992188144 -18.604385375976186 0.0
    vertex 41.76008300781345 58.79528808593793 0.0
    vertex 42.886791992188144 58.79528808593793 0.0
  endloop
endfacet
facet normal 1.513743613595145e-08 -3.988532891629453e-08 -0.9999999999999991
  outer loop
    vertex 42.886791992188144 -18.604385375976186 0.0
    vertex 42.886791992188144 58.79528808593793 0.0
    vertex 42.886791992188144 9.116447448730966 0.0
  endloop
endfacet
facet normal 1.513743613595145e-08 -3.988532891629453e-08 -0.9999999999999991
  outer loop
    vertex 42.886791992188144 -18.604385375976186 0.0
    vertex 42.886791992188144 9.116447448730966 0.0
    vertex 42.886791992188144 3.5854797363284336 0.0
  endloop
endfacet
facet normal 1.513743613595145e-08 -3.988532891629453e-08 -0.9999999999999991
  outer loop
    vertex 57.886794890014755 -27.354393045554886 3.911381480148357e-06
    vertex 42.886791992188144 -18.604385375976186 0.0
    vertex 57.886794890014755 -19.85439304555489 3.911381480148357e-06
  endloop
endfacet
facet normal 1.513743613595145e-08 -3.988532891629453e-08 -0.9999999999999991
  outer loop
    vertex 60.386797787841374 -28.604400715133586 7.822762960296714e-06
    vertex 57.886794890014755 -27.354393045554886 3.911381480148357e-06
    vertex 60.38679633892585 -26.104393045554126 4.889225350668269e-06
  endloop
endfacet
facet normal 1.513743613595145e-08 -3.988532891629453e-08 -0.9999999999999991
  outer loop
    vertex 24.871960449219813 22.874954223633427 0.0
    vertex 19.330693054200054 20.465324401855934 0.0
    vertex 19.330693054200054 22.874954223633427 0.0
  endloop
endfacet
facet normal 1.513743613595145e-08 -3.988532891629453e-08 -0.9999999999999991
  outer loop
    vertex 19.330693054200054 20.465324401855934 0.0
    vertex 24.871960449219813 22.874954223633427 0.0
    vertex 19.923115539551375 -4.322158813476118 0.0
  endloop
endfacet
facet normal 1.513743613595145e-08 -3.988532891629453e-08 -0.9999999999999991
  outer loop
    vertex 19.923115539551375 -4.322158813476118 0.0
    vertex 24.871960449219813 22.874954223633427 0.0
    vertex 19.923115539551375 -6.494361877440977 0.0
  endloop
endfacet
facet normal 1.513743613595145e-08 -3.988532891629453e-08 -0.9999999999999991
  outer loop
    vertex 19.923115539551375 -6.494361877440977 0.0
    vertex 24.871960449219813 22.874954223633427 0.0
    vertex 21.58567504882884 -6.494361877440977 0.0
  endloop
endfacet
facet normal 1.513743613595145e-08 -3.988532891629453e-08 -0.9999999999999991
  outer loop
    vertex 21.58567504882884 -6.494361877440977 0.0
    vertex 24.871960449219813 22.874954223633427 0.0
    vertex 21.58567504882884 -7.638313293456782 0.0
  endloop
endfacet
facet normal 1.513743613595145e-08 -3.988532891629453e-08 -0.9999999999999991
  outer loop
    vertex 21.58567504882884 -7.638313293456782 0.0
    vertex 24.871960449219813 22.874954223633427 0.0
    vertex 22.61697845459067 -7.638313293456782 0.0
  endloop
endfacet
facet normal 1.513743613595145e-08 -3.988532891629453e-08 -0.9999999999999991
  outer loop
    vertex 22.61697845459067 -7.638313293456782 0.0
    vertex 24.871960449219813 22.874954223633427 0.0
    vertex 23.69031982421946 -8.69948577880815 0.0
  endloop
endfacet
facet normal 1.513743613595145e-08 -3.988532891629453e-08 -0.9999999999999991
  outer loop
    vertex 23.69031982421946 -8.69948577880815 0.0
    vertex 24.871960449219813 22.874954223633427 0.0
    vertex 23.69031982421946 -9.757682800292717 0.0
  endloop
endfacet
facet normal 1.513743613595145e-08 -3.988532891629453e-08 -0.9999999999999991
  outer loop
    vertex 23.69031982421946 -9.757682800292717 0.0
    vertex 24.871960449219813 22.874954223633427 0.0
    vertex 24.871960449219813 20.465324401855934 0.0
  endloop
endfacet
facet normal 1.513743613595145e-08 -3.988532891629453e-08 -0.9999999999999991
  outer loop
    vertex 23.69031982421946 -9.757682800292717 0.0
    vertex 24.871960449219813 20.465324401855934 0.0
    vertex 25.916310119629845 -2.0927352905269365 0.0
  endloop
endfacet
facet normal 1.513743613595145e-08 -3.988532891629453e-08 -0.9999999999999991
  outer loop
    vertex 23.69031982421946 -9.757682800292717 0.0
    vertex 25.916310119629845 -2.0927352905269365 0.0
    vertex 31.82943420410217 -9.757682800292717 0.0
  endloop
endfacet
facet normal 1.513743613595145e-08 -3.988532891629453e-08 -0.9999999999999991
  outer loop
    vertex 25.916310119629845 -2.0927352905269365 0.0
    vertex 24.871960449219813 20.465324401855934 0.0
    vertex 25.916310119629845 20.465324401855934 0.0
  endloop
endfacet
facet normal 1.513743613595145e-08 -3.988532891629453e-08 -0.9999999999999991
  outer loop
    vertex 31.82943420410217 -9.757682800292717 0.0
    vertex 25.916310119629845 -2.0927352905269365 0.0
    vertex 31.82943420410217 -2.0927352905269365 0.0
  endloop
endfacet
facet normal 1.513743613595145e-08 -3.988532891629453e-08 -0.9999999999999991
  outer loop
    vertex 23.69031982421946 -8.69948577880815 0.0
    vertex 22.616940307617973 -8.69948577880815 0.0
    vertex 22.61697845459067 -7.638313293456782 0.0
  endloop
endfacet
facet normal 1.513743613595145e-08 -3.988532891629453e-08 -0.9999999999999991
  outer loop
    vertex 19.330693054200054 20.465324401855934 0.0
    vertex 18.36881713867277 -4.322158813476118 0.0
    vertex 18.36881713867277 20.465324401855934 0.0
  endloop
endfacet
facet normal 1.513743613595145e-08 -3.988532891629453e-08 -0.9999999999999991
  outer loop
    vertex 18.36881713867277 -4.322158813476118 0.0
    vertex 19.330693054200054 20.465324401855934 0.0
    vertex 19.923115539551375 -4.322158813476118 0.0
  endloop
endfacet
facet normal 1.513743613595145e-08 -3.988532891629453e-08 -0.9999999999999991
  outer loop
    vertex 14.329435710973662 -21.20443046807275 5.423712539820435e-06
    vertex 11.829435459488655 -27.254450990513316 2.656486615770781e-06
    vertex 11.829434971699607 -19.954450990453324 1.803654056176107e-06
  endloop
endfacet
facet normal 1.513743613595145e-08 -3.988532891629453e-08 -0.9999999999999991
  outer loop
    vertex 11.829435459488655 -27.254450990513316 2.656486615770781e-06
    vertex 14.329435710973662 -21.20443046807275 5.423712539820435e-06
    vertex 14.329436838436528 -26.004450990510442 3.547378977075688e-06
  endloop
endfacet
facet normal 1.513743613595145e-08 -3.988532891629453e-08 -0.9999999999999991
  outer loop
    vertex 53.82780151367284 36.30341339111399 0.0
    vertex 50.498753356934465 34.91635131835987 0.0
    vertex 50.498753356934465 36.30341339111399 0.0
  endloop
endfacet
facet normal 1.513743613595145e-08 -3.988532891629453e-08 -0.9999999999999991
  outer loop
    vertex 50.498753356934465 34.91635131835987 0.0
    vertex 53.82780151367284 36.30341339111399 0.0
    vertex 50.498753356934465 4.926269531250264 0.0
  endloop
endfacet
facet normal 1.513743613595145e-08 -3.988532891629453e-08 -0.9999999999999991
  outer loop
    vertex 50.498753356934465 4.926269531250264 0.0
    vertex 53.82780151367284 36.30341339111399 0.0
    vertex 52.721005249024344 6.883399963379484 0.0
  endloop
endfacet
facet normal 1.513743613595145e-08 -3.988532891629453e-08 -0.9999999999999991
  outer loop
    vertex 52.721005249024344 6.883399963379484 0.0
    vertex 53.82780151367284 36.30341339111399 0.0
    vertex 53.75780181884837 9.116447448730966 0.0
  endloop
endfacet
facet normal 1.513743613595145e-08 -3.988532891629453e-08 -0.9999999999999991
  outer loop
    vertex 53.75780181884837 9.116447448730966 0.0
    vertex 53.82780151367284 36.30341339111399 0.0
    vertex 53.82780151367284 34.91635131835987 0.0
  endloop
endfacet
facet normal 1.513743613595145e-08 -3.988532891629453e-08 -0.9999999999999991
  outer loop
    vertex 53.75780181884837 9.116447448730966 0.0
    vertex 53.82780151367284 34.91635131835987 0.0
    vertex 55.094967651367895 9.116447448730966 0.0
  endloop
endfacet
facet normal 1.513743613595145e-08 -3.988532891629453e-08 -0.9999999999999991
  outer loop
    vertex 55.094967651367895 9.116447448730966 0.0
    vertex 53.82780151367284 34.91635131835987 0.0
    vertex 55.094967651367895 34.91635131835987 0.0
  endloop
endfacet
facet normal 1.513743613595145e-08 -3.988532891629453e-08 -0.9999999999999991
  outer loop
    vertex 53.75780181884837 6.883399963379484 0.0
    vertex 52.721005249024344 6.883399963379484 0.0
    vertex 53.75780181884837 9.116447448730966 0.0
  endloop
endfacet
facet normal 1.513743613595145e-08 -3.988532891629453e-08 -0.9999999999999991
  outer loop
    vertex 52.721005249024344 4.926269531250264 0.0
    vertex 50.498753356934465 4.926269531250264 0.0
    vertex 52.721005249024344 6.883399963379484 0.0
  endloop
endfacet
facet normal -0.4472133881489444 0.8944272946753854 -1.1390286312838034e-07
  outer loop
    vertex 57.88679398038738 -27.35439031668708 25.000002228572512
    vertex 60.38679633892585 -26.104393045554126 4.889225350668269e-06
    vertex 57.886794890014755 -27.354393045554886 3.911381480148357e-06
  endloop
endfacet
facet normal -0.4472133881489444 0.8944272946753854 -1.1390286312838034e-07
  outer loop
    vertex 60.38679633892585 -26.104393045554126 4.889225350668269e-06
    vertex 57.88679398038738 -27.35439031668708 25.000002228572512
    vertex 60.38679542929847 -26.104390316686324 25.00000320641638
  endloop
endfacet
facet normal 0.9999999999999994 0.0 3.6385097162743185e-08
  outer loop
    vertex 57.886794890014755 -19.85439304555489 3.911381480148357e-06
    vertex 57.88679398038738 -27.35439031668708 25.000002228572512
    vertex 57.886794890014755 -27.354393045554886 3.911381480148357e-06
  endloop
endfacet
facet normal 0.9999999999999994 0.0 3.6385097162743185e-08
  outer loop
    vertex 57.88679398038738 -27.35439031668708 25.000002228572512
    vertex 57.886794890014755 -19.85439304555489 3.911381480148357e-06
    vertex 57.88679398038738 -19.854390316687084 25.000002228572512
  endloop
endfacet
facet normal -0.447213388149078 -0.8944272946753221 8.135905779457926e-08
  outer loop
    vertex 60.38679253147546 -21.1043888677776 25.000001250728076
    vertex 57.886794890014755 -19.85439304555489 3.911381480148357e-06
    vertex 60.38679344110283 -21.104391596645407 2.933537042815182e-06
  endloop
endfacet
facet normal -0.447213388149078 -0.8944272946753221 8.135905779457926e-08
  outer loop
    vertex 57.886794890014755 -19.85439304555489 3.911381480148357e-06
    vertex 60.38679253147546 -21.1043888677776 25.000001250728076
    vertex 57.88679398038738 -19.854390316687084 25.000002228572512
  endloop
endfacet
facet normal 0.99999999999971 7.614890612972431e-07 1.8192505892436743e-08
  outer loop
    vertex 60.38679633892585 -26.104393045554126 4.889225350668269e-06
    vertex 60.386797787841374 -28.604400715133586 25.000007822762964
    vertex 60.386797787841374 -28.604400715133586 7.822762960296714e-06
  endloop
endfacet
facet normal 0.99999999999971 7.614890612972431e-07 1.8192505892436743e-08
  outer loop
    vertex 60.386797787841374 -28.604400715133586 25.000007822762964
    vertex 60.38679633892585 -26.104393045554126 4.889225350668269e-06
    vertex 60.38679542929847 -26.104390316686324 25.00000320641638
  endloop
endfacet
facet normal 0.4472133981618676 -0.8944272896689275 1.0764448593195989e-07
  outer loop
    vertex 14.329436838436528 -26.004450990510442 3.547378977075688e-06
    vertex 11.82943545948277 -27.254447981761615 25.000003684549267
    vertex 11.829435459488655 -27.254450990513316 2.656486615770781e-06
  endloop
endfacet
facet normal 0.4472133981618676 -0.8944272896689275 1.0764448593195989e-07
  outer loop
    vertex 11.82943545948277 -27.254447981761615 25.000003684549267
    vertex 14.329436838436528 -26.004450990510442 3.547378977075688e-06
    vertex 14.329436838430647 -26.00444798175874 25.00000457544163
  endloop
endfacet
facet normal -0.9999999999999979 -6.682041747416091e-08 -2.2734856731807285e-13
  outer loop
    vertex 11.82943545948277 -27.254447981761615 25.000003684549267
    vertex 11.829434971699607 -19.954450990453324 1.803654056176107e-06
    vertex 11.829435459488655 -27.254450990513316 2.656486615770781e-06
  endloop
endfacet
facet normal -0.9999999999999979 -6.682041747416091e-08 -2.2734856731807285e-13
  outer loop
    vertex 11.829434971699607 -19.954450990453324 1.803654056176107e-06
    vertex 11.82943545948277 -27.254447981761615 25.000003684549267
    vertex 11.829434971693722 -19.954447981701637 25.000002831716706
  endloop
endfacet
facet normal 0.447207615827508 0.894430180811149 -1.0764462297532343e-07
  outer loop
    vertex 11.829434971693722 -19.954447981701637 25.000002831716706
    vertex 14.329435710973662 -21.20443046807275 5.423712539820435e-06
    vertex 11.829434971699607 -19.954450990453324 1.803654056176107e-06
  endloop
endfacet
facet normal 0.447207615827508 0.894430180811149 -1.0764462297532343e-07
  outer loop
    vertex 14.329435710973662 -21.20443046807275 5.423712539820435e-06
    vertex 11.829434971693722 -19.954447981701637 25.000002831716706
    vertex 14.32943571096778 -21.204427459321064 25.000006451775192
  endloop
endfacet
facet normal -0.9999999999992608 -1.2159069026394137e-06 8.831815432900828e-13
  outer loop
    vertex 14.329439999755426 -28.604400715133586 25.000007822762964
    vertex 14.329436838436528 -26.004450990510442 3.547378977075688e-06
    vertex 14.329439999755426 -28.6044388621061 7.822762960296714e-06
  endloop
endfacet
facet normal -0.9999999999992608 -1.2159069026394137e-06 8.831815432900828e-13
  outer loop
    vertex 14.329436838436528 -26.004450990510442 3.547378977075688e-06
    vertex 14.329439999755426 -28.604400715133586 25.000007822762964
    vertex 14.329436838430647 -26.00444798175874 25.00000457544163
  endloop
endfacet
endsolid Google Offline Trex
