  0
SECTION
  2
HEADER
  9
$ACADVER
  1
AC1009
  9
$DWGCODEPAGE
  3
ansi_1252
  9
$INSBASE
 10
0.0
 20
0.0
 30
0.0
  9
$EXTMIN
 10
0.0
 20
0.0
 30
-0.9
  9
$EXTMAX
 10
270.0001458
 20
208.0786585366
 30
0.0
  9
$LIMMIN
 10
0.0
 20
0.0
  9
$LIMMAX
 10
279.4
 20
215.9
  9
$ORTHOMODE
 70
     0
  9
$REGENMODE
 70
     1
  9
$FILLMODE
 70
     1
  9
$QTEXTMODE
 70
     0
  9
$MIRRTEXT
 70
     1
  9
$DRAGMODE
 70
     2
  9
$LTSCALE
 40
1.0
  9
$OSMODE
 70
   511
  9
$ATTMODE
 70
     1
  9
$TEXTSIZE
 40
6.35
  9
$TRACEWID
 40
1.0
  9
$TEXTSTYLE
  7
STANDARD
  9
$CLAYER
  8
0
  9
$CELTYPE
  6
BYLAYER
  9
$CECOLOR
 62
   256
  9
$DIMSCALE
 40
1.0
  9
$DIMASZ
 40
5.9944
  9
$DIMEXO
 40
0.9906
  9
$DIMDLI
 40
3.75
  9
$DIMRND
 40
0.0
  9
$DIMDLE
 40
0.0
  9
$DIMEXE
 40
0.9906
  9
$DIMTP
 40
0.0
  9
$DIMTM
 40
0.0
  9
$DIMTXT
 40
6.35
  9
$DIMCEN
 40
2.5
  9
$DIMTSZ
 40
0.0
  9
$DIMTOL
 70
     0
  9
$DIMLIM
 70
     0
  9
$DIMTIH
 70
     1
  9
$DIMTOH
 70
     1
  9
$DIMSE1
 70
     0
  9
$DIMSE2
 70
     0
  9
$DIMTAD
 70
     1
  9
$DIMZIN
 70
     0
  9
$DIMBLK
  1

  9
$DIMASO
 70
     1
  9
$DIMSHO
 70
     1
  9
$DIMPOST
  1

  9
$DIMAPOST
  1

  9
$DIMALT
 70
     0
  9
$DIMALTD
 70
     3
  9
$DIMALTF
 40
0.0393700787
  9
$DIMLFAC
 40
1.0
  9
$DIMTOFL
 70
     1
  9
$DIMTVP
 40
0.0
  9
$DIMTIX
 70
     0
  9
$DIMSOXD
 70
     0
  9
$DIMSAH
 70
     0
  9
$DIMBLK1
  1

  9
$DIMBLK2
  1

  9
$DIMSTYLE
  2
ISO-25
  9
$DIMCLRD
 70
     0
  9
$DIMCLRE
 70
     0
  9
$DIMCLRT
 70
     0
  9
$DIMTFAC
 40
1.0
  9
$DIMGAP
 40
1.524
  9
$LUNITS
 70
     2
  9
$LUPREC
 70
     2
  9
$SKETCHINC
 40
1.0
  9
$FILLETRAD
 40
10.0
  9
$AUNITS
 70
     0
  9
$AUPREC
 70
     2
  9
$MENU
  1
.
  9
$ELEVATION
 40
0.0
  9
$PELEVATION
 40
0.0
  9
$THICKNESS
 40
0.0
  9
$LIMCHECK
 70
     0
  9
$CHAMFERA
 40
10.0
  9
$CHAMFERB
 40
10.0
  9
$SKPOLY
 70
     0
  9
$TDCREATE
 40
2456954.797176447
  9
$TDUPDATE
 40
2456954.800583669
  9
$TDINDWG
 40
0.0000000116
  9
$TDUSRTIMER
 40
2456955.006391771
  9
$USRTIMER
 70
     1
  9
$ANGBASE
 50
0.0
  9
$ANGDIR
 70
     0
  9
$PDMODE
 70
     0
  9
$PDSIZE
 40
-1.0
  9
$PLINEWID
 40
0.0
  9
$COORDS
 70
     1
  9
$SPLFRAME
 70
     0
  9
$SPLINETYPE
 70
     6
  9
$SPLINESEGS
 70
     8
  9
$ATTDIA
 70
     0
  9
$ATTREQ
 70
     1
  9
$HANDLING
 70
     1
  9
$HANDSEED
  5
467
  9
$SURFTAB1
 70
     6
  9
$SURFTAB2
 70
     6
  9
$SURFTYPE
 70
     6
  9
$SURFU
 70
     6
  9
$SURFV
 70
     6
  9
$UCSNAME
  2

  9
$UCSORG
 10
0.0
 20
0.0
 30
0.0
  9
$UCSXDIR
 10
1.0
 20
0.0
 30
0.0
  9
$UCSYDIR
 10
0.0
 20
1.0
 30
0.0
  9
$PUCSNAME
  2

  9
$PUCSORG
 10
0.0
 20
0.0
 30
0.0
  9
$PUCSXDIR
 10
1.0
 20
0.0
 30
0.0
  9
$PUCSYDIR
 10
0.0
 20
1.0
 30
0.0
  9
$USERI1
 70
     0
  9
$USERI2
 70
     0
  9
$USERI3
 70
     0
  9
$USERI4
 70
     0
  9
$USERI5
 70
     0
  9
$USERR1
 40
0.0
  9
$USERR2
 40
0.0
  9
$USERR3
 40
0.0
  9
$USERR4
 40
0.0
  9
$USERR5
 40
0.0
  9
$WORLDVIEW
 70
     1
  9
$SHADEDGE
 70
     3
  9
$SHADEDIF
 70
    70
  9
$TILEMODE
 70
     1
  9
$MAXACTVP
 70
    64
  9
$PLIMCHECK
 70
     0
  9
$PEXTMIN
 10
1.000000000000000E+20
 20
1.000000000000000E+20
 30
1.000000000000000E+20
  9
$PEXTMAX
 10
-1.000000000000000E+20
 20
-1.000000000000000E+20
 30
-1.000000000000000E+20
  9
$PLIMMIN
 10
0.0
 20
0.0
  9
$PLIMMAX
 10
0.0
 20
0.0
  9
$UNITMODE
 70
     0
  9
$VISRETAIN
 70
     1
  9
$PLINEGEN
 70
     0
  9
$PSLTSCALE
 70
     1
  0
ENDSEC
  0
SECTION
  2
TABLES
  0
TABLE
  2
VPORT
 70
     1
  0
VPORT
  2
*ACTIVE
 70
     0
 10
0.0
 20
0.0
 11
1.0
 21
1.0
 12
47.20261255208324
 22
30.78057328125004
 13
0.0
 23
0.0
 14
10.0
 24
10.0
 15
10.0
 25
10.0
 16
0.0
 26
0.0
 36
1.0
 17
0.0
 27
0.0
 37
0.0
 40
88.43264000000003
 41
1.987745098039216
 42
50.0
 43
0.0
 44
0.0
 50
0.0
 51
0.0
 71
    16
 72
  2000
 73
     1
 74
     3
 75
     0
 76
     0
 77
     0
 78
     0
  0
ENDTAB
  0
TABLE
  2
LTYPE
 70
     6
  0
LTYPE
  2
CONTINUOUS
 70
     0
  3
Solid line
 72
    65
 73
     0
 40
0.0
  0
ENDTAB
  0
TABLE
  2
LAYER
 70
     3
  0
LAYER
  2
0
 70
     0
 62
     7
  6
CONTINUOUS
  0
ENDTAB
  0
TABLE
  2
STYLE
 70
     1
  0
STYLE
  2
STANDARD
 70
     0
 40
0.0
 41
1.0
 50
0.0
 71
     0
 42
6.35
  3
txt
  4

  0
ENDTAB
  0
TABLE
  2
VIEW
 70
     0
  0
ENDTAB
  0
TABLE
  2
UCS
 70
     0
  0
ENDTAB
  0
TABLE
  2
APPID
 70
     1
  0
APPID
  2
ACAD
 70
     0
  0
ENDTAB
  0
TABLE
  2
DIMSTYLE
 70
     2
  0
DIMSTYLE
  2
ISO-25
 70
     0
  3

  4

  5

  6

  7

 40
1.0
 41
2.5
 42
0.625
 43
3.75
 44
1.25
 45
0.0
 46
0.0
 47
0.0
 48
0.0
140
2.5
141
2.5
142
0.0
143
0.0393700787
144
1.0
145
0.0
146
1.0
147
0.625
 71
     0
 72
     0
 73
     0
 74
     0
 75
     0
 76
     0
 77
     1
 78
     8
170
     0
171
     3
172
     1
173
     0
174
     0
175
     0
176
     0
177
     0
178
     0
  0
ENDTAB
  0
ENDSEC
  0
SECTION
  2
BLOCKS
  0
BLOCK
  8
0
  2
$MODEL_SPACE
 70
     0
 10
0.0
 20
0.0
 30
0.0
  3
$MODEL_SPACE
  1

  0
ENDBLK
  5
21
  8
0
  0
BLOCK
 67
     1
  8
0
  2
$PAPER_SPACE
 70
     0
 10
0.0
 20
0.0
 30
0.0
  3
$PAPER_SPACE
  1

  0
ENDBLK
  5
1D
 67
     1
  8
0
  0
ENDSEC
  0
SECTION
  2
ENTITIES
  0
POLYLINE
  5
9F
  8
0
  6
CONTINUOUS
 62
     7
 66
     1
 10
0.0
 20
0.0
 30
0.0
  0
VERTEX
  5
2CA
  8
0
  6
CONTINUOUS
 62
     7
 10
28.90424335930001
 20
35.7279189628
 30
0.0
  0
VERTEX
  5
2CB
  8
0
  6
CONTINUOUS
 62
     7
 10
28.46615338469999
 20
35.22619830159999
 30
0.0
  0
VERTEX
  5
2CC
  8
0
  6
CONTINUOUS
 62
     7
 10
28.1128955396
 20
34.68020260769998
 30
0.0
  0
VERTEX
  5
2CD
  8
0
  6
CONTINUOUS
 62
     7
 10
27.88129798720001
 20
34.09812066359999
 30
0.0
  0
VERTEX
  5
2CE
  8
0
  6
CONTINUOUS
 62
     7
 10
27.803341757
 20
33.48874602000001
 30
0.0
  0
VERTEX
  5
2CF
  8
0
  6
CONTINUOUS
 62
     7
 10
27.87442995800001
 20
32.8654359902
 30
0.0
  0
VERTEX
  5
2D0
  8
0
  6
CONTINUOUS
 62
     7
 10
28.073271374
 20
32.2436308091
 30
0.0
  0
VERTEX
  5
2D1
  8
0
  6
CONTINUOUS
 62
     7
 10
28.5643094417
 20
31.34754344919999
 30
0.0
  0
VERTEX
  5
2D2
  8
0
  6
CONTINUOUS
 62
     7
 10
29.22258383880001
 20
30.5417299633
 30
0.0
  0
VERTEX
  5
2D3
  8
0
  6
CONTINUOUS
 62
     7
 10
29.98795785999999
 20
29.8703525328
 30
0.0
  0
VERTEX
  5
2D4
  8
0
  6
CONTINUOUS
 62
     7
 10
30.8296927129
 20
29.35802776529999
 30
0.0
  0
VERTEX
  5
2D5
  8
0
  6
CONTINUOUS
 62
     7
 10
31.7214791557
 20
29.026427226
 30
0.0
  0
VERTEX
  5
2D6
  8
0
  6
CONTINUOUS
 62
     7
 10
32.63716911259999
 20
28.8968198123
 30
0.0
  0
VERTEX
  5
2D7
  8
0
  6
CONTINUOUS
 62
     7
 10
33.6752203641
 20
28.9767890079
 30
0.0
  0
VERTEX
  5
2D8
  8
0
  6
CONTINUOUS
 62
     7
 10
34.73699686410001
 20
29.20860425839999
 30
0.0
  0
VERTEX
  5
2D9
  8
0
  6
CONTINUOUS
 62
     7
 10
35.83527440419999
 20
29.49764137359999
 30
0.0
  0
VERTEX
  5
2DA
  8
0
  6
CONTINUOUS
 62
     7
 10
36.69845489490001
 20
29.7473577384
 30
0.0
  0
VERTEX
  5
2DB
  8
0
  6
CONTINUOUS
 62
     7
 10
37.48372537270001
 20
30.07808708959999
 30
0.0
  0
VERTEX
  5
2DC
  8
0
  6
CONTINUOUS
 62
     7
 10
38.11270611
 20
30.55470444849999
 30
0.0
  0
VERTEX
  5
2DD
  8
0
  6
CONTINUOUS
 62
     7
 10
38.4763073284
 20
31.1097376452
 30
0.0
  0
VERTEX
  5
2DE
  8
0
  6
CONTINUOUS
 62
     7
 10
38.6915596609
 20
31.77985509589999
 30
0.0
  0
VERTEX
  5
2DF
  8
0
  6
CONTINUOUS
 62
     7
 10
38.7808254098
 20
32.52643941599999
 30
0.0
  0
VERTEX
  5
2E0
  8
0
  6
CONTINUOUS
 62
     7
 10
38.75470762040001
 20
33.45198227590001
 30
0.0
  0
VERTEX
  5
2E1
  8
0
  6
CONTINUOUS
 62
     7
 10
38.6175824446
 20
34.36737015559999
 30
0.0
  0
VERTEX
  5
2E2
  8
0
  6
CONTINUOUS
 62
     7
 10
38.41084677910001
 20
35.0960373106
 30
0.0
  0
VERTEX
  5
2E3
  8
0
  6
CONTINUOUS
 62
     7
 10
38.10474050880001
 20
35.7413435043
 30
0.0
  0
VERTEX
  5
2E4
  8
0
  6
CONTINUOUS
 62
     7
 10
37.68331063330001
 20
36.26930473759998
 30
0.0
  0
VERTEX
  5
2E5
  8
0
  6
CONTINUOUS
 62
     7
 10
37.13788762090002
 20
36.65585812859999
 30
0.0
  0
VERTEX
  5
2E6
  8
0
  6
CONTINUOUS
 62
     7
 10
36.25792799530001
 20
36.9848045681
 30
0.0
  0
VERTEX
  5
2E7
  8
0
  6
CONTINUOUS
 62
     7
 10
35.2700932482
 20
37.16484766400001
 30
0.0
  0
VERTEX
  5
2E8
  8
0
  6
CONTINUOUS
 62
     7
 10
34.24711686099999
 20
37.2660147977
 30
0.0
  0
VERTEX
  5
2E9
  8
0
  6
CONTINUOUS
 62
     7
 10
33.25398794450001
 20
37.344088228
 30
0.0
  0
VERTEX
  5
2EA
  8
0
  6
CONTINUOUS
 62
     7
 10
32.3020576788
 20
37.35618772499998
 30
0.0
  0
VERTEX
  5
2EB
  8
0
  6
CONTINUOUS
 62
     7
 10
31.38015540090001
 20
37.21821476349999
 30
0.0
  0
VERTEX
  5
2EC
  8
0
  6
CONTINUOUS
 62
     7
 10
30.49023618460001
 20
36.88554828459999
 30
0.0
  0
VERTEX
  5
2ED
  8
0
  6
CONTINUOUS
 62
     7
 10
29.65625342640001
 20
36.3795719769
 30
0.0
  0
VERTEX
  5
2EE
  8
0
  6
CONTINUOUS
 62
     7
 10
28.90424335930001
 20
35.7279189628
 30
0.0
  0
SEQEND
  5
461
  8
0
  6
CONTINUOUS
 62
     7
  0
POLYLINE
  5
A0
  8
0
  6
CONTINUOUS
 62
     7
 66
     1
 10
0.0
 20
0.0
 30
0.0
  0
VERTEX
  5
2EF
  8
0
  6
CONTINUOUS
 62
     7
 10
24.00858292070001
 20
23.38457451539999
 30
0.0
  0
VERTEX
  5
2F0
  8
0
  6
CONTINUOUS
 62
     7
 10
24.4004828278
 20
23.0883087055
 30
0.0
  0
VERTEX
  5
2F1
  8
0
  6
CONTINUOUS
 62
     7
 10
24.90248069329999
 20
22.883040283
 30
0.0
  0
VERTEX
  5
2F2
  8
0
  6
CONTINUOUS
 62
     7
 10
25.4619922537
 20
22.7769099361
 30
0.0
  0
VERTEX
  5
2F3
  8
0
  6
CONTINUOUS
 62
     7
 10
26.0264332456
 20
22.7780583533
 30
0.0
  0
VERTEX
  5
2F4
  8
0
  6
CONTINUOUS
 62
     7
 10
26.5432194055
 20
22.8946262226
 30
0.0
  0
VERTEX
  5
2F5
  8
0
  6
CONTINUOUS
 62
     7
 10
26.95976646990002
 20
23.13475423259999
 30
0.0
  0
VERTEX
  5
2F6
  8
0
  6
CONTINUOUS
 62
     7
 10
27.25835838399999
 20
23.55454112609999
 30
0.0
  0
VERTEX
  5
2F7
  8
0
  6
CONTINUOUS
 62
     7
 10
27.3896009588
 20
24.09847950039999
 30
0.0
  0
VERTEX
  5
2F8
  8
0
  6
CONTINUOUS
 62
     7
 10
27.3845761762
 20
24.72134832969999
 30
0.0
  0
VERTEX
  5
2F9
  8
0
  6
CONTINUOUS
 62
     7
 10
27.27436789410001
 20
25.37792558229999
 30
0.0
  0
VERTEX
  5
2FA
  8
0
  6
CONTINUOUS
 62
     7
 10
26.85948537339999
 20
26.6191615005
 30
0.0
  0
VERTEX
  5
2FB
  8
0
  6
CONTINUOUS
 62
     7
 10
26.3049441979
 20
27.6743925279
 30
0.0
  0
VERTEX
  5
2FC
  8
0
  6
CONTINUOUS
 62
     7
 10
25.67892813400002
 20
28.61735072729999
 30
0.0
  0
VERTEX
  5
2FD
  8
0
  6
CONTINUOUS
 62
     7
 10
25.0450924125
 20
29.53269534009999
 30
0.0
  0
VERTEX
  5
2FE
  8
0
  6
CONTINUOUS
 62
     7
 10
24.46709226440001
 20
30.50508560829999
 30
0.0
  0
VERTEX
  5
2FF
  8
0
  6
CONTINUOUS
 62
     7
 10
24.00858292070001
 20
31.61918077329999
 30
0.0
  0
SEQEND
  5
462
  8
0
  6
CONTINUOUS
 62
     7
  0
POLYLINE
  5
A1
  8
0
  6
CONTINUOUS
 62
     7
 66
     1
 10
0.0
 20
0.0
 30
0.0
  0
VERTEX
  5
300
  8
0
  6
CONTINUOUS
 62
     7
 10
24.00858292070001
 20
31.61918077329999
 30
0.0
  0
VERTEX
  5
301
  8
0
  6
CONTINUOUS
 62
     7
 10
23.55007357700001
 20
30.50508560829999
 30
0.0
  0
VERTEX
  5
302
  8
0
  6
CONTINUOUS
 62
     7
 10
22.97207342890002
 20
29.53269534009999
 30
0.0
  0
VERTEX
  5
303
  8
0
  6
CONTINUOUS
 62
     7
 10
22.3382377074
 20
28.61735072729999
 30
0.0
  0
VERTEX
  5
304
  8
0
  6
CONTINUOUS
 62
     7
 10
21.7122216434
 20
27.6743925279
 30
0.0
  0
VERTEX
  5
305
  8
0
  6
CONTINUOUS
 62
     7
 10
21.157680468
 20
26.6191615005
 30
0.0
  0
VERTEX
  5
306
  8
0
  6
CONTINUOUS
 62
     7
 10
20.74279794730001
 20
25.37792558229999
 30
0.0
  0
VERTEX
  5
307
  8
0
  6
CONTINUOUS
 62
     7
 10
20.63258966520002
 20
24.72134832969999
 30
0.0
  0
VERTEX
  5
308
  8
0
  6
CONTINUOUS
 62
     7
 10
20.62756488260001
 20
24.09847950039999
 30
0.0
  0
VERTEX
  5
309
  8
0
  6
CONTINUOUS
 62
     7
 10
20.7588074574
 20
23.55454112609999
 30
0.0
  0
VERTEX
  5
30A
  8
0
  6
CONTINUOUS
 62
     7
 10
21.0573993715
 20
23.13475423259999
 30
0.0
  0
VERTEX
  5
30B
  8
0
  6
CONTINUOUS
 62
     7
 10
21.47394643589999
 20
22.8946262226
 30
0.0
  0
VERTEX
  5
30C
  8
0
  6
CONTINUOUS
 62
     7
 10
21.99073259580001
 20
22.7780583533
 30
0.0
  0
VERTEX
  5
30D
  8
0
  6
CONTINUOUS
 62
     7
 10
22.55517358770001
 20
22.7769099361
 30
0.0
  0
VERTEX
  5
30E
  8
0
  6
CONTINUOUS
 62
     7
 10
23.11468514809999
 20
22.883040283
 30
0.0
  0
VERTEX
  5
30F
  8
0
  6
CONTINUOUS
 62
     7
 10
23.61668301360001
 20
23.0883087055
 30
0.0
  0
VERTEX
  5
310
  8
0
  6
CONTINUOUS
 62
     7
 10
24.00858292070001
 20
23.38457451539999
 30
0.0
  0
SEQEND
  5
463
  8
0
  6
CONTINUOUS
 62
     7
  0
POLYLINE
  5
A2
  8
0
  6
CONTINUOUS
 62
     7
 66
     1
 10
0.0
 20
0.0
 30
0.0
  0
VERTEX
  5
311
  8
0
  6
CONTINUOUS
 62
     7
 10
19.1129224821
 20
35.7279189628
 30
0.0
  0
VERTEX
  5
312
  8
0
  6
CONTINUOUS
 62
     7
 10
18.19984051920001
 20
36.49330563479998
 30
0.0
  0
VERTEX
  5
313
  8
0
  6
CONTINUOUS
 62
     7
 10
17.1762163162
 20
37.04095951049999
 30
0.0
  0
VERTEX
  5
314
  8
0
  6
CONTINUOUS
 62
     7
 10
16.08688259580001
 20
37.3236042874
 30
0.0
  0
VERTEX
  5
315
  8
0
  6
CONTINUOUS
 62
     7
 10
14.956500531
 20
37.35448727759999
 30
0.0
  0
VERTEX
  5
316
  8
0
  6
CONTINUOUS
 62
     7
 10
13.77004898040001
 20
37.2660147977
 30
0.0
  0
VERTEX
  5
317
  8
0
  6
CONTINUOUS
 62
     7
 10
12.7470725932
 20
37.16484766400001
 30
0.0
  0
VERTEX
  5
318
  8
0
  6
CONTINUOUS
 62
     7
 10
11.75923784610001
 20
36.9848045681
 30
0.0
  0
VERTEX
  5
319
  8
0
  6
CONTINUOUS
 62
     7
 10
10.8792782205
 20
36.65585812859999
 30
0.0
  0
VERTEX
  5
31A
  8
0
  6
CONTINUOUS
 62
     7
 10
10.3338552081
 20
36.26930473759998
 30
0.0
  0
VERTEX
  5
31B
  8
0
  6
CONTINUOUS
 62
     7
 10
9.912425332600009
 20
35.7413435043
 30
0.0
  0
VERTEX
  5
31C
  8
0
  6
CONTINUOUS
 62
     7
 10
9.606319062300003
 20
35.0960373106
 30
0.0
  0
VERTEX
  5
31D
  8
0
  6
CONTINUOUS
 62
     7
 10
9.399583396799997
 20
34.36737015559999
 30
0.0
  0
VERTEX
  5
31E
  8
0
  6
CONTINUOUS
 62
     7
 10
9.243150810900005
 20
33.197957409
 30
0.0
  0
VERTEX
  5
31F
  8
0
  6
CONTINUOUS
 62
     7
 10
9.2804241276
 20
32.03971973749999
 30
0.0
  0
VERTEX
  5
320
  8
0
  6
CONTINUOUS
 62
     7
 10
9.492184730399998
 20
31.2220736533
 30
0.0
  0
VERTEX
  5
321
  8
0
  6
CONTINUOUS
 62
     7
 10
9.90445973140001
 20
30.55470444849999
 30
0.0
  0
VERTEX
  5
322
  8
0
  6
CONTINUOUS
 62
     7
 10
10.500867293
 20
30.0960961272
 30
0.0
  0
VERTEX
  5
323
  8
0
  6
CONTINUOUS
 62
     7
 10
11.2429255423
 20
29.7731015677
 30
0.0
  0
VERTEX
  5
324
  8
0
  6
CONTINUOUS
 62
     7
 10
12.06246443250001
 20
29.52929631729999
 30
0.0
  0
VERTEX
  5
325
  8
0
  6
CONTINUOUS
 62
     7
 10
12.8926522042
 20
29.31000872729999
 30
0.0
  0
VERTEX
  5
326
  8
0
  6
CONTINUOUS
 62
     7
 10
13.7389838806
 20
29.0967873212
 30
0.0
  0
VERTEX
  5
327
  8
0
  6
CONTINUOUS
 62
     7
 10
14.56592400070001
 20
28.9436154349
 30
0.0
  0
VERTEX
  5
328
  8
0
  6
CONTINUOUS
 62
     7
 10
15.37999672880001
 20
28.8968198123
 30
0.0
  0
VERTEX
  5
329
  8
0
  6
CONTINUOUS
 62
     7
 10
16.29568668570001
 20
29.026427226
 30
0.0
  0
VERTEX
  5
32A
  8
0
  6
CONTINUOUS
 62
     7
 10
17.1874731285
 20
29.35802776529999
 30
0.0
  0
VERTEX
  5
32B
  8
0
  6
CONTINUOUS
 62
     7
 10
18.02920798140001
 20
29.8703525328
 30
0.0
  0
VERTEX
  5
32C
  8
0
  6
CONTINUOUS
 62
     7
 10
18.79458200250001
 20
30.5417299633
 30
0.0
  0
VERTEX
  5
32D
  8
0
  6
CONTINUOUS
 62
     7
 10
19.45285639970001
 20
31.34754344919999
 30
0.0
  0
VERTEX
  5
32E
  8
0
  6
CONTINUOUS
 62
     7
 10
19.94389446740001
 20
32.2436308091
 30
0.0
  0
VERTEX
  5
32F
  8
0
  6
CONTINUOUS
 62
     7
 10
20.14273588340001
 20
32.8654359902
 30
0.0
  0
VERTEX
  5
330
  8
0
  6
CONTINUOUS
 62
     7
 10
20.21382408440002
 20
33.48874602000001
 30
0.0
  0
VERTEX
  5
331
  8
0
  6
CONTINUOUS
 62
     7
 10
20.1358678542
 20
34.09812066359999
 30
0.0
  0
VERTEX
  5
332
  8
0
  6
CONTINUOUS
 62
     7
 10
19.90427030180001
 20
34.68020260769998
 30
0.0
  0
VERTEX
  5
333
  8
0
  6
CONTINUOUS
 62
     7
 10
19.55101245660001
 20
35.22619830159999
 30
0.0
  0
VERTEX
  5
334
  8
0
  6
CONTINUOUS
 62
     7
 10
19.1129224821
 20
35.7279189628
 30
0.0
  0
SEQEND
  5
464
  8
0
  6
CONTINUOUS
 62
     7
  0
POLYLINE
  5
A3
  8
0
  6
CONTINUOUS
 62
     7
 66
     1
 10
0.0
 20
0.0
 30
0.0
  0
VERTEX
  5
335
  8
0
  6
CONTINUOUS
 62
     7
 10
24.00858292070001
 20
10.17867682409999
 30
0.0
  0
VERTEX
  5
336
  8
0
  6
CONTINUOUS
 62
     7
 10
24.18363380849999
 20
10.18473239619999
 30
0.0
  0
VERTEX
  5
337
  8
0
  6
CONTINUOUS
 62
     7
 10
24.3188468429
 20
10.2166526252
 30
0.0
  0
VERTEX
  5
338
  8
0
  6
CONTINUOUS
 62
     7
 10
24.4184749362
 20
10.2721068157
 30
0.0
  0
VERTEX
  5
339
  8
0
  6
CONTINUOUS
 62
     7
 10
24.51049855690002
 20
10.39431588309999
 30
0.0
  0
VERTEX
  5
33A
  8
0
  6
CONTINUOUS
 62
     7
 10
24.54637869140001
 20
10.5563662022
 30
0.0
  0
VERTEX
  5
33B
  8
0
  6
CONTINUOUS
 62
     7
 10
24.54046891839999
 20
10.7503916763
 30
0.0
  0
VERTEX
  5
33C
  8
0
  6
CONTINUOUS
 62
     7
 10
24.4846466358
 20
11.08417621589999
 30
0.0
  0
VERTEX
  5
33D
  8
0
  6
CONTINUOUS
 62
     7
 10
24.41553594210001
 20
11.4456580591
 30
0.0
  0
VERTEX
  5
33E
  8
0
  6
CONTINUOUS
 62
     7
 10
24.3815801655
 20
11.8082891287
 30
0.0
  0
VERTEX
  5
33F
  8
0
  6
CONTINUOUS
 62
     7
 10
24.4312226344
 20
12.1455213477
 30
0.0
  0
VERTEX
  5
340
  8
0
  6
CONTINUOUS
 62
     7
 10
24.53468371470001
 20
12.343122193
 30
0.0
  0
VERTEX
  5
341
  8
0
  6
CONTINUOUS
 62
     7
 10
24.71118351769999
 20
12.50976941799999
 30
0.0
  0
VERTEX
  5
342
  8
0
  6
CONTINUOUS
 62
     7
 10
24.97360795130001
 20
12.6376502797
 30
0.0
  0
VERTEX
  5
343
  8
0
  6
CONTINUOUS
 62
     7
 10
25.56099420859999
 20
12.74690159219999
 30
0.0
  0
VERTEX
  5
344
  8
0
  6
CONTINUOUS
 62
     7
 10
26.17500367990002
 20
12.69748021609999
 30
0.0
  0
VERTEX
  5
345
  8
0
  6
CONTINUOUS
 62
     7
 10
26.50968664999999
 20
12.56220630009999
 30
0.0
  0
VERTEX
  5
346
  8
0
  6
CONTINUOUS
 62
     7
 10
26.73858582610001
 20
12.34286656809999
 30
0.0
  0
VERTEX
  5
347
  8
0
  6
CONTINUOUS
 62
     7
 10
26.879138547
 20
12.06410492159999
 30
0.0
  0
VERTEX
  5
348
  8
0
  6
CONTINUOUS
 62
     7
 10
26.9870094522
 20
11.5998985837
 30
0.0
  0
VERTEX
  5
349
  8
0
  6
CONTINUOUS
 62
     7
 10
27.057307361
 20
11.1700415079
 30
0.0
  0
VERTEX
  5
34A
  8
0
  6
CONTINUOUS
 62
     7
 10
27.10859266590001
 20
10.99950305019999
 30
0.0
  0
VERTEX
  5
34B
  8
0
  6
CONTINUOUS
 62
     7
 10
27.18656279289999
 20
10.87499870169999
 30
0.0
  0
VERTEX
  5
34C
  8
0
  6
CONTINUOUS
 62
     7
 10
27.29649869069999
 20
10.7963109114
 30
0.0
  0
VERTEX
  5
34D
  8
0
  6
CONTINUOUS
 62
     7
 10
27.4355007353
 20
10.74819878509999
 30
0.0
  0
VERTEX
  5
34E
  8
0
  6
CONTINUOUS
 62
     7
 10
27.89948870649999
 20
10.72043611769999
 30
0.0
  0
VERTEX
  5
34F
  8
0
  6
CONTINUOUS
 62
     7
 10
28.37820792229999
 20
10.82192222939999
 30
0.0
  0
VERTEX
  5
350
  8
0
  6
CONTINUOUS
 62
     7
 10
28.55555884730001
 20
10.9034388054
 30
0.0
  0
VERTEX
  5
351
  8
0
  6
CONTINUOUS
 62
     7
 10
28.69202868210002
 20
11.00494895909999
 30
0.0
  0
VERTEX
  5
352
  8
0
  6
CONTINUOUS
 62
     7
 10
28.77285150290001
 20
11.12933339599999
 30
0.0
  0
VERTEX
  5
353
  8
0
  6
CONTINUOUS
 62
     7
 10
28.7840511229
 20
11.24779669409999
 30
0.0
  0
VERTEX
  5
354
  8
0
  6
CONTINUOUS
 62
     7
 10
28.7509659042
 20
11.4052450521
 30
0.0
  0
VERTEX
  5
355
  8
0
  6
CONTINUOUS
 62
     7
 10
28.6378675002
 20
11.71926445989999
 30
0.0
  0
VERTEX
  5
356
  8
0
  6
CONTINUOUS
 62
     7
 10
28.41626811559999
 20
12.3913138289
 30
0.0
  0
VERTEX
  5
357
  8
0
  6
CONTINUOUS
 62
     7
 10
28.38451568920001
 20
12.77890654879999
 30
0.0
  0
VERTEX
  5
358
  8
0
  6
CONTINUOUS
 62
     7
 10
28.49761962760002
 20
13.1286051985
 30
0.0
  0
VERTEX
  5
359
  8
0
  6
CONTINUOUS
 62
     7
 10
28.78475330450001
 20
13.41283598579999
 30
0.0
  0
VERTEX
  5
35A
  8
0
  6
CONTINUOUS
 62
     7
 10
29.179865202
 20
13.6218493401
 30
0.0
  0
VERTEX
  5
35B
  8
0
  6
CONTINUOUS
 62
     7
 10
29.78945783099999
 20
13.7799732422
 30
0.0
  0
VERTEX
  5
35C
  8
0
  6
CONTINUOUS
 62
     7
 10
29.98291628500002
 20
13.7875848267
 30
0.0
  0
VERTEX
  5
35D
  8
0
  6
CONTINUOUS
 62
     7
 10
30.12641927039999
 20
13.76244150529999
 30
0.0
  0
VERTEX
  5
35E
  8
0
  6
CONTINUOUS
 62
     7
 10
30.25826225330002
 20
13.67997822909999
 30
0.0
  0
VERTEX
  5
35F
  8
0
  6
CONTINUOUS
 62
     7
 10
30.38706502299999
 20
13.54009093329999
 30
0.0
  0
VERTEX
  5
360
  8
0
  6
CONTINUOUS
 62
     7
 10
30.60301160470001
 20
13.24013908309999
 30
0.0
  0
VERTEX
  5
361
  8
0
  6
CONTINUOUS
 62
     7
 10
30.8158837695
 20
12.91984690379999
 30
0.0
  0
VERTEX
  5
362
  8
0
  6
CONTINUOUS
 62
     7
 10
31.02580038720001
 20
12.62930383
 30
0.0
  0
VERTEX
  5
363
  8
0
  6
CONTINUOUS
 62
     7
 10
31.13142417750001
 20
12.50978671169999
 30
0.0
  0
VERTEX
  5
364
  8
0
  6
CONTINUOUS
 62
     7
 10
31.2323106641
 20
12.42433325079999
 30
0.0
  0
VERTEX
  5
365
  8
0
  6
CONTINUOUS
 62
     7
 10
31.32729577870001
 20
12.38069083619999
 30
0.0
  0
VERTEX
  5
366
  8
0
  6
CONTINUOUS
 62
     7
 10
31.42824102010002
 20
12.38141512189999
 30
0.0
  0
VERTEX
  5
367
  8
0
  6
CONTINUOUS
 62
     7
 10
31.522660035
 20
12.4306857813
 30
0.0
  0
VERTEX
  5
368
  8
0
  6
CONTINUOUS
 62
     7
 10
31.66860013320002
 20
12.60734917709999
 30
0.0
  0
VERTEX
  5
369
  8
0
  6
CONTINUOUS
 62
     7
 10
31.80340744650002
 20
12.8808978971
 30
0.0
  0
VERTEX
  5
36A
  8
0
  6
CONTINUOUS
 62
     7
 10
32.00347741530001
 20
13.4479282704
 30
0.0
  0
VERTEX
  5
36B
  8
0
  6
CONTINUOUS
 62
     7
 10
32.37404564240001
 20
14.60933035759999
 30
0.0
  0
VERTEX
  5
36C
  8
0
  6
CONTINUOUS
 62
     7
 10
32.65672203100002
 20
15.2482387914
 30
0.0
  0
VERTEX
  5
36D
  8
0
  6
CONTINUOUS
 62
     7
 10
32.97687464500001
 20
15.7369683094
 30
0.0
  0
VERTEX
  5
36E
  8
0
  6
CONTINUOUS
 62
     7
 10
33.3004283045
 20
16.13732481299999
 30
0.0
  0
VERTEX
  5
36F
  8
0
  6
CONTINUOUS
 62
     7
 10
33.5916378169
 20
16.51676512109999
 30
0.0
  0
VERTEX
  5
370
  8
0
  6
CONTINUOUS
 62
     7
 10
33.8352593395
 20
17.00019468399999
 30
0.0
  0
VERTEX
  5
371
  8
0
  6
CONTINUOUS
 62
     7
 10
33.97471351780001
 20
17.59997851119999
 30
0.0
  0
VERTEX
  5
372
  8
0
  6
CONTINUOUS
 62
     7
 10
34.09639424869999
 20
18.0767084739
 30
0.0
  0
VERTEX
  5
373
  8
0
  6
CONTINUOUS
 62
     7
 10
34.3244259242
 20
18.4654019962
 30
0.0
  0
VERTEX
  5
374
  8
0
  6
CONTINUOUS
 62
     7
 10
34.56451831500002
 20
18.6284886549
 30
0.0
  0
VERTEX
  5
375
  8
0
  6
CONTINUOUS
 62
     7
 10
34.88617281150002
 20
18.71878122219999
 30
0.0
  0
VERTEX
  5
376
  8
0
  6
CONTINUOUS
 62
     7
 10
35.26988657550001
 20
18.75564978899999
 30
0.0
  0
VERTEX
  5
377
  8
0
  6
CONTINUOUS
 62
     7
 10
36.2996164699
 20
18.7505394949
 30
0.0
  0
VERTEX
  5
378
  8
0
  6
CONTINUOUS
 62
     7
 10
36.88194472820001
 20
18.7705607967
 30
0.0
  0
VERTEX
  5
379
  8
0
  6
CONTINUOUS
 62
     7
 10
37.39926209040001
 20
18.86973387709999
 30
0.0
  0
VERTEX
  5
37A
  8
0
  6
CONTINUOUS
 62
     7
 10
37.8012855481
 20
19.09795731189999
 30
0.0
  0
VERTEX
  5
37B
  8
0
  6
CONTINUOUS
 62
     7
 10
38.04441832020001
 20
19.49309461039999
 30
0.0
  0
VERTEX
  5
37C
  8
0
  6
CONTINUOUS
 62
     7
 10
38.12700711860001
 20
19.95187462
 30
0.0
  0
VERTEX
  5
37D
  8
0
  6
CONTINUOUS
 62
     7
 10
38.09736533220001
 20
20.45796639359999
 30
0.0
  0
VERTEX
  5
37E
  8
0
  6
CONTINUOUS
 62
     7
 10
37.96843991880002
 20
20.9595441453
 30
0.0
  0
VERTEX
  5
37F
  8
0
  6
CONTINUOUS
 62
     7
 10
37.75317783669999
 20
21.4047820891
 30
0.0
  0
VERTEX
  5
380
  8
0
  6
CONTINUOUS
 62
     7
 10
37.4645260437
 20
21.74185443879999
 30
0.0
  0
VERTEX
  5
381
  8
0
  6
CONTINUOUS
 62
     7
 10
37.11543149639999
 20
21.91894061929999
 30
0.0
  0
VERTEX
  5
382
  8
0
  6
CONTINUOUS
 62
     7
 10
36.7188348224
 20
21.9067379908
 30
0.0
  0
VERTEX
  5
383
  8
0
  6
CONTINUOUS
 62
     7
 10
36.13847684460001
 20
21.67606016329999
 30
0.0
  0
VERTEX
  5
384
  8
0
  6
CONTINUOUS
 62
     7
 10
35.5272537614
 20
21.3307245221
 30
0.0
  0
VERTEX
  5
385
  8
0
  6
CONTINUOUS
 62
     7
 10
34.91578015390002
 20
21.0129632578
 30
0.0
  0
VERTEX
  5
386
  8
0
  6
CONTINUOUS
 62
     7
 10
34.2556091161
 20
20.8292060175
 30
0.0
  0
VERTEX
  5
387
  8
0
  6
CONTINUOUS
 62
     7
 10
33.66091027510001
 20
20.78088716569999
 30
0.0
  0
VERTEX
  5
388
  8
0
  6
CONTINUOUS
 62
     7
 10
33.15476615840001
 20
20.73704753429999
 30
0.0
  0
VERTEX
  5
389
  8
0
  6
CONTINUOUS
 62
     7
 10
32.76025003000001
 20
20.5665853515
 30
0.0
  0
VERTEX
  5
38A
  8
0
  6
CONTINUOUS
 62
     7
 10
32.48491899219999
 20
20.16669864539999
 30
0.0
  0
VERTEX
  5
38B
  8
0
  6
CONTINUOUS
 62
     7
 10
32.217900477
 20
19.72239216339999
 30
0.0
  0
VERTEX
  5
38C
  8
0
  6
CONTINUOUS
 62
     7
 10
31.80655159369999
 20
19.40651308439999
 30
0.0
  0
VERTEX
  5
38D
  8
0
  6
CONTINUOUS
 62
     7
 10
31.29348153320001
 20
19.20159974449999
 30
0.0
  0
VERTEX
  5
38E
  8
0
  6
CONTINUOUS
 62
     7
 10
30.87633858699999
 20
19.0713242673
 30
0.0
  0
VERTEX
  5
38F
  8
0
  6
CONTINUOUS
 62
     7
 10
30.49344223989999
 20
18.929814896
 30
0.0
  0
VERTEX
  5
390
  8
0
  6
CONTINUOUS
 62
     7
 10
30.18749182670001
 20
18.74198675289999
 30
0.0
  0
VERTEX
  5
391
  8
0
  6
CONTINUOUS
 62
     7
 10
29.975968094
 20
18.3814156263
 30
0.0
  0
VERTEX
  5
392
  8
0
  6
CONTINUOUS
 62
     7
 10
29.98243998360002
 20
17.8838416718
 30
0.0
  0
VERTEX
  5
393
  8
0
  6
CONTINUOUS
 62
     7
 10
30.12553041570001
 20
17.35119395699999
 30
0.0
  0
VERTEX
  5
394
  8
0
  6
CONTINUOUS
 62
     7
 10
30.34425965400001
 20
16.7684204623
 30
0.0
  0
VERTEX
  5
395
  8
0
  6
CONTINUOUS
 62
     7
 10
30.47368006470001
 20
16.295341131
 30
0.0
  0
VERTEX
  5
396
  8
0
  6
CONTINUOUS
 62
     7
 10
30.44106770499999
 20
16.079666694
 30
0.0
  0
VERTEX
  5
397
  8
0
  6
CONTINUOUS
 62
     7
 10
30.2976041368
 20
15.91834758269999
 30
0.0
  0
VERTEX
  5
398
  8
0
  6
CONTINUOUS
 62
     7
 10
30.0639217065
 20
15.77613069909999
 30
0.0
  0
VERTEX
  5
399
  8
0
  6
CONTINUOUS
 62
     7
 10
29.7733556199
 20
15.65498563279999
 30
0.0
  0
VERTEX
  5
39A
  8
0
  6
CONTINUOUS
 62
     7
 10
29.28552351330001
 20
15.52479575949999
 30
0.0
  0
VERTEX
  5
39B
  8
0
  6
CONTINUOUS
 62
     7
 10
28.87819146340001
 20
15.49312357529999
 30
0.0
  0
VERTEX
  5
39C
  8
0
  6
CONTINUOUS
 62
     7
 10
28.69264028500001
 20
15.5538554736
 30
0.0
  0
VERTEX
  5
39D
  8
0
  6
CONTINUOUS
 62
     7
 10
28.55741621230001
 20
15.71626413419999
 30
0.0
  0
VERTEX
  5
39E
  8
0
  6
CONTINUOUS
 62
     7
 10
28.4159565727
 20
15.9780603573
 30
0.0
  0
VERTEX
  5
39F
  8
0
  6
CONTINUOUS
 62
     7
 10
28.27226758169999
 20
16.2976301583
 30
0.0
  0
VERTEX
  5
3A0
  8
0
  6
CONTINUOUS
 62
     7
 10
28.1173926527
 20
16.6703289483
 30
0.0
  0
VERTEX
  5
3A1
  8
0
  6
CONTINUOUS
 62
     7
 10
27.97846706780001
 20
16.99960437599999
 30
0.0
  0
VERTEX
  5
3A2
  8
0
  6
CONTINUOUS
 62
     7
 10
27.88695153130001
 20
17.18797319709999
 30
0.0
  0
VERTEX
  5
3A3
  8
0
  6
CONTINUOUS
 62
     7
 10
27.8116355313
 20
17.2904952797
 30
0.0
  0
VERTEX
  5
3A4
  8
0
  6
CONTINUOUS
 62
     7
 10
27.73300162550001
 20
17.33031682959999
 30
0.0
  0
VERTEX
  5
3A5
  8
0
  6
CONTINUOUS
 62
     7
 10
27.6229179483
 20
17.3451231726
 30
0.0
  0
VERTEX
  5
3A6
  8
0
  6
CONTINUOUS
 62
     7
 10
27.3884318163
 20
17.3378667649
 30
0.0
  0
VERTEX
  5
3A7
  8
0
  6
CONTINUOUS
 62
     7
 10
26.87336321000001
 20
17.251352192
 30
0.0
  0
VERTEX
  5
3A8
  8
0
  6
CONTINUOUS
 62
     7
 10
26.33667859400001
 20
17.08054578679999
 30
0.0
  0
VERTEX
  5
3A9
  8
0
  6
CONTINUOUS
 62
     7
 10
26.24021599150001
 20
17.03205722509999
 30
0.0
  0
VERTEX
  5
3AA
  8
0
  6
CONTINUOUS
 62
     7
 10
26.16717381710001
 20
16.98301194589999
 30
0.0
  0
VERTEX
  5
3AB
  8
0
  6
CONTINUOUS
 62
     7
 10
26.11938702969999
 20
16.93258124729999
 30
0.0
  0
VERTEX
  5
3AC
  8
0
  6
CONTINUOUS
 62
     7
 10
26.0932113522
 20
16.8759266119
 30
0.0
  0
VERTEX
  5
3AD
  8
0
  6
CONTINUOUS
 62
     7
 10
26.0856431151
 20
16.75255052649999
 30
0.0
  0
VERTEX
  5
3AE
  8
0
  6
CONTINUOUS
 62
     7
 10
26.1094285355
 20
16.5830116585
 30
0.0
  0
VERTEX
  5
3AF
  8
0
  6
CONTINUOUS
 62
     7
 10
26.18818212830001
 20
16.24359273729999
 30
0.0
  0
VERTEX
  5
3B0
  8
0
  6
CONTINUOUS
 62
     7
 10
26.3617026885
 20
15.5306682942
 30
0.0
  0
VERTEX
  5
3B1
  8
0
  6
CONTINUOUS
 62
     7
 10
26.42015690709999
 20
15.13759392269999
 30
0.0
  0
VERTEX
  5
3B2
  8
0
  6
CONTINUOUS
 62
     7
 10
26.40666506299999
 20
14.80631984719999
 30
0.0
  0
VERTEX
  5
3B3
  8
0
  6
CONTINUOUS
 62
     7
 10
26.36225254710001
 20
14.6770994347
 30
0.0
  0
VERTEX
  5
3B4
  8
0
  6
CONTINUOUS
 62
     7
 10
26.28718501989999
 20
14.57899927219999
 30
0.0
  0
VERTEX
  5
3B5
  8
0
  6
CONTINUOUS
 62
     7
 10
26.18180812490002
 20
14.51079767419999
 30
0.0
  0
VERTEX
  5
3B6
  8
0
  6
CONTINUOUS
 62
     7
 10
26.0514865685
 20
14.4641922015
 30
0.0
  0
VERTEX
  5
3B7
  8
0
  6
CONTINUOUS
 62
     7
 10
25.62483957879999
 20
14.37949091969999
 30
0.0
  0
VERTEX
  5
3B8
  8
0
  6
CONTINUOUS
 62
     7
 10
25.16221694840002
 20
14.29749824609999
 30
0.0
  0
VERTEX
  5
3B9
  8
0
  6
CONTINUOUS
 62
     7
 10
24.9432869961
 20
14.3102198635
 30
0.0
  0
VERTEX
  5
3BA
  8
0
  6
CONTINUOUS
 62
     7
 10
24.7455407283
 20
14.3989263525
 30
0.0
  0
VERTEX
  5
3BB
  8
0
  6
CONTINUOUS
 62
     7
 10
24.57847873099999
 20
14.59229502779999
 30
0.0
  0
VERTEX
  5
3BC
  8
0
  6
CONTINUOUS
 62
     7
 10
24.44706196640001
 20
14.8854494215
 30
0.0
  0
VERTEX
  5
3BD
  8
0
  6
CONTINUOUS
 62
     7
 10
24.30755734749999
 20
15.49548289419999
 30
0.0
  0
VERTEX
  5
3BE
  8
0
  6
CONTINUOUS
 62
     7
 10
24.2708172712
 20
16.0888688048
 30
0.0
  0
VERTEX
  5
3BF
  8
0
  6
CONTINUOUS
 62
     7
 10
24.32021388539999
 20
16.4502431105
 30
0.0
  0
VERTEX
  5
3C0
  8
0
  6
CONTINUOUS
 62
     7
 10
24.34371685069999
 20
16.54595201839999
 30
0.0
  0
VERTEX
  5
3C1
  8
0
  6
CONTINUOUS
 62
     7
 10
24.34692459550001
 20
16.5747599394
 30
0.0
  0
VERTEX
  5
3C2
  8
0
  6
CONTINUOUS
 62
     7
 10
24.34487560069999
 20
16.5992044522
 30
0.0
  0
VERTEX
  5
3C3
  8
0
  6
CONTINUOUS
 62
     7
 10
24.33660662290001
 20
16.61927364879999
 30
0.0
  0
VERTEX
  5
3C4
  8
0
  6
CONTINUOUS
 62
     7
 10
24.32098555000002
 20
16.6359119335
 30
0.0
  0
VERTEX
  5
3C5
  8
0
  6
CONTINUOUS
 62
     7
 10
24.2968644856
 20
16.6494876962
 30
0.0
  0
VERTEX
  5
3C6
  8
0
  6
CONTINUOUS
 62
     7
 10
24.26309553339999
 20
16.66036932679999
 30
0.0
  0
VERTEX
  5
3C7
  8
0
  6
CONTINUOUS
 62
     7
 10
24.00858292070001
 20
16.6843223274
 30
0.0
  0
SEQEND
  5
465
  8
0
  6
CONTINUOUS
 62
     7
  0
POLYLINE
  5
A4
  8
0
  6
CONTINUOUS
 62
     7
 66
     1
 10
0.0
 20
0.0
 30
0.0
  0
VERTEX
  5
3C8
  8
0
  6
CONTINUOUS
 62
     7
 10
24.00858292070001
 20
16.6843223274
 30
0.0
  0
VERTEX
  5
3C9
  8
0
  6
CONTINUOUS
 62
     7
 10
23.754070308
 20
16.66036932679999
 30
0.0
  0
VERTEX
  5
3CA
  8
0
  6
CONTINUOUS
 62
     7
 10
23.72030135580002
 20
16.6494876962
 30
0.0
  0
VERTEX
  5
3CB
  8
0
  6
CONTINUOUS
 62
     7
 10
23.6961802914
 20
16.6359119335
 30
0.0
  0
VERTEX
  5
3CC
  8
0
  6
CONTINUOUS
 62
     7
 10
23.68055921850001
 20
16.61927364879999
 30
0.0
  0
VERTEX
  5
3CD
  8
0
  6
CONTINUOUS
 62
     7
 10
23.67229024069999
 20
16.5992044522
 30
0.0
  0
VERTEX
  5
3CE
  8
0
  6
CONTINUOUS
 62
     7
 10
23.6737909636
 20
16.54402569209999
 30
0.0
  0
VERTEX
  5
3CF
  8
0
  6
CONTINUOUS
 62
     7
 10
23.6921018372
 20
16.46852603569999
 30
0.0
  0
VERTEX
  5
3D0
  8
0
  6
CONTINUOUS
 62
     7
 10
23.7289993386
 20
16.30053459339999
 30
0.0
  0
VERTEX
  5
3D1
  8
0
  6
CONTINUOUS
 62
     7
 10
23.74325050729999
 20
15.84875883209999
 30
0.0
  0
VERTEX
  5
3D2
  8
0
  6
CONTINUOUS
 62
     7
 10
23.68833159990001
 20
15.3597029962
 30
0.0
  0
VERTEX
  5
3D3
  8
0
  6
CONTINUOUS
 62
     7
 10
23.570103875
 20
14.8854494215
 30
0.0
  0
VERTEX
  5
3D4
  8
0
  6
CONTINUOUS
 62
     7
 10
23.4386871104
 20
14.59229502779999
 30
0.0
  0
VERTEX
  5
3D5
  8
0
  6
CONTINUOUS
 62
     7
 10
23.27162511310001
 20
14.3989263525
 30
0.0
  0
VERTEX
  5
3D6
  8
0
  6
CONTINUOUS
 62
     7
 10
23.07387884530002
 20
14.3102198635
 30
0.0
  0
VERTEX
  5
3D7
  8
0
  6
CONTINUOUS
 62
     7
 10
22.854948893
 20
14.29749824609999
 30
0.0
  0
VERTEX
  5
3D8
  8
0
  6
CONTINUOUS
 62
     7
 10
22.39232626259999
 20
14.37949091969999
 30
0.0
  0
VERTEX
  5
3D9
  8
0
  6
CONTINUOUS
 62
     7
 10
21.96567927289999
 20
14.4641922015
 30
0.0
  0
VERTEX
  5
3DA
  8
0
  6
CONTINUOUS
 62
     7
 10
21.8353577165
 20
14.51079767419999
 30
0.0
  0
VERTEX
  5
3DB
  8
0
  6
CONTINUOUS
 62
     7
 10
21.72998082149999
 20
14.57899927219999
 30
0.0
  0
VERTEX
  5
3DC
  8
0
  6
CONTINUOUS
 62
     7
 10
21.65491329420001
 20
14.6770994347
 30
0.0
  0
VERTEX
  5
3DD
  8
0
  6
CONTINUOUS
 62
     7
 10
21.6105007784
 20
14.80631984719999
 30
0.0
  0
VERTEX
  5
3DE
  8
0
  6
CONTINUOUS
 62
     7
 10
21.59700893429999
 20
15.13759392269999
 30
0.0
  0
VERTEX
  5
3DF
  8
0
  6
CONTINUOUS
 62
     7
 10
21.65546315290001
 20
15.5306682942
 30
0.0
  0
VERTEX
  5
3E0
  8
0
  6
CONTINUOUS
 62
     7
 10
21.76412259950001
 20
15.9919636577
 30
0.0
  0
VERTEX
  5
3E1
  8
0
  6
CONTINUOUS
 62
     7
 10
21.87208795410001
 20
16.4180980181
 30
0.0
  0
VERTEX
  5
3E2
  8
0
  6
CONTINUOUS
 62
     7
 10
21.92836981970001
 20
16.71673695289999
 30
0.0
  0
VERTEX
  5
3E3
  8
0
  6
CONTINUOUS
 62
     7
 10
21.93300508620001
 20
16.80515453349999
 30
0.0
  0
VERTEX
  5
3E4
  8
0
  6
CONTINUOUS
 62
     7
 10
21.92395448920001
 20
16.8759266119
 30
0.0
  0
VERTEX
  5
3E5
  8
0
  6
CONTINUOUS
 62
     7
 10
21.89777881169999
 20
16.93258124729999
 30
0.0
  0
VERTEX
  5
3E6
  8
0
  6
CONTINUOUS
 62
     7
 10
21.84999202430001
 20
16.98301194589999
 30
0.0
  0
VERTEX
  5
3E7
  8
0
  6
CONTINUOUS
 62
     7
 10
21.77694984979999
 20
17.03205722509999
 30
0.0
  0
VERTEX
  5
3E8
  8
0
  6
CONTINUOUS
 62
     7
 10
21.68048724740001
 20
17.08054578679999
 30
0.0
  0
VERTEX
  5
3E9
  8
0
  6
CONTINUOUS
 62
     7
 10
21.14380263140001
 20
17.251352192
 30
0.0
  0
VERTEX
  5
3EA
  8
0
  6
CONTINUOUS
 62
     7
 10
20.80822344329999
 20
17.31594751269999
 30
0.0
  0
VERTEX
  5
3EB
  8
0
  6
CONTINUOUS
 62
     7
 10
20.50667308690001
 20
17.3457343427
 30
0.0
  0
VERTEX
  5
3EC
  8
0
  6
CONTINUOUS
 62
     7
 10
20.37804508330001
 20
17.3441162604
 30
0.0
  0
VERTEX
  5
3ED
  8
0
  6
CONTINUOUS
 62
     7
 10
20.27831410990001
 20
17.32875915749999
 30
0.0
  0
VERTEX
  5
3EE
  8
0
  6
CONTINUOUS
 62
     7
 10
20.20553031
 20
17.2904952797
 30
0.0
  0
VERTEX
  5
3EF
  8
0
  6
CONTINUOUS
 62
     7
 10
20.1529177587
 20
17.22603153019999
 30
0.0
  0
VERTEX
  5
3F0
  8
0
  6
CONTINUOUS
 62
     7
 10
20.09353743290001
 20
17.11763215139999
 30
0.0
  0
VERTEX
  5
3F1
  8
0
  6
CONTINUOUS
 62
     7
 10
19.98174742570001
 20
16.86773059759999
 30
0.0
  0
VERTEX
  5
3F2
  8
0
  6
CONTINUOUS
 62
     7
 10
19.74489825969999
 20
16.2976301583
 30
0.0
  0
VERTEX
  5
3F3
  8
0
  6
CONTINUOUS
 62
     7
 10
19.6012092687
 20
15.9780603573
 30
0.0
  0
VERTEX
  5
3F4
  8
0
  6
CONTINUOUS
 62
     7
 10
19.4597496291
 20
15.71626413419999
 30
0.0
  0
VERTEX
  5
3F5
  8
0
  6
CONTINUOUS
 62
     7
 10
19.3245255564
 20
15.5538554736
 30
0.0
  0
VERTEX
  5
3F6
  8
0
  6
CONTINUOUS
 62
     7
 10
19.1389743779
 20
15.49312357529999
 30
0.0
  0
VERTEX
  5
3F7
  8
0
  6
CONTINUOUS
 62
     7
 10
18.801865496
 20
15.5129634442
 30
0.0
  0
VERTEX
  5
3F8
  8
0
  6
CONTINUOUS
 62
     7
 10
18.39207279930001
 20
15.606827376
 30
0.0
  0
VERTEX
  5
3F9
  8
0
  6
CONTINUOUS
 62
     7
 10
17.99208253880001
 20
15.7573634126
 30
0.0
  0
VERTEX
  5
3FA
  8
0
  6
CONTINUOUS
 62
     7
 10
17.73841448580001
 20
15.9040955089
 30
0.0
  0
VERTEX
  5
3FB
  8
0
  6
CONTINUOUS
 62
     7
 10
17.5805137776
 20
16.0711356337
 30
0.0
  0
VERTEX
  5
3FC
  8
0
  6
CONTINUOUS
 62
     7
 10
17.54348577670001
 20
16.295341131
 30
0.0
  0
VERTEX
  5
3FD
  8
0
  6
CONTINUOUS
 62
     7
 10
17.61994521540001
 20
16.6184912497
 30
0.0
  0
VERTEX
  5
3FE
  8
0
  6
CONTINUOUS
 62
     7
 10
17.76382726700001
 20
17.00665436569999
 30
0.0
  0
VERTEX
  5
3FF
  8
0
  6
CONTINUOUS
 62
     7
 10
17.9945337324
 20
17.6925369431
 30
0.0
  0
VERTEX
  5
400
  8
0
  6
CONTINUOUS
 62
     7
 10
18.0595815372
 20
18.1077070936
 30
0.0
  0
VERTEX
  5
401
  8
0
  6
CONTINUOUS
 62
     7
 10
18.0159962803
 20
18.47277298029999
 30
0.0
  0
VERTEX
  5
402
  8
0
  6
CONTINUOUS
 62
     7
 10
17.8296740147
 20
18.74198675289999
 30
0.0
  0
VERTEX
  5
403
  8
0
  6
CONTINUOUS
 62
     7
 10
17.42513181080001
 20
18.97152580989999
 30
0.0
  0
VERTEX
  5
404
  8
0
  6
CONTINUOUS
 62
     7
 10
16.9148133298
 20
19.14153566799999
 30
0.0
  0
VERTEX
  5
405
  8
0
  6
CONTINUOUS
 62
     7
 10
16.3867478545
 20
19.3243475851
 30
0.0
  0
VERTEX
  5
406
  8
0
  6
CONTINUOUS
 62
     7
 10
16.0167333551
 20
19.52408467699999
 30
0.0
  0
VERTEX
  5
407
  8
0
  6
CONTINUOUS
 62
     7
 10
15.732284275
 20
19.8108322695
 30
0.0
  0
VERTEX
  5
408
  8
0
  6
CONTINUOUS
 62
     7
 10
15.53224684920001
 20
20.16669864539999
 30
0.0
  0
VERTEX
  5
409
  8
0
  6
CONTINUOUS
 62
     7
 10
15.2569158113
 20
20.5665853515
 30
0.0
  0
VERTEX
  5
40A
  8
0
  6
CONTINUOUS
 62
     7
 10
14.86239968300001
 20
20.73704753429999
 30
0.0
  0
VERTEX
  5
40B
  8
0
  6
CONTINUOUS
 62
     7
 10
14.35625556630001
 20
20.78088716569999
 30
0.0
  0
VERTEX
  5
40C
  8
0
  6
CONTINUOUS
 62
     7
 10
13.76155672520001
 20
20.8292060175
 30
0.0
  0
VERTEX
  5
40D
  8
0
  6
CONTINUOUS
 62
     7
 10
13.1013856875
 20
21.0129632578
 30
0.0
  0
VERTEX
  5
40E
  8
0
  6
CONTINUOUS
 62
     7
 10
12.48991208000001
 20
21.3307245221
 30
0.0
  0
VERTEX
  5
40F
  8
0
  6
CONTINUOUS
 62
     7
 10
11.87868899680001
 20
21.67606016329999
 30
0.0
  0
VERTEX
  5
410
  8
0
  6
CONTINUOUS
 62
     7
 10
11.298331019
 20
21.9067379908
 30
0.0
  0
VERTEX
  5
411
  8
0
  6
CONTINUOUS
 62
     7
 10
10.90173434500001
 20
21.91894061929999
 30
0.0
  0
VERTEX
  5
412
  8
0
  6
CONTINUOUS
 62
     7
 10
10.55263979770001
 20
21.74185443879999
 30
0.0
  0
VERTEX
  5
413
  8
0
  6
CONTINUOUS
 62
     7
 10
10.26398800470001
 20
21.4047820891
 30
0.0
  0
VERTEX
  5
414
  8
0
  6
CONTINUOUS
 62
     7
 10
10.0487259225
 20
20.9595441453
 30
0.0
  0
VERTEX
  5
415
  8
0
  6
CONTINUOUS
 62
     7
 10
9.919800509200002
 20
20.45796639359999
 30
0.0
  0
VERTEX
  5
416
  8
0
  6
CONTINUOUS
 62
     7
 10
9.890158722700008
 20
19.95187462
 30
0.0
  0
VERTEX
  5
417
  8
0
  6
CONTINUOUS
 62
     7
 10
9.972747521200006
 20
19.49309461039999
 30
0.0
  0
VERTEX
  5
418
  8
0
  6
CONTINUOUS
 62
     7
 10
10.2158802932
 20
19.09795731189999
 30
0.0
  0
VERTEX
  5
419
  8
0
  6
CONTINUOUS
 62
     7
 10
10.617903751
 20
18.86973387709999
 30
0.0
  0
VERTEX
  5
41A
  8
0
  6
CONTINUOUS
 62
     7
 10
11.1352211132
 20
18.7705607967
 30
0.0
  0
VERTEX
  5
41B
  8
0
  6
CONTINUOUS
 62
     7
 10
11.7175493715
 20
18.7505394949
 30
0.0
  0
VERTEX
  5
41C
  8
0
  6
CONTINUOUS
 62
     7
 10
12.3848541296
 20
18.76047545589999
 30
0.0
  0
VERTEX
  5
41D
  8
0
  6
CONTINUOUS
 62
     7
 10
12.99998954360001
 20
18.7370027283
 30
0.0
  0
VERTEX
  5
41E
  8
0
  6
CONTINUOUS
 62
     7
 10
13.4006928248
 20
18.6494554767
 30
0.0
  0
VERTEX
  5
41F
  8
0
  6
CONTINUOUS
 62
     7
 10
13.6927399172
 20
18.4654019962
 30
0.0
  0
VERTEX
  5
420
  8
0
  6
CONTINUOUS
 62
     7
 10
13.8952219521
 20
18.1433605247
 30
0.0
  0
VERTEX
  5
421
  8
0
  6
CONTINUOUS
 62
     7
 10
14.01156990860001
 20
17.74865425559999
 30
0.0
  0
VERTEX
  5
422
  8
0
  6
CONTINUOUS
 62
     7
 10
14.0953713686
 20
17.33327934479999
 30
0.0
  0
VERTEX
  5
423
  8
0
  6
CONTINUOUS
 62
     7
 10
14.22440441810001
 20
16.8869389849
 30
0.0
  0
VERTEX
  5
424
  8
0
  6
CONTINUOUS
 62
     7
 10
14.42552802450001
 20
16.51676512109999
 30
0.0
  0
VERTEX
  5
425
  8
0
  6
CONTINUOUS
 62
     7
 10
14.82276015730001
 20
16.00952786779999
 30
0.0
  0
VERTEX
  5
426
  8
0
  6
CONTINUOUS
 62
     7
 10
15.25631065970001
 20
15.42513185569999
 30
0.0
  0
VERTEX
  5
427
  8
0
  6
CONTINUOUS
 62
     7
 10
15.64312019900001
 20
14.60933035759999
 30
0.0
  0
VERTEX
  5
428
  8
0
  6
CONTINUOUS
 62
     7
 10
15.88441830020001
 20
13.8673470949
 30
0.0
  0
VERTEX
  5
429
  8
0
  6
CONTINUOUS
 62
     7
 10
16.11015599870001
 20
13.15535794889999
 30
0.0
  0
VERTEX
  5
42A
  8
0
  6
CONTINUOUS
 62
     7
 10
16.31609223640001
 20
12.66374865909999
 30
0.0
  0
VERTEX
  5
42B
  8
0
  6
CONTINUOUS
 62
     7
 10
16.40285250310001
 20
12.52697897269999
 30
0.0
  0
VERTEX
  5
42C
  8
0
  6
CONTINUOUS
 62
     7
 10
16.4945058063
 20
12.4306857813
 30
0.0
  0
VERTEX
  5
42D
  8
0
  6
CONTINUOUS
 62
     7
 10
16.58892482120001
 20
12.38141512189999
 30
0.0
  0
VERTEX
  5
42E
  8
0
  6
CONTINUOUS
 62
     7
 10
16.68987006260001
 20
12.38069083619999
 30
0.0
  0
VERTEX
  5
42F
  8
0
  6
CONTINUOUS
 62
     7
 10
16.79164523440001
 20
12.42895757609999
 30
0.0
  0
VERTEX
  5
430
  8
0
  6
CONTINUOUS
 62
     7
 10
16.9000853645
 20
12.52447466069999
 30
0.0
  0
VERTEX
  5
431
  8
0
  6
CONTINUOUS
 62
     7
 10
17.08036547420001
 20
12.74620606229999
 30
0.0
  0
VERTEX
  5
432
  8
0
  6
CONTINUOUS
 62
     7
 10
17.4141542367
 20
13.24013908309999
 30
0.0
  0
VERTEX
  5
433
  8
0
  6
CONTINUOUS
 62
     7
 10
17.6863498726
 20
13.60639734259999
 30
0.0
  0
VERTEX
  5
434
  8
0
  6
CONTINUOUS
 62
     7
 10
17.7854490717
 20
13.70262466619999
 30
0.0
  0
VERTEX
  5
435
  8
0
  6
CONTINUOUS
 62
     7
 10
17.89074657100001
 20
13.76244150529999
 30
0.0
  0
VERTEX
  5
436
  8
0
  6
CONTINUOUS
 62
     7
 10
18.0826075543
 20
13.78869915649999
 30
0.0
  0
VERTEX
  5
437
  8
0
  6
CONTINUOUS
 62
     7
 10
18.3489229634
 20
13.76249574139999
 30
0.0
  0
VERTEX
  5
438
  8
0
  6
CONTINUOUS
 62
     7
 10
18.8373006394
 20
13.6218493401
 30
0.0
  0
VERTEX
  5
439
  8
0
  6
CONTINUOUS
 62
     7
 10
19.2324125368
 20
13.41283598579999
 30
0.0
  0
VERTEX
  5
43A
  8
0
  6
CONTINUOUS
 62
     7
 10
19.5195462138
 20
13.1286051985
 30
0.0
  0
VERTEX
  5
43B
  8
0
  6
CONTINUOUS
 62
     7
 10
19.63265015210001
 20
12.77890654879999
 30
0.0
  0
VERTEX
  5
43C
  8
0
  6
CONTINUOUS
 62
     7
 10
19.60089772580001
 20
12.3913138289
 30
0.0
  0
VERTEX
  5
43D
  8
0
  6
CONTINUOUS
 62
     7
 10
19.46884398760001
 20
11.9536537633
 30
0.0
  0
VERTEX
  5
43E
  8
0
  6
CONTINUOUS
 62
     7
 10
19.3176906054
 20
11.55770243779999
 30
0.0
  0
VERTEX
  5
43F
  8
0
  6
CONTINUOUS
 62
     7
 10
19.2597402839
 20
11.38277546239999
 30
0.0
  0
VERTEX
  5
440
  8
0
  6
CONTINUOUS
 62
     7
 10
19.2324725288
 20
11.23900515819999
 30
0.0
  0
VERTEX
  5
441
  8
0
  6
CONTINUOUS
 62
     7
 10
19.2443143384
 20
11.12933339599999
 30
0.0
  0
VERTEX
  5
442
  8
0
  6
CONTINUOUS
 62
     7
 10
19.3251371592
 20
11.00494895909999
 30
0.0
  0
VERTEX
  5
443
  8
0
  6
CONTINUOUS
 62
     7
 10
19.46160699410001
 20
10.9034388054
 30
0.0
  0
VERTEX
  5
444
  8
0
  6
CONTINUOUS
 62
     7
 10
19.63895791909999
 20
10.82192222939999
 30
0.0
  0
VERTEX
  5
445
  8
0
  6
CONTINUOUS
 62
     7
 10
20.11767713489999
 20
10.72043611769999
 30
0.0
  0
VERTEX
  5
446
  8
0
  6
CONTINUOUS
 62
     7
 10
20.58166510609999
 20
10.74819878509999
 30
0.0
  0
VERTEX
  5
447
  8
0
  6
CONTINUOUS
 62
     7
 10
20.72066715060001
 20
10.7963109114
 30
0.0
  0
VERTEX
  5
448
  8
0
  6
CONTINUOUS
 62
     7
 10
20.83060304840001
 20
10.87499870169999
 30
0.0
  0
VERTEX
  5
449
  8
0
  6
CONTINUOUS
 62
     7
 10
20.90857317550001
 20
10.99950305019999
 30
0.0
  0
VERTEX
  5
44A
  8
0
  6
CONTINUOUS
 62
     7
 10
20.9598584803
 20
11.1700415079
 30
0.0
  0
VERTEX
  5
44B
  8
0
  6
CONTINUOUS
 62
     7
 10
21.03015638920002
 20
11.5998985837
 30
0.0
  0
VERTEX
  5
44C
  8
0
  6
CONTINUOUS
 62
     7
 10
21.13802729439999
 20
12.06410492159999
 30
0.0
  0
VERTEX
  5
44D
  8
0
  6
CONTINUOUS
 62
     7
 10
21.27858001530001
 20
12.34286656809999
 30
0.0
  0
VERTEX
  5
44E
  8
0
  6
CONTINUOUS
 62
     7
 10
21.50747919139999
 20
12.56220630009999
 30
0.0
  0
VERTEX
  5
44F
  8
0
  6
CONTINUOUS
 62
     7
 10
21.8421621615
 20
12.69748021609999
 30
0.0
  0
VERTEX
  5
450
  8
0
  6
CONTINUOUS
 62
     7
 10
22.45617163279999
 20
12.74690159219999
 30
0.0
  0
VERTEX
  5
451
  8
0
  6
CONTINUOUS
 62
     7
 10
23.0435578901
 20
12.6376502797
 30
0.0
  0
VERTEX
  5
452
  8
0
  6
CONTINUOUS
 62
     7
 10
23.30598232369999
 20
12.50976941799999
 30
0.0
  0
VERTEX
  5
453
  8
0
  6
CONTINUOUS
 62
     7
 10
23.48248212670001
 20
12.343122193
 30
0.0
  0
VERTEX
  5
454
  8
0
  6
CONTINUOUS
 62
     7
 10
23.58594320700001
 20
12.1455213477
 30
0.0
  0
VERTEX
  5
455
  8
0
  6
CONTINUOUS
 62
     7
 10
23.63558567590002
 20
11.8082891287
 30
0.0
  0
VERTEX
  5
456
  8
0
  6
CONTINUOUS
 62
     7
 10
23.60162989930001
 20
11.4456580591
 30
0.0
  0
VERTEX
  5
457
  8
0
  6
CONTINUOUS
 62
     7
 10
23.53251920549999
 20
11.08417621589999
 30
0.0
  0
VERTEX
  5
458
  8
0
  6
CONTINUOUS
 62
     7
 10
23.47669692299999
 20
10.7503916763
 30
0.0
  0
VERTEX
  5
459
  8
0
  6
CONTINUOUS
 62
     7
 10
23.47078715000001
 20
10.5563662022
 30
0.0
  0
VERTEX
  5
45A
  8
0
  6
CONTINUOUS
 62
     7
 10
23.5066672845
 20
10.39431588309999
 30
0.0
  0
VERTEX
  5
45B
  8
0
  6
CONTINUOUS
 62
     7
 10
23.59869090520002
 20
10.2721068157
 30
0.0
  0
VERTEX
  5
45C
  8
0
  6
CONTINUOUS
 62
     7
 10
23.69831899850001
 20
10.2166526252
 30
0.0
  0
VERTEX
  5
45D
  8
0
  6
CONTINUOUS
 62
     7
 10
23.8335320329
 20
10.18473239619999
 30
0.0
  0
VERTEX
  5
45E
  8
0
  6
CONTINUOUS
 62
     7
 10
24.00858292070001
 20
10.17867682409999
 30
0.0
  0
SEQEND
  5
466
  8
0
  6
CONTINUOUS
 62
     7
  0
LINE
  5
A5
  8
0
  6
CONTINUOUS
 62
     7
 10
0.0
 20
0.0
 30
0.0
 11
48.0
 21
0.0
 31
0.0
  0
LINE
  5
A6
  8
0
  6
CONTINUOUS
 62
     7
 10
0.0
 20
65.0
 30
0.0
 11
0.0
 21
0.0
 31
0.0
  0
LINE
  5
A7
  8
0
  6
CONTINUOUS
 62
     7
 10
48.0
 20
65.0
 30
0.0
 11
0.0
 21
65.0
 31
0.0
  0
LINE
  5
A8
  8
0
  6
CONTINUOUS
 62
     7
 10
48.0
 20
0.0
 30
0.0
 11
48.0
 21
65.0
 31
0.0
  0
ENDSEC
  0
EOF
